<svg xmlns="http://www.w3.org/2000/svg" xmlns:xlink="http://www.w3.org/1999/xlink" width="500" zoomAndPan="magnify" viewBox="0 0 375 374.999991" height="500" preserveAspectRatio="xMidYMid meet" version="1.0"><defs><clipPath id="9650fabe8d"><path d="M 81.46875 63.667969 L 258 63.667969 L 258 311.167969 L 81.46875 311.167969 Z M 81.46875 63.667969 " clip-rule="nonzero"/></clipPath><clipPath id="ff66bbe9a0"><path d="M 205 95 L 293.71875 95 L 293.71875 311.167969 L 205 311.167969 Z M 205 95 " clip-rule="nonzero"/></clipPath></defs><g clip-path="url(#9650fabe8d)"><path fill="#0c1628" d="M 195.152344 303.304688 L 97.652344 303.304688 C 93.136719 303.304688 89.460938 299.632812 89.460938 295.113281 L 89.460938 79.878906 C 89.457031 75.359375 93.136719 71.6875 97.652344 71.6875 L 241.398438 71.6875 C 245.914062 71.6875 249.589844 75.359375 249.589844 79.878906 L 249.589844 95.871094 C 249.589844 98.078125 251.375 99.867188 253.582031 99.867188 C 255.789062 99.867188 257.574219 98.078125 257.574219 95.871094 L 257.574219 79.878906 C 257.574219 70.957031 250.316406 63.699219 241.398438 63.699219 L 97.652344 63.699219 C 88.726562 63.699219 81.46875 70.957031 81.46875 79.878906 L 81.46875 295.109375 C 81.46875 304.027344 88.726562 311.285156 97.648438 311.285156 L 195.152344 311.285156 C 197.359375 311.285156 199.148438 309.5 199.148438 307.292969 C 199.148438 305.085938 197.359375 303.304688 195.152344 303.304688 Z M 195.152344 303.304688 " fill-opacity="1" fill-rule="nonzero"/></g><path fill="#0c1628" d="M 231.777344 183.503906 L 135.789062 183.503906 C 133.585938 183.503906 131.796875 185.289062 131.796875 187.496094 C 131.796875 189.703125 133.585938 191.488281 135.789062 191.488281 L 231.777344 191.488281 C 233.984375 191.488281 235.769531 189.703125 235.769531 187.496094 C 235.769531 185.289062 233.984375 183.503906 231.777344 183.503906 Z M 231.777344 183.503906 " fill-opacity="1" fill-rule="nonzero"/><path fill="#0c1628" d="M 107.269531 191.488281 L 119.453125 191.488281 C 121.660156 191.488281 123.445312 189.703125 123.445312 187.496094 C 123.445312 185.289062 121.660156 183.503906 119.453125 183.503906 L 107.269531 183.503906 C 105.0625 183.503906 103.273438 185.289062 103.273438 187.496094 C 103.273438 189.703125 105.066406 191.488281 107.269531 191.488281 Z M 107.269531 191.488281 " fill-opacity="1" fill-rule="nonzero"/><path fill="#0c1628" d="M 231.777344 210.953125 L 107.269531 210.953125 C 105.0625 210.953125 103.273438 212.738281 103.273438 214.945312 C 103.273438 217.152344 105.0625 218.9375 107.269531 218.9375 L 231.773438 218.9375 C 233.980469 218.9375 235.765625 217.152344 235.765625 214.945312 C 235.765625 212.738281 233.984375 210.953125 231.777344 210.953125 Z M 231.777344 210.953125 " fill-opacity="1" fill-rule="nonzero"/><path fill="#0c1628" d="M 231.777344 238.402344 L 107.269531 238.402344 C 105.0625 238.402344 103.273438 240.1875 103.273438 242.394531 C 103.273438 244.601562 105.0625 246.390625 107.269531 246.390625 L 231.773438 246.390625 C 233.980469 246.390625 235.765625 244.601562 235.765625 242.394531 C 235.765625 240.1875 233.984375 238.402344 231.777344 238.402344 Z M 231.777344 238.402344 " fill-opacity="1" fill-rule="nonzero"/><g clip-path="url(#ff66bbe9a0)"><path fill="#0c1628" d="M 289.773438 100.652344 C 284.644531 94.910156 275.800781 94.398438 270.050781 99.515625 L 238.550781 127.542969 L 230.25 117.585938 C 227.859375 114.714844 224.488281 112.949219 220.765625 112.621094 C 217.046875 112.289062 213.40625 113.429688 210.523438 115.832031 L 210.332031 115.992188 C 207.527344 118.335938 205.796875 121.625 205.464844 125.261719 C 205.136719 128.902344 206.238281 132.453125 208.582031 135.261719 L 224.082031 153.855469 C 227.121094 157.503906 231.410156 159.707031 236.144531 160.0625 C 236.589844 160.097656 237.027344 160.109375 237.46875 160.109375 C 241.726562 160.109375 245.773438 158.574219 248.996094 155.707031 L 249.59375 155.175781 L 249.59375 261.4375 L 223.902344 261.4375 C 214.980469 261.4375 207.722656 268.695312 207.722656 277.617188 L 207.722656 307.296875 C 207.722656 308.914062 208.695312 310.367188 210.1875 310.988281 C 210.683594 311.191406 211.203125 311.292969 211.714844 311.292969 C 212.753906 311.292969 213.777344 310.886719 214.542969 310.125 L 256.402344 268.261719 C 257.125 267.542969 257.574219 266.546875 257.582031 265.441406 C 257.582031 265.441406 257.582031 265.4375 257.582031 265.4375 C 257.582031 265.4375 257.582031 265.433594 257.582031 265.433594 L 257.582031 148.0625 L 288.640625 120.40625 C 291.429688 117.921875 293.085938 114.5 293.300781 110.765625 C 293.511719 107.035156 292.257812 103.445312 289.773438 100.652344 Z M 215.703125 297.660156 L 215.703125 277.617188 C 215.703125 273.101562 219.378906 269.425781 223.894531 269.425781 L 243.9375 269.425781 Z M 285.324219 110.308594 C 285.234375 111.90625 284.519531 113.371094 283.328125 114.441406 L 243.683594 149.742188 C 241.765625 151.449219 239.296875 152.285156 236.738281 152.09375 C 234.179688 151.90625 231.863281 150.710938 230.21875 148.738281 L 214.722656 130.144531 C 213.746094 128.976562 213.289062 127.5 213.421875 125.980469 C 213.5625 124.46875 214.28125 123.097656 215.449219 122.125 L 215.640625 121.964844 C 216.886719 120.925781 218.453125 120.429688 220.058594 120.570312 C 221.648438 120.710938 223.09375 121.46875 224.117188 122.699219 L 235.058594 135.824219 C 235.75 136.65625 236.75 137.171875 237.828125 137.253906 C 238.90625 137.332031 239.96875 136.972656 240.777344 136.253906 L 275.359375 105.484375 C 277.828125 103.292969 281.621094 103.507812 283.8125 105.976562 C 284.878906 107.167969 285.414062 108.707031 285.324219 110.308594 Z M 285.324219 110.308594 " fill-opacity="1" fill-rule="nonzero"/></g><path fill="#0c1628" d="M 174.515625 120.515625 L 164.535156 120.515625 C 160.882812 120.515625 157.914062 117.546875 157.914062 113.898438 C 157.914062 110.25 160.882812 107.277344 164.535156 107.277344 L 180.136719 107.277344 C 182.34375 107.277344 184.132812 105.492188 184.132812 103.285156 C 184.132812 101.078125 182.34375 99.292969 180.136719 99.292969 L 173.519531 99.292969 L 173.519531 94.628906 C 173.519531 92.421875 171.730469 90.636719 169.523438 90.636719 C 167.320312 90.636719 165.53125 92.421875 165.53125 94.628906 L 165.53125 99.292969 L 164.535156 99.292969 C 156.480469 99.292969 149.925781 105.839844 149.925781 113.898438 C 149.925781 121.953125 156.476562 128.503906 164.535156 128.503906 L 174.515625 128.503906 C 178.167969 128.503906 181.136719 131.472656 181.136719 135.121094 C 181.136719 138.769531 178.167969 141.742188 174.515625 141.742188 L 158.914062 141.742188 C 156.707031 141.742188 154.917969 143.527344 154.917969 145.734375 C 154.917969 147.941406 156.707031 149.726562 158.914062 149.726562 L 165.53125 149.726562 L 165.53125 154.390625 C 165.53125 156.597656 167.320312 158.382812 169.523438 158.382812 C 171.730469 158.382812 173.519531 156.597656 173.519531 154.390625 L 173.519531 149.726562 L 174.515625 149.726562 C 182.570312 149.726562 189.125 143.179688 189.125 135.121094 C 189.125 127.066406 182.570312 120.515625 174.515625 120.515625 Z M 174.515625 120.515625 " fill-opacity="1" fill-rule="nonzero"/></svg>