<svg xmlns="http://www.w3.org/2000/svg" xmlns:xlink="http://www.w3.org/1999/xlink" width="500" zoomAndPan="magnify" viewBox="0 0 375 374.999991" height="500" preserveAspectRatio="xMidYMid meet" version="1.0"><defs><clipPath id="004fead56d"><path d="M 65.183594 248 L 307 248 L 307 337.5 L 65.183594 337.5 Z M 65.183594 248 " clip-rule="nonzero"/></clipPath><clipPath id="722c3a2a4b"><path d="M 110 37.5 L 309.683594 37.5 L 309.683594 164 L 110 164 Z M 110 37.5 " clip-rule="nonzero"/></clipPath></defs><path fill="#231f20" d="M 266.167969 122.816406 L 272.09375 126.132812 C 274.246094 127.335938 275.585938 129.621094 275.585938 132.089844 C 275.585938 134.765625 273.414062 136.941406 270.738281 136.941406 C 268.066406 136.941406 265.890625 134.765625 265.890625 132.089844 C 265.890625 130.296875 264.4375 128.84375 262.644531 128.84375 C 260.847656 128.84375 259.394531 130.296875 259.394531 132.089844 C 259.394531 137.601562 263.339844 142.207031 268.554688 143.230469 L 268.675781 146.421875 C 268.738281 148.171875 270.179688 149.546875 271.917969 149.546875 C 271.957031 149.546875 272 149.546875 272.042969 149.546875 C 273.832031 149.476562 275.234375 147.96875 275.164062 146.175781 L 275.03125 142.597656 C 279.164062 140.902344 282.082031 136.832031 282.082031 132.089844 C 282.082031 127.269531 279.46875 122.8125 275.265625 120.460938 L 269.339844 117.144531 C 267.210938 115.953125 265.890625 113.699219 265.890625 111.257812 C 265.890625 108.585938 268.066406 106.410156 270.738281 106.410156 C 273.414062 106.410156 275.585938 108.585938 275.585938 111.257812 L 275.585938 113.003906 C 275.585938 114.800781 277.039062 116.253906 278.832031 116.253906 C 280.628906 116.253906 282.082031 114.800781 282.082031 113.003906 L 282.082031 111.257812 C 282.082031 106.128906 278.664062 101.785156 273.984375 100.386719 L 273.984375 96.074219 C 273.984375 94.28125 272.53125 92.824219 270.738281 92.824219 C 268.945312 92.824219 267.492188 94.28125 267.492188 96.074219 L 267.492188 100.386719 C 262.816406 101.785156 259.394531 106.128906 259.394531 111.257812 C 259.394531 116.050781 261.992188 120.476562 266.167969 122.816406 Z M 266.167969 122.816406 " fill-opacity="1" fill-rule="nonzero"/><path fill="#231f20" d="M 184.371094 226.105469 C 191.429688 226.105469 198.066406 223.355469 203.058594 218.363281 C 208.046875 213.371094 210.796875 206.730469 210.796875 199.667969 C 210.796875 192.605469 208.050781 185.964844 203.058594 180.972656 C 198.066406 175.980469 191.429688 173.230469 184.371094 173.230469 C 177.3125 173.230469 170.679688 175.980469 165.6875 180.972656 C 160.695312 185.964844 157.949219 192.605469 157.949219 199.667969 C 157.949219 206.730469 160.695312 213.371094 165.6875 218.363281 C 170.679688 223.355469 177.3125 226.105469 184.371094 226.105469 Z M 184.371094 180.285156 C 195.054688 180.285156 203.746094 188.980469 203.746094 199.667969 C 203.746094 210.355469 195.054688 219.050781 184.371094 219.050781 C 173.691406 219.050781 165 210.355469 165 199.667969 C 165 188.980469 173.691406 180.285156 184.371094 180.285156 Z M 184.371094 180.285156 " fill-opacity="1" fill-rule="nonzero"/><path fill="#231f20" d="M 275.816406 244.324219 C 282.875 244.324219 289.511719 241.574219 294.5 236.582031 C 299.492188 231.585938 302.242188 224.949219 302.242188 217.886719 C 302.242188 210.824219 299.492188 204.183594 294.5 199.191406 C 289.511719 194.199219 282.875 191.449219 275.816406 191.449219 C 268.757812 191.449219 262.121094 194.199219 257.132812 199.191406 C 252.140625 204.183594 249.390625 210.824219 249.390625 217.886719 C 249.390625 224.949219 252.140625 231.585938 257.132812 236.582031 C 262.121094 241.574219 268.757812 244.324219 275.816406 244.324219 Z M 275.816406 198.503906 C 286.5 198.503906 295.1875 207.199219 295.1875 217.886719 C 295.1875 228.574219 286.5 237.269531 275.816406 237.269531 C 265.132812 237.269531 256.445312 228.574219 256.445312 217.886719 C 256.445312 207.199219 265.132812 198.503906 275.816406 198.503906 Z M 275.816406 198.503906 " fill-opacity="1" fill-rule="nonzero"/><path fill="#231f20" d="M 95.21875 244.785156 C 102.277344 244.785156 108.914062 242.035156 113.902344 237.039062 C 118.894531 232.046875 121.644531 225.40625 121.644531 218.34375 C 121.644531 211.28125 118.894531 204.644531 113.902344 199.648438 C 108.914062 194.65625 102.277344 191.90625 95.21875 191.90625 C 88.160156 191.90625 81.523438 194.65625 76.535156 199.648438 C 71.542969 204.644531 68.792969 211.28125 68.792969 218.34375 C 68.792969 225.40625 71.542969 232.046875 76.535156 237.039062 C 81.523438 242.03125 88.160156 244.785156 95.21875 244.785156 Z M 95.21875 198.960938 C 105.898438 198.960938 114.589844 207.65625 114.589844 218.34375 C 114.589844 229.03125 105.898438 237.726562 95.21875 237.726562 C 84.535156 237.726562 75.847656 229.03125 75.847656 218.34375 C 75.847656 207.65625 84.535156 198.960938 95.21875 198.960938 Z M 95.21875 198.960938 " fill-opacity="1" fill-rule="nonzero"/><g clip-path="url(#004fead56d)"><path fill="#231f20" d="M 298.144531 257.605469 C 295.390625 254.847656 292.179688 252.679688 288.601562 251.167969 C 284.898438 249.601562 280.964844 248.804688 276.914062 248.804688 C 270.617188 248.804688 264.589844 250.734375 259.480469 254.386719 C 254.714844 257.792969 251.09375 262.4375 248.96875 267.851562 L 232.175781 284.058594 L 218.222656 284.058594 C 211.6875 284.058594 205.546875 286.605469 200.925781 291.226562 C 197.148438 295.007812 194.757812 299.808594 194.011719 305.007812 L 178.121094 305.007812 C 177.375 299.808594 174.984375 295.007812 171.207031 291.226562 C 166.585938 286.605469 160.445312 284.058594 153.910156 284.058594 L 139.960938 284.058594 L 123.164062 267.851562 C 121.039062 262.4375 117.417969 257.792969 112.652344 254.386719 C 107.546875 250.734375 101.515625 248.804688 95.21875 248.804688 C 91.164062 248.804688 87.234375 249.601562 83.53125 251.167969 C 79.953125 252.679688 76.746094 254.84375 73.988281 257.605469 C 71.230469 260.363281 69.066406 263.574219 67.554688 267.152344 C 65.988281 270.855469 65.191406 274.792969 65.191406 278.84375 L 65.191406 333.972656 C 65.191406 335.917969 66.773438 337.5 68.71875 337.5 L 250.414062 337.5 C 250.414062 337.5 250.417969 337.5 250.417969 337.5 L 303.414062 337.5 C 305.359375 337.5 306.9375 335.917969 306.9375 333.972656 L 306.9375 278.84375 C 306.9375 274.792969 306.144531 270.855469 304.578125 267.152344 C 303.066406 263.574219 300.902344 260.363281 298.144531 257.605469 Z M 113.691406 294.472656 C 112.382812 293.03125 110.152344 292.925781 108.710938 294.238281 C 107.269531 295.546875 107.164062 297.78125 108.476562 299.222656 L 118.1875 309.902344 L 118.1875 330.441406 L 72.246094 330.441406 L 72.246094 278.84375 C 72.246094 272.707031 74.636719 266.933594 78.976562 262.59375 C 83.3125 258.253906 89.082031 255.863281 95.21875 255.863281 C 100.035156 255.863281 104.648438 257.339844 108.554688 260.128906 C 112.378906 262.867188 115.242188 266.636719 116.828125 271.039062 C 117.011719 271.546875 117.308594 272.007812 117.699219 272.382812 L 136.085938 290.128906 C 136.746094 290.761719 137.621094 291.117188 138.535156 291.117188 L 153.910156 291.117188 C 162.300781 291.117188 169.324219 297.089844 170.960938 305.007812 L 123.273438 305.007812 Z M 246.890625 330.441406 L 125.242188 330.441406 L 125.242188 312.0625 L 246.890625 312.0625 Z M 299.886719 330.441406 L 253.945312 330.441406 L 253.945312 309.9375 L 264.605469 299.351562 C 265.988281 297.976562 265.996094 295.742188 264.625 294.359375 C 263.253906 292.976562 261.019531 292.96875 259.636719 294.34375 L 248.898438 305.007812 L 201.171875 305.007812 C 202.808594 297.085938 209.832031 291.117188 218.222656 291.117188 L 233.597656 291.117188 C 234.511719 291.117188 235.386719 290.761719 236.046875 290.128906 L 254.433594 272.382812 C 254.824219 272.007812 255.121094 271.546875 255.300781 271.039062 C 256.890625 266.636719 259.753906 262.863281 263.578125 260.128906 C 267.484375 257.339844 272.097656 255.863281 276.914062 255.863281 C 283.050781 255.863281 288.820312 258.253906 293.15625 262.59375 C 297.496094 266.933594 299.886719 272.707031 299.886719 278.84375 Z M 299.886719 330.441406 " fill-opacity="1" fill-rule="nonzero"/></g><path fill="#231f20" d="M 223.792969 274.734375 C 225.742188 274.734375 227.320312 273.15625 227.320312 271.207031 L 227.320312 255.238281 C 227.320312 248.875 224.84375 242.886719 220.34375 238.386719 C 215.84375 233.882812 209.859375 231.402344 203.496094 231.402344 L 165.25 231.402344 C 158.886719 231.402344 152.902344 233.882812 148.402344 238.386719 C 143.902344 242.886719 141.425781 248.875 141.425781 255.238281 L 141.425781 271.207031 C 141.425781 273.15625 143.003906 274.734375 144.953125 274.734375 C 146.898438 274.734375 148.476562 273.15625 148.476562 271.207031 L 148.476562 255.238281 C 148.476562 245.988281 156.003906 238.460938 165.25 238.460938 L 203.496094 238.460938 C 212.746094 238.460938 220.269531 245.988281 220.269531 255.238281 L 220.269531 271.207031 C 220.269531 273.15625 221.847656 274.734375 223.792969 274.734375 Z M 223.792969 274.734375 " fill-opacity="1" fill-rule="nonzero"/><path fill="#231f20" d="M 114.160156 186 C 115.0625 186 115.964844 185.65625 116.65625 184.964844 L 139.523438 162.085938 L 139.523438 167.941406 C 139.523438 169.890625 141.101562 171.46875 143.050781 171.46875 C 144.996094 171.46875 146.574219 169.890625 146.574219 167.941406 L 146.574219 153.566406 C 146.574219 151.617188 144.996094 150.039062 143.050781 150.039062 L 128.679688 150.039062 C 126.734375 150.039062 125.15625 151.617188 125.15625 153.566406 C 125.15625 155.515625 126.734375 157.097656 128.679688 157.097656 L 134.535156 157.097656 L 111.667969 179.976562 C 110.289062 181.355469 110.289062 183.589844 111.667969 184.964844 C 112.355469 185.65625 113.257812 186 114.160156 186 Z M 114.160156 186 " fill-opacity="1" fill-rule="nonzero"/><path fill="#231f20" d="M 229.222656 167.941406 L 229.222656 162.085938 L 252.089844 184.964844 C 252.78125 185.65625 253.683594 186 254.585938 186 C 255.488281 186 256.390625 185.65625 257.078125 184.964844 C 258.457031 183.589844 258.457031 181.355469 257.078125 179.976562 L 234.210938 157.097656 L 240.0625 157.097656 C 242.011719 157.097656 243.589844 155.515625 243.589844 153.566406 C 243.589844 151.617188 242.011719 150.039062 240.0625 150.039062 L 225.699219 150.039062 C 223.75 150.039062 222.171875 151.617188 222.171875 153.566406 L 222.171875 167.941406 C 222.171875 169.890625 223.75 171.46875 225.699219 171.46875 C 227.644531 171.46875 229.222656 169.890625 229.222656 167.941406 Z M 229.222656 167.941406 " fill-opacity="1" fill-rule="nonzero"/><g clip-path="url(#722c3a2a4b)"><path fill="#231f20" d="M 122.855469 98.359375 C 123.507812 99.246094 124.515625 99.710938 125.539062 99.710938 C 126.230469 99.710938 126.925781 99.5 127.523438 99.054688 L 129.839844 97.335938 C 130.152344 99.246094 130.917969 101.066406 132.101562 102.664062 L 133.097656 104.011719 C 133.152344 104.082031 133.207031 104.148438 133.261719 104.210938 C 129.265625 107.425781 128.488281 113.269531 131.566406 117.425781 L 131.890625 117.863281 C 132.929688 119.269531 134.304688 120.339844 135.875 121 C 135.757812 121.410156 135.667969 121.828125 135.601562 122.257812 C 135.226562 124.796875 135.859375 127.332031 137.386719 129.394531 L 137.710938 129.832031 C 138.984375 131.546875 140.75 132.765625 142.769531 133.34375 C 142.433594 135.839844 143.070312 138.324219 144.570312 140.351562 L 144.894531 140.789062 C 146.777344 143.328125 149.683594 144.671875 152.625 144.671875 C 152.785156 144.671875 152.945312 144.664062 153.105469 144.65625 C 153.339844 146.179688 153.945312 147.628906 154.886719 148.898438 L 155.207031 149.335938 C 157.089844 151.875 159.996094 153.21875 162.9375 153.21875 C 164.804688 153.21875 166.6875 152.675781 168.335938 151.554688 L 174.453125 159.800781 C 176.175781 162.125 178.882812 163.335938 181.707031 163.335938 C 183.816406 163.335938 185.988281 162.660156 187.867188 161.265625 C 189.378906 160.144531 190.5 158.703125 191.203125 157.128906 C 191.71875 157.265625 192.257812 157.359375 192.8125 157.410156 C 193.097656 157.433594 193.386719 157.445312 193.675781 157.445312 C 195.855469 157.445312 198.011719 156.726562 199.835938 155.371094 C 201.316406 154.277344 202.460938 152.851562 203.179688 151.238281 C 203.742188 151.398438 204.332031 151.507812 204.941406 151.5625 C 205.226562 151.589844 205.515625 151.601562 205.804688 151.601562 C 207.984375 151.601562 210.140625 150.878906 211.964844 149.527344 C 215.589844 146.839844 216.984375 142.3125 215.664062 138.53125 C 216.804688 138.191406 217.917969 137.644531 218.941406 136.886719 C 223.324219 133.632812 224.445312 127.683594 221.433594 123.621094 L 215.960938 116.238281 L 228.0625 107.261719 C 230.433594 105.503906 232.1875 103.136719 233.171875 100.421875 L 235.632812 103.742188 C 235.6875 103.816406 235.746094 103.886719 235.804688 103.957031 C 235.46875 104.632812 235.152344 105.320312 234.855469 106.023438 C 232.824219 110.828125 231.796875 115.929688 231.796875 121.1875 C 231.796875 126.449219 232.824219 131.550781 234.855469 136.355469 C 236.820312 140.996094 239.625 145.164062 243.199219 148.742188 C 246.777344 152.316406 250.941406 155.125 255.578125 157.089844 C 260.382812 159.121094 265.480469 160.152344 270.734375 160.152344 C 275.992188 160.152344 281.09375 159.121094 285.894531 157.089844 C 290.53125 155.125 294.699219 152.316406 298.273438 148.742188 C 301.847656 145.164062 304.65625 140.996094 306.617188 136.355469 C 308.648438 131.550781 309.679688 126.449219 309.679688 121.1875 C 309.679688 115.929688 308.648438 110.828125 306.617188 106.023438 C 304.65625 101.382812 301.847656 97.214844 298.273438 93.636719 C 294.699219 90.0625 290.53125 87.253906 285.894531 85.289062 C 281.09375 83.257812 275.992188 82.226562 270.734375 82.226562 C 265.480469 82.226562 260.378906 83.257812 255.578125 85.289062 C 255.289062 85.410156 255.003906 85.539062 254.71875 85.664062 L 220.355469 39.289062 C 219.257812 37.808594 217.167969 37.496094 215.6875 38.59375 L 200.089844 50.164062 C 199.378906 50.691406 198.902344 51.480469 198.773438 52.355469 C 198.644531 53.234375 198.867188 54.125 199.394531 54.835938 L 201.898438 58.21875 C 197.964844 58.058594 193.953125 59.1875 190.550781 61.710938 L 180.898438 68.871094 L 180.835938 68.917969 C 180.757812 68.769531 180.667969 68.628906 180.566406 68.488281 L 179.722656 67.347656 C 178.535156 65.746094 177.019531 64.488281 175.28125 63.632812 L 176.402344 62.800781 C 177.882812 61.703125 178.195312 59.613281 177.097656 58.128906 L 165.53125 42.523438 C 165.007812 41.8125 164.21875 41.335938 163.339844 41.207031 C 162.464844 41.078125 161.574219 41.300781 160.863281 41.828125 L 111.984375 78.082031 C 111.273438 78.609375 110.800781 79.398438 110.671875 80.273438 C 110.539062 81.152344 110.761719 82.042969 111.292969 82.753906 Z M 139.175781 115.039062 C 138.402344 114.921875 137.71875 114.511719 137.253906 113.882812 L 136.929688 113.445312 C 135.96875 112.148438 136.242188 110.308594 137.539062 109.347656 L 149.035156 100.820312 C 149.558594 100.433594 150.171875 100.246094 150.777344 100.246094 C 151.671875 100.246094 152.558594 100.65625 153.132812 101.429688 L 153.457031 101.867188 C 153.921875 102.496094 154.113281 103.269531 154 104.042969 C 153.886719 104.816406 153.476562 105.5 152.847656 105.964844 L 150.882812 107.421875 L 141.347656 114.492188 C 140.71875 114.957031 139.949219 115.152344 139.175781 115.039062 Z M 144.996094 127.007812 C 144.222656 126.890625 143.542969 126.480469 143.074219 125.851562 L 142.75 125.414062 C 142.285156 124.785156 142.09375 124.015625 142.207031 123.238281 C 142.324219 122.464844 142.730469 121.78125 143.359375 121.316406 L 150.300781 116.167969 L 154.859375 112.789062 C 155.382812 112.402344 155.992188 112.214844 156.597656 112.214844 C 157.492188 112.214844 158.378906 112.625 158.953125 113.398438 L 159.277344 113.835938 C 159.742188 114.464844 159.9375 115.234375 159.820312 116.011719 C 159.707031 116.785156 159.296875 117.464844 158.667969 117.933594 L 152.292969 122.664062 L 147.171875 126.460938 C 146.542969 126.925781 145.773438 127.121094 144.996094 127.007812 Z M 155.96875 136.222656 L 154.359375 137.417969 C 153.0625 138.378906 151.222656 138.109375 150.261719 136.8125 L 149.9375 136.375 C 149.472656 135.746094 149.277344 134.972656 149.394531 134.199219 C 149.507812 133.425781 149.917969 132.742188 150.546875 132.277344 L 162.042969 123.746094 C 163.339844 122.785156 165.179688 123.058594 166.140625 124.355469 L 166.464844 124.792969 C 167.292969 125.914062 167.203125 127.433594 166.328125 128.449219 L 156.882812 135.457031 C 156.558594 135.695312 156.253906 135.953125 155.96875 136.222656 Z M 167.042969 144.207031 C 167.039062 144.207031 167.039062 144.207031 167.039062 144.207031 L 164.667969 145.964844 C 163.375 146.929688 161.535156 146.65625 160.574219 145.359375 L 160.25 144.921875 C 159.785156 144.292969 159.589844 143.519531 159.707031 142.746094 C 159.789062 142.191406 160.023438 141.683594 160.382812 141.265625 L 169.832031 134.257812 C 170.152344 134.019531 170.453125 133.765625 170.734375 133.496094 L 172.355469 132.296875 C 172.867188 131.917969 173.46875 131.71875 174.09375 131.71875 C 174.238281 131.71875 174.382812 131.730469 174.53125 131.75 C 175.304688 131.867188 175.984375 132.277344 176.453125 132.902344 L 176.777344 133.339844 C 177.738281 134.636719 177.464844 136.476562 176.167969 137.441406 Z M 183.890625 155.898438 C 182.488281 156.941406 180.621094 156.90625 179.816406 155.820312 L 173.703125 147.582031 L 178.878906 143.742188 L 185.035156 152.03125 C 185.785156 153.121094 185.273438 154.875 183.890625 155.898438 Z M 293.289062 98.625 C 299.308594 104.652344 302.628906 112.664062 302.628906 121.1875 C 302.628906 129.707031 299.308594 137.722656 293.289062 143.746094 C 287.265625 149.773438 279.257812 153.09375 270.738281 153.09375 C 262.222656 153.09375 254.210938 149.773438 248.191406 143.746094 C 242.167969 137.722656 238.851562 129.707031 238.851562 121.1875 C 238.851562 112.664062 242.167969 104.652344 248.191406 98.625 C 248.25 98.566406 248.308594 98.511719 248.367188 98.453125 L 255.589844 93.097656 C 260.191406 90.605469 265.363281 89.28125 270.738281 89.28125 C 279.257812 89.28125 287.265625 92.601562 293.289062 98.625 Z M 216.984375 45.949219 L 248.847656 88.957031 C 246.835938 90.328125 244.949219 91.890625 243.203125 93.636719 C 242.828125 94.011719 242.464844 94.394531 242.105469 94.78125 L 239.007812 97.078125 L 216.523438 66.734375 L 215.554688 65.425781 L 206.746094 53.542969 Z M 184.878906 74.234375 L 194.53125 67.074219 C 199.488281 63.398438 206.511719 64.441406 210.191406 69.402344 L 215.738281 76.886719 L 225.785156 90.453125 C 227.085938 92.207031 227.625 94.363281 227.304688 96.527344 C 226.984375 98.6875 225.839844 100.59375 224.085938 101.894531 L 211.984375 110.871094 L 193.132812 85.453125 L 193.167969 85.425781 C 194.648438 84.328125 194.960938 82.238281 193.863281 80.753906 C 192.765625 79.273438 190.671875 78.960938 189.191406 80.058594 L 173.886719 91.414062 C 173.109375 91.988281 172.152344 92.230469 171.195312 92.085938 C 170.238281 91.945312 169.394531 91.4375 168.816406 90.660156 C 168.242188 89.882812 168.003906 88.925781 168.144531 87.96875 C 168.285156 87.011719 168.792969 86.164062 169.570312 85.589844 Z M 170.667969 69.109375 C 172.152344 69.328125 173.464844 70.117188 174.359375 71.324219 L 175.203125 72.464844 C 175.304688 72.601562 175.417969 72.730469 175.535156 72.847656 L 165.59375 80.222656 C 163.386719 81.859375 161.945312 84.261719 161.539062 86.984375 C 161.136719 89.707031 161.816406 92.425781 163.453125 94.636719 C 165.472656 97.359375 168.589844 98.800781 171.742188 98.800781 C 173.871094 98.800781 176.023438 98.140625 177.863281 96.777344 L 187.769531 89.429688 L 216.070312 127.597656 C 216.875 128.679688 216.367188 130.476562 214.960938 131.515625 C 213.558594 132.558594 211.691406 132.523438 210.890625 131.4375 L 199.308594 115.804688 C 199.167969 115.621094 199.015625 115.453125 198.851562 115.304688 C 198.027344 114.566406 196.890625 114.292969 195.835938 114.546875 C 195.414062 114.652344 195.007812 114.835938 194.636719 115.113281 C 194.351562 115.324219 194.109375 115.574219 193.914062 115.847656 C 193.214844 116.816406 193.085938 118.105469 193.597656 119.203125 C 193.691406 119.402344 193.804688 119.597656 193.945312 119.785156 L 205.527344 135.417969 C 205.527344 135.417969 205.53125 135.417969 205.53125 135.421875 L 209.097656 140.234375 C 209.902344 141.320312 209.394531 143.117188 207.988281 144.15625 C 207.25 144.707031 206.351562 144.980469 205.527344 144.90625 C 205.128906 144.871094 204.390625 144.71875 203.917969 144.078125 C 203.910156 144.070312 203.902344 144.058594 203.894531 144.050781 L 198.410156 136.8125 L 190.113281 125.609375 C 189.011719 124.128906 186.921875 123.816406 185.441406 124.914062 C 185.421875 124.929688 185.402344 124.945312 185.382812 124.960938 C 185.355469 124.984375 185.324219 125.003906 185.292969 125.027344 C 183.824219 126.140625 183.535156 128.238281 184.648438 129.707031 L 193.070312 140.820312 L 196.96875 146.082031 C 197.441406 146.722656 197.375 147.472656 197.292969 147.863281 C 197.125 148.675781 196.601562 149.453125 195.859375 150.003906 C 195.121094 150.554688 194.222656 150.828125 193.398438 150.753906 C 193 150.71875 192.261719 150.5625 191.785156 149.921875 L 190.445312 148.117188 C 190.417969 148.078125 190.390625 148.039062 190.359375 147.996094 L 183.367188 138.582031 C 184.523438 135.605469 184.175781 132.113281 182.140625 129.363281 L 181.816406 128.925781 C 180.289062 126.863281 178.050781 125.519531 175.511719 125.144531 C 174.871094 125.046875 174.230469 125.015625 173.597656 125.050781 C 173.367188 123.5625 172.785156 122.105469 171.828125 120.816406 L 171.503906 120.378906 C 170.199219 118.617188 168.402344 117.433594 166.441406 116.871094 C 166.78125 114.371094 166.144531 111.886719 164.640625 109.855469 L 164.316406 109.421875 C 163.253906 107.984375 161.867188 106.933594 160.328125 106.289062 C 160.449219 105.878906 160.539062 105.457031 160.605469 105.023438 C 160.980469 102.484375 160.347656 99.953125 158.820312 97.890625 L 158.496094 97.453125 C 155.339844 93.195312 149.316406 92.300781 145.058594 95.457031 L 138.605469 100.242188 C 138.5625 100.171875 138.515625 100.101562 138.464844 100.035156 L 137.46875 98.6875 C 136.574219 97.480469 136.203125 95.996094 136.421875 94.511719 C 136.644531 93.023438 137.429688 91.710938 138.636719 90.816406 L 166.492188 70.15625 C 167.699219 69.257812 169.179688 68.886719 170.667969 69.109375 Z M 162.160156 49.183594 L 169.746094 59.421875 L 126.230469 91.699219 L 118.644531 81.460938 Z M 162.160156 49.183594 " fill-opacity="1" fill-rule="nonzero"/></g></svg>