<svg xmlns="http://www.w3.org/2000/svg" xmlns:xlink="http://www.w3.org/1999/xlink" width="500" zoomAndPan="magnify" viewBox="0 0 375 374.999991" height="500" preserveAspectRatio="xMidYMid meet" version="1.0"><defs><clipPath id="5c6b94efff"><path d="M 200 60.160156 L 209 60.160156 L 209 90 L 200 90 Z M 200 60.160156 " clip-rule="nonzero"/></clipPath></defs><path fill="#0c1628" d="M 304.347656 249.519531 L 270.910156 221.285156 C 271.992188 219.265625 272.679688 217.03125 272.875 214.671875 C 273.257812 210.128906 271.855469 205.714844 268.925781 202.253906 C 266.78125 199.703125 263.992188 197.878906 260.863281 196.941406 C 265.507812 190.730469 265.453125 181.902344 260.253906 175.722656 C 257.996094 173.042969 255.019531 171.164062 251.683594 170.273438 C 255.402344 164.183594 255.023438 156.136719 250.171875 150.375 C 247.488281 147.195312 243.789062 145.148438 239.683594 144.539062 C 241.5625 139.050781 240.609375 132.734375 236.609375 127.988281 C 233.691406 124.519531 229.570312 122.398438 225.023438 122.011719 C 220.449219 121.613281 216.054688 123.027344 212.585938 125.953125 L 211.953125 126.484375 L 192.785156 117.542969 C 182.753906 112.335938 173.972656 116.429688 169.726562 122.785156 C 168.3125 124.894531 167.445312 127.175781 166.996094 129.476562 L 162.816406 125.949219 C 155.625 119.894531 144.851562 120.816406 138.792969 127.988281 C 134.789062 132.734375 133.839844 139.050781 135.722656 144.539062 C 131.617188 145.148438 127.925781 147.191406 125.234375 150.378906 C 122.308594 153.851562 120.90625 158.261719 121.289062 162.804688 C 121.519531 165.5 122.351562 168.039062 123.71875 170.273438 C 120.484375 171.144531 117.46875 172.972656 115.148438 175.71875 C 109.945312 181.898438 109.894531 190.726562 114.542969 196.933594 C 111.5 197.859375 108.679688 199.632812 106.480469 202.242188 C 101.851562 207.722656 101.316406 215.296875 104.515625 221.28125 L 71.058594 249.515625 C 69.320312 250.980469 69.101562 253.570312 70.5625 255.304688 C 71.378906 256.265625 72.535156 256.761719 73.710938 256.761719 C 74.648438 256.761719 75.582031 256.445312 76.355469 255.796875 L 109.925781 227.46875 L 123.390625 238.820312 C 126.484375 241.429688 130.324219 242.824219 134.339844 242.824219 C 134.828125 242.824219 135.320312 242.800781 135.8125 242.761719 C 140.351562 242.375 144.46875 240.253906 147.378906 236.792969 C 150.3125 233.328125 151.71875 228.921875 151.335938 224.375 C 151.136719 221.96875 150.421875 219.703125 149.308594 217.648438 C 152.699219 216.828125 155.882812 215 158.296875 212.136719 C 161.625 208.191406 162.773438 203.171875 162.003906 198.433594 C 162.007812 198.433594 162.011719 198.433594 162.015625 198.433594 C 166.804688 198.433594 171.523438 196.445312 174.757812 192.628906 C 177.777344 189.59375 179.339844 185.460938 179.144531 181.003906 C 179.136719 180.855469 179.085938 180.714844 179.078125 180.570312 C 179.753906 180.652344 180.417969 180.765625 181.105469 180.765625 C 181.59375 180.765625 182.089844 180.742188 182.582031 180.699219 C 187.128906 180.3125 191.242188 178.1875 193.921875 174.984375 C 196.957031 171.964844 198.523438 167.84375 198.339844 163.378906 C 198.171875 159.320312 196.527344 155.507812 193.859375 152.507812 L 217.875 132.226562 C 219.671875 130.722656 221.945312 129.976562 224.320312 130.199219 C 226.683594 130.394531 228.8125 131.492188 230.320312 133.285156 C 233.457031 137 232.980469 142.589844 229.261719 145.730469 L 226.15625 148.359375 C 226.152344 148.363281 226.152344 148.363281 226.152344 148.363281 C 224.421875 149.824219 224.207031 152.417969 225.675781 154.152344 C 227.132812 155.878906 229.726562 156.09375 231.460938 154.632812 L 231.480469 154.609375 C 233.261719 153.121094 235.550781 152.414062 237.875 152.59375 C 240.242188 152.789062 242.382812 153.882812 243.890625 155.675781 C 247.027344 159.398438 246.550781 164.980469 242.828125 168.121094 L 236.242188 173.695312 C 236.242188 173.695312 236.238281 173.699219 236.234375 173.699219 C 234.503906 175.164062 234.285156 177.757812 235.75 179.484375 C 237.214844 181.21875 239.804688 181.4375 241.539062 179.972656 L 241.542969 179.972656 C 243.335938 178.453125 245.679688 177.75 247.972656 177.929688 C 250.328125 178.128906 252.457031 179.222656 253.964844 181.015625 C 257.097656 184.734375 256.621094 190.320312 252.910156 193.460938 L 244.917969 200.207031 L 244.910156 200.210938 C 243.179688 201.671875 242.957031 204.261719 244.417969 205.996094 C 245.882812 207.730469 248.46875 207.957031 250.207031 206.488281 L 250.21875 206.480469 C 252.011719 204.972656 254.269531 204.273438 256.644531 204.453125 C 259 204.652344 261.128906 205.746094 262.640625 207.546875 C 264.15625 209.339844 264.878906 211.625 264.683594 213.976562 C 264.480469 216.335938 263.386719 218.472656 261.597656 219.984375 L 224.261719 251.496094 C 209.027344 264.359375 196.460938 263 177.589844 259.242188 C 176.355469 258.984375 175.09375 259.324219 174.132812 260.136719 L 117.921875 307.585938 C 116.1875 309.042969 115.96875 311.636719 117.4375 313.375 C 118.246094 314.335938 119.402344 314.832031 120.574219 314.832031 C 121.511719 314.832031 122.449219 314.515625 123.222656 313.863281 L 177.929688 267.679688 C 185.726562 269.183594 192.859375 270.230469 199.753906 269.976562 L 252.214844 313.875 C 252.992188 314.519531 253.925781 314.832031 254.851562 314.832031 C 256.027344 314.832031 257.195312 314.332031 258.007812 313.363281 C 259.460938 311.621094 259.234375 309.03125 257.492188 307.578125 L 210.601562 268.339844 C 216.824219 266.574219 223.035156 263.289062 229.5625 257.78125 L 265.496094 227.460938 L 299.050781 255.792969 C 299.824219 256.445312 300.761719 256.761719 301.699219 256.761719 C 302.871094 256.761719 304.027344 256.269531 304.84375 255.308594 C 306.300781 253.574219 306.082031 250.984375 304.347656 249.519531 Z M 176.988281 137.90625 C 173.878906 135.28125 174.445312 130.507812 176.5625 127.347656 C 177.605469 125.789062 181.589844 120.992188 189.164062 124.910156 L 205.042969 132.320312 L 187.707031 146.957031 L 177.027344 137.945312 L 176.996094 137.921875 C 176.992188 137.917969 176.996094 137.910156 176.988281 137.90625 Z M 141.113281 231.484375 C 139.605469 233.28125 137.476562 234.371094 135.125 234.570312 C 132.746094 234.78125 130.476562 234.042969 128.691406 232.535156 L 113.808594 219.992188 C 110.09375 216.835938 109.621094 211.253906 112.761719 207.542969 C 115.875 203.84375 121.390625 203.355469 125.117188 206.4375 L 140.078125 219.050781 C 141.867188 220.558594 142.960938 222.691406 143.15625 225.050781 C 143.355469 227.414062 142.628906 229.695312 141.113281 231.484375 Z M 152.027344 206.835938 C 148.886719 210.550781 143.308594 211.027344 139.589844 207.898438 L 130.515625 200.246094 C 130.503906 200.238281 130.5 200.222656 130.484375 200.210938 L 130.480469 200.207031 L 122.492188 193.464844 C 118.777344 190.316406 118.300781 184.734375 121.429688 181.019531 C 122.945312 179.222656 125.082031 178.128906 127.4375 177.929688 C 129.800781 177.738281 132.085938 178.457031 133.875 179.972656 L 133.878906 179.976562 C 133.886719 179.984375 133.902344 179.984375 133.910156 179.992188 L 150.960938 194.398438 C 154.683594 197.535156 155.15625 203.121094 152.027344 206.835938 Z M 168.71875 187.070312 C 165.574219 190.785156 159.996094 191.261719 156.269531 188.121094 L 139.125 173.640625 C 139.121094 173.636719 139.113281 173.636719 139.109375 173.632812 L 132.566406 168.113281 C 130.773438 166.605469 129.679688 164.472656 129.480469 162.109375 C 129.277344 159.753906 130.003906 157.460938 131.511719 155.675781 C 133.023438 153.882812 135.15625 152.789062 137.515625 152.59375 C 139.832031 152.375 142.136719 153.105469 143.921875 154.597656 L 143.960938 154.632812 L 167.65625 174.628906 C 169.609375 176.277344 170.839844 178.792969 170.949219 181.347656 C 171.035156 183.492188 170.328125 185.4375 168.71875 187.070312 Z M 187.894531 169.421875 C 186.386719 171.214844 184.257812 172.304688 181.902344 172.507812 C 179.53125 172.726562 177.257812 171.984375 175.476562 170.480469 C 175.277344 170.3125 175.09375 170.308594 174.925781 170.40625 C 174.308594 169.683594 173.683594 168.964844 172.953125 168.351562 L 149.253906 148.351562 C 149.238281 148.335938 149.222656 148.324219 149.203125 148.308594 L 146.136719 145.726562 C 142.417969 142.582031 141.941406 136.996094 145.074219 133.285156 C 148.214844 129.570312 153.800781 129.089844 157.519531 132.21875 L 163.132812 136.964844 C 163.136719 136.964844 163.136719 136.96875 163.140625 136.972656 L 172.0625 144.507812 L 174.824219 146.835938 L 174.828125 146.835938 L 186.855469 156.992188 C 188.808594 158.640625 190.035156 161.152344 190.144531 163.71875 C 190.230469 165.847656 189.515625 167.78125 187.894531 169.421875 Z M 187.894531 169.421875 " fill-opacity="1" fill-rule="nonzero"/><g clip-path="url(#5c6b94efff)"><path fill="#0c1628" d="M 204.152344 89.980469 C 206.421875 89.980469 208.257812 88.144531 208.257812 85.875 L 208.257812 64.269531 C 208.257812 61.996094 206.421875 60.160156 204.152344 60.160156 C 201.878906 60.160156 200.042969 61.996094 200.042969 64.269531 L 200.042969 85.875 C 200.042969 88.144531 201.878906 89.980469 204.152344 89.980469 Z M 204.152344 89.980469 " fill-opacity="1" fill-rule="nonzero"/></g><path fill="#0c1628" d="M 258.574219 101.789062 C 259.839844 101.789062 261.082031 101.207031 261.894531 100.113281 L 274.671875 82.699219 C 276.011719 80.871094 275.617188 78.300781 273.789062 76.957031 C 271.949219 75.609375 269.386719 76.015625 268.046875 77.839844 L 255.265625 95.253906 C 253.929688 97.082031 254.324219 99.65625 256.148438 101 C 256.882812 101.53125 257.730469 101.789062 258.574219 101.789062 Z M 258.574219 101.789062 " fill-opacity="1" fill-rule="nonzero"/><path fill="#0c1628" d="M 146.414062 100.113281 C 147.214844 101.210938 148.464844 101.789062 149.730469 101.789062 C 150.574219 101.789062 151.421875 101.53125 152.15625 100.992188 C 153.984375 99.65625 154.378906 97.082031 153.035156 95.253906 L 140.25 77.839844 C 138.910156 76.015625 136.34375 75.617188 134.511719 76.960938 C 132.683594 78.300781 132.289062 80.871094 133.632812 82.699219 Z M 146.414062 100.113281 " fill-opacity="1" fill-rule="nonzero"/></svg>