<svg xmlns="http://www.w3.org/2000/svg" xmlns:xlink="http://www.w3.org/1999/xlink" width="500" zoomAndPan="magnify" viewBox="0 0 375 374.999991" height="500" preserveAspectRatio="xMidYMid meet" version="1.0"><defs><clipPath id="00abe7813e"><path d="M 75 58.796875 L 300 58.796875 L 300 316.046875 L 75 316.046875 Z M 75 58.796875 " clip-rule="nonzero"/></clipPath></defs><g clip-path="url(#00abe7813e)"><path fill="#0c1628" d="M 187.515625 316.199219 C 186.265625 316.199219 185.007812 315.957031 183.839844 315.464844 L 183.828125 315.460938 C 168.273438 308.925781 155.980469 300.515625 145.671875 293.140625 C 73.839844 241.792969 75.253906 137.375 75.855469 92.785156 C 75.890625 90.082031 75.925781 87.585938 75.941406 85.320312 C 75.964844 81.339844 78.496094 77.800781 82.242188 76.519531 C 95.863281 71.867188 109.914062 68.074219 124 65.25 C 144.835938 61.070312 166.199219 58.898438 187.5 58.796875 C 208.84375 58.898438 230.210938 61.070312 251.039062 65.25 C 265.132812 68.078125 279.183594 71.867188 292.792969 76.515625 C 296.542969 77.800781 299.078125 81.339844 299.105469 85.320312 C 299.117188 87.582031 299.152344 90.082031 299.1875 92.785156 C 299.785156 137.375 301.199219 241.789062 229.371094 293.140625 C 219.066406 300.511719 206.769531 308.925781 191.214844 315.460938 C 190.035156 315.949219 188.777344 316.199219 187.515625 316.199219 Z M 187.375 306.980469 C 187.445312 307.007812 187.59375 307.007812 187.664062 306.980469 C 202.332031 300.820312 213.667969 293.070312 224.015625 285.667969 C 291.941406 237.113281 290.578125 136.058594 289.992188 92.910156 C 289.957031 90.1875 289.921875 87.664062 289.910156 85.386719 C 276.585938 80.703125 262.929688 77.015625 249.226562 74.261719 C 228.980469 70.199219 208.210938 68.085938 187.5 67.984375 C 166.832031 68.082031 146.0625 70.199219 125.8125 74.261719 C 112.113281 77.011719 98.457031 80.695312 85.222656 85.214844 C 85.121094 87.664062 85.082031 90.183594 85.046875 92.910156 C 84.464844 136.058594 83.097656 237.113281 151.023438 285.667969 C 161.371094 293.070312 172.703125 300.816406 187.375 306.980469 Z M 187.375 306.980469 " fill-opacity="1" fill-rule="nonzero"/></g><path fill="#0c1628" d="M 187.523438 296.535156 C 186.847656 296.535156 186.171875 296.386719 185.550781 296.089844 C 174.152344 290.679688 164.890625 284.28125 156.367188 278.191406 C 92.414062 232.472656 93.71875 132.78125 94.210938 95.25 C 94.234375 93.253906 95.542969 91.5 97.457031 90.914062 C 107.34375 87.886719 117.488281 85.3125 127.617188 83.28125 C 147.289062 79.332031 167.460938 77.277344 187.585938 77.183594 C 207.636719 77.277344 227.753906 79.332031 247.421875 83.28125 C 257.53125 85.3125 267.683594 87.886719 277.582031 90.917969 C 279.496094 91.5 280.804688 93.257812 280.828125 95.253906 C 281.320312 132.78125 282.625 232.472656 218.671875 278.1875 C 210.167969 284.273438 200.902344 290.667969 189.488281 296.089844 C 188.867188 296.390625 188.195312 296.535156 187.523438 296.535156 Z M 103.355469 98.738281 C 102.859375 140.03125 103.304688 228.957031 161.714844 270.714844 C 169.382812 276.203125 177.675781 281.941406 187.515625 286.835938 C 197.371094 281.933594 205.660156 276.195312 213.324219 270.710938 C 271.734375 228.964844 272.171875 140.039062 271.679688 98.742188 C 263.089844 96.210938 254.335938 94.046875 245.605469 92.292969 C 226.519531 88.457031 207 86.472656 187.582031 86.378906 C 168.097656 86.472656 148.515625 88.464844 129.425781 92.292969 C 120.691406 94.046875 111.9375 96.214844 103.355469 98.738281 Z M 103.355469 98.738281 " fill-opacity="1" fill-rule="nonzero"/><path fill="#0c1628" d="M 174.574219 221.035156 C 170.4375 221.035156 166.316406 219.46875 163.175781 216.332031 L 138.285156 191.441406 C 131.425781 184.585938 131.449219 173.40625 138.332031 166.527344 C 141.660156 163.195312 146.085938 161.355469 150.785156 161.34375 C 150.800781 161.34375 150.816406 161.34375 150.828125 161.34375 C 155.523438 161.34375 159.929688 163.167969 163.246094 166.480469 L 174.683594 177.914062 L 211.839844 140.757812 C 218.71875 133.875 229.890625 133.847656 236.753906 140.710938 C 243.613281 147.5625 243.589844 158.746094 236.707031 165.625 L 186.046875 216.28125 C 182.878906 219.449219 178.722656 221.035156 174.574219 221.035156 Z M 169.675781 209.828125 C 172.382812 212.527344 176.8125 212.519531 179.542969 209.785156 L 230.210938 159.121094 C 233.511719 155.820312 233.53125 150.476562 230.257812 147.203125 C 226.984375 143.933594 221.640625 143.964844 218.339844 147.25 L 177.929688 187.660156 C 176.136719 189.453125 173.226562 189.453125 171.429688 187.660156 L 156.742188 172.976562 C 155.164062 171.40625 153.066406 170.53125 150.828125 170.53125 C 150.820312 170.53125 150.816406 170.53125 150.808594 170.53125 C 148.554688 170.535156 146.429688 171.421875 144.828125 173.023438 C 141.527344 176.324219 141.507812 181.664062 144.78125 184.941406 Z M 169.675781 209.828125 " fill-opacity="1" fill-rule="nonzero"/></svg>