<svg xmlns="http://www.w3.org/2000/svg" xmlns:xlink="http://www.w3.org/1999/xlink" width="500" zoomAndPan="magnify" viewBox="0 0 375 374.999991" height="500" preserveAspectRatio="xMidYMid meet" version="1.0"><defs><clipPath id="9450f82364"><path d="M 39.523438 129 L 220 129 L 220 312 L 39.523438 312 Z M 39.523438 129 " clip-rule="nonzero"/></clipPath><clipPath id="162aa6c06e"><path d="M 294 114 L 335.773438 114 L 335.773438 157 L 294 157 Z M 294 114 " clip-rule="nonzero"/></clipPath></defs><g clip-path="url(#9450f82364)"><path fill="#0c1628" d="M 78.828125 274.546875 L 62.644531 305.296875 C 61.71875 306.914062 61.949219 308.996094 63.105469 310.382812 C 64.03125 311.539062 65.417969 312 66.574219 312 C 67.035156 312 67.5 312 67.960938 311.769531 L 145.878906 287.261719 C 184.953125 281.019531 214.316406 253.273438 219.171875 219.285156 C 215.933594 217.207031 213.160156 215.355469 210.617188 213.273438 C 208.304688 245.183594 181.253906 272.234375 144.722656 278.011719 C 144.257812 278.011719 144.027344 278.011719 143.566406 278.246094 L 76.054688 299.746094 L 89.230469 275.007812 C 90.386719 272.695312 89.464844 269.921875 87.382812 268.765625 C 63.105469 255.816406 48.769531 233.621094 48.769531 209.113281 C 48.769531 170.269531 85.070312 138.828125 129.695312 138.828125 C 135.242188 138.828125 140.792969 139.289062 145.878906 140.214844 C 144.953125 138.828125 144.257812 137.207031 143.335938 135.589844 C 142.871094 134.894531 142.410156 133.972656 142.179688 133.277344 C 141.714844 132.121094 141.253906 131.195312 140.792969 130.039062 C 137.09375 129.808594 133.394531 129.578125 129.695312 129.578125 C 79.984375 129.578125 39.523438 165.183594 39.523438 209.113281 C 39.523438 235.472656 54.089844 259.746094 78.828125 274.546875 Z M 78.828125 274.546875 " fill-opacity="1" fill-rule="nonzero"/></g><path fill="#0c1628" d="M 151.425781 131.429688 C 166.222656 158.246094 186.800781 182.753906 211.078125 201.945312 C 219.863281 208.882812 233.738281 219.75 249.457031 219.75 C 253.390625 219.75 257.320312 219.054688 261.480469 217.667969 C 272.347656 214.199219 288.53125 201.714844 290.613281 200.328125 C 294.542969 197.785156 296.855469 193.855469 297.550781 189.460938 C 298.242188 185.066406 296.855469 180.445312 293.621094 177.207031 L 277.203125 159.171875 C 271.421875 152.929688 265.179688 149.691406 259.402344 149.691406 C 256.164062 149.691406 251.308594 151.082031 246.914062 156.398438 L 237.898438 166.109375 C 235.816406 166.570312 225.644531 165.414062 212.929688 150.15625 C 202.0625 137.207031 199.519531 126.804688 199.75 123.796875 L 211.773438 116.398438 C 215.933594 113.855469 218.9375 109.464844 219.402344 104.609375 C 220.09375 99.753906 218.476562 94.898438 215.238281 91.429688 L 194.199219 68.308594 C 191.425781 65.300781 187.496094 63.453125 183.332031 63.222656 C 178.941406 62.992188 174.777344 64.609375 171.542969 67.613281 C 165.300781 73.394531 153.046875 89.808594 151.195312 92.585938 C 144.492188 103.683594 144.027344 117.785156 150.269531 129.808594 C 150.734375 129.808594 151.195312 130.503906 151.425781 131.429688 Z M 159.058594 96.746094 C 160.210938 94.898438 172.234375 78.945312 177.785156 73.855469 C 179.171875 72.703125 180.789062 72.007812 182.640625 72.007812 C 182.640625 72.007812 182.871094 72.007812 182.871094 72.007812 C 184.027344 72.007812 185.875 72.46875 187.265625 74.089844 L 208.304688 97.210938 C 209.691406 98.828125 210.382812 100.910156 210.152344 102.988281 C 209.921875 105.070312 208.535156 107.152344 206.683594 108.308594 L 193.507812 116.398438 C 192.351562 117.09375 190.730469 118.710938 190.269531 121.71875 C 189.113281 128.652344 193.507812 141.832031 205.53125 156.167969 C 220.558594 173.96875 233.273438 175.589844 236.742188 175.589844 C 239.980469 175.589844 242.523438 174.664062 243.910156 172.8125 L 253.390625 162.871094 C 253.390625 162.871094 253.621094 162.640625 253.621094 162.640625 C 255.46875 160.328125 257.320312 159.402344 259.402344 159.171875 C 262.40625 158.941406 266.335938 161.484375 270.035156 165.648438 L 286.453125 183.679688 C 287.609375 185.066406 288.300781 186.6875 288.070312 188.535156 C 287.839844 190.386719 286.683594 192.003906 285.066406 192.929688 C 284.832031 192.929688 284.832031 193.160156 284.601562 193.160156 C 279.976562 196.859375 266.105469 206.570312 258.246094 209.113281 C 258.246094 209.113281 258.011719 209.113281 258.011719 209.113281 C 242.058594 215.125 226.800781 202.871094 216.628906 195.011719 C 193.507812 176.28125 173.621094 152.929688 159.75 126.804688 C 159.289062 126.109375 159.058594 125.417969 158.59375 124.722656 C 153.738281 115.707031 153.96875 104.839844 159.058594 96.746094 Z M 159.058594 96.746094 " fill-opacity="1" fill-rule="nonzero"/><g clip-path="url(#162aa6c06e)"><path fill="#0c1628" d="M 298.707031 114.550781 C 296.164062 114.550781 294.082031 116.628906 294.082031 119.175781 C 294.082031 121.71875 296.164062 123.796875 298.707031 123.796875 C 313.964844 123.796875 326.21875 136.28125 326.21875 151.542969 C 326.21875 154.085938 328.300781 156.167969 330.84375 156.167969 C 333.386719 156.167969 335.46875 154.085938 335.46875 151.542969 C 335.46875 131.195312 319.050781 114.550781 298.707031 114.550781 Z M 298.707031 114.550781 " fill-opacity="1" fill-rule="nonzero"/></g><path fill="#0c1628" d="M 292.925781 141.136719 C 303.097656 141.136719 311.191406 149.460938 311.191406 159.636719 C 311.191406 162.179688 313.273438 164.257812 315.816406 164.257812 C 318.359375 164.257812 320.4375 162.179688 320.4375 159.636719 C 320.4375 144.375 307.953125 131.890625 292.925781 131.890625 C 290.382812 131.890625 288.300781 133.972656 288.300781 136.515625 C 288.300781 139.058594 290.382812 141.136719 292.925781 141.136719 Z M 292.925781 141.136719 " fill-opacity="1" fill-rule="nonzero"/><path fill="#0c1628" d="M 285.988281 157.324219 C 291.074219 157.324219 295.238281 161.484375 295.238281 166.570312 C 295.238281 169.113281 297.320312 171.195312 299.863281 171.195312 C 302.40625 171.195312 304.484375 169.113281 304.484375 166.570312 C 304.484375 156.398438 296.164062 148.074219 285.988281 148.074219 C 283.445312 148.074219 281.367188 150.15625 281.367188 152.699219 C 281.367188 155.242188 283.445312 157.324219 285.988281 157.324219 Z M 285.988281 157.324219 " fill-opacity="1" fill-rule="nonzero"/><path fill="#0c1628" d="M 156.976562 182.292969 C 154.894531 171.195312 146.109375 162.410156 135.242188 160.328125 C 127.148438 158.710938 118.59375 160.792969 112.351562 166.109375 C 105.648438 171.195312 101.949219 179.289062 101.949219 187.84375 C 101.949219 190.386719 104.03125 192.464844 106.574219 192.464844 C 109.117188 192.464844 111.195312 190.386719 111.195312 187.84375 C 111.195312 182.0625 113.738281 176.746094 118.132812 173.046875 C 122.527344 169.578125 127.84375 168.191406 133.394531 169.347656 C 140.558594 170.734375 146.339844 176.746094 147.726562 184.144531 C 149.578125 193.621094 144.492188 202.871094 135.472656 205.875 C 129.230469 207.957031 124.839844 214.199219 124.839844 221.367188 L 124.839844 228.996094 C 124.839844 231.539062 126.917969 233.621094 129.460938 233.621094 C 132.003906 233.621094 134.085938 231.539062 134.085938 228.996094 L 134.085938 221.136719 C 134.085938 218.128906 135.9375 215.355469 138.480469 214.429688 C 151.890625 209.808594 159.519531 196.398438 156.976562 182.292969 Z M 156.976562 182.292969 " fill-opacity="1" fill-rule="nonzero"/><path fill="#0c1628" d="M 136.628906 247.492188 C 136.628906 247.949219 136.585938 248.398438 136.496094 248.847656 C 136.40625 249.292969 136.277344 249.726562 136.101562 250.148438 C 135.925781 250.570312 135.714844 250.96875 135.460938 251.347656 C 135.207031 251.726562 134.921875 252.078125 134.597656 252.398438 C 134.277344 252.71875 133.925781 253.007812 133.546875 253.261719 C 133.167969 253.515625 132.769531 253.726562 132.347656 253.902344 C 131.925781 254.078125 131.492188 254.207031 131.046875 254.296875 C 130.601562 254.386719 130.148438 254.429688 129.695312 254.429688 C 129.238281 254.429688 128.785156 254.386719 128.339844 254.296875 C 127.894531 254.207031 127.460938 254.078125 127.039062 253.902344 C 126.617188 253.726562 126.21875 253.515625 125.839844 253.261719 C 125.460938 253.007812 125.109375 252.71875 124.789062 252.398438 C 124.464844 252.078125 124.179688 251.726562 123.925781 251.347656 C 123.671875 250.96875 123.460938 250.570312 123.285156 250.148438 C 123.109375 249.726562 122.980469 249.292969 122.890625 248.847656 C 122.800781 248.398438 122.757812 247.949219 122.757812 247.492188 C 122.757812 247.039062 122.800781 246.585938 122.890625 246.140625 C 122.980469 245.695312 123.109375 245.261719 123.285156 244.839844 C 123.460938 244.417969 123.671875 244.019531 123.925781 243.640625 C 124.179688 243.261719 124.464844 242.910156 124.789062 242.589844 C 125.109375 242.265625 125.460938 241.980469 125.839844 241.726562 C 126.21875 241.472656 126.617188 241.261719 127.039062 241.085938 C 127.460938 240.910156 127.894531 240.78125 128.339844 240.691406 C 128.785156 240.601562 129.238281 240.558594 129.695312 240.558594 C 130.148438 240.558594 130.601562 240.601562 131.046875 240.691406 C 131.492188 240.78125 131.925781 240.910156 132.347656 241.085938 C 132.769531 241.261719 133.167969 241.472656 133.546875 241.726562 C 133.925781 241.980469 134.277344 242.265625 134.597656 242.589844 C 134.921875 242.910156 135.207031 243.261719 135.460938 243.640625 C 135.714844 244.019531 135.925781 244.417969 136.101562 244.839844 C 136.277344 245.261719 136.40625 245.695312 136.496094 246.140625 C 136.585938 246.585938 136.628906 247.039062 136.628906 247.492188 Z M 136.628906 247.492188 " fill-opacity="1" fill-rule="nonzero"/></svg>