<?xml version="1.0" encoding="UTF-8"?>
<svg id="Layer_1" xmlns="http://www.w3.org/2000/svg" version="1.1" viewBox="0 0 64 64">
  <!-- Generator: Adobe Illustrator 29.5.0, SVG Export Plug-In . SVG Version: 2.1.0 Build 137)  -->
  <defs>
    <style>
      .st0 {
        fill: none;
        stroke: #231f20;
        stroke-linecap: round;
        stroke-linejoin: round;
        stroke-width: 2px;
      }
    </style>
  </defs>
  <path class="st0" d="M29.31,53.35V5.43c0-1.49,1.2-2.69,2.69-2.69.74,0,1.42.3,1.9.79.49.48.79,1.15.79,1.9v47.92"/>
  <path class="st0" d="M29.31,14.88H5.31c-1.25,0-2.26-1.01-2.26-2.26s1.01-2.26,2.26-2.26h24"/>
  <path class="st0" d="M34.69,10.36h24c1.25,0,2.26,1.01,2.26,2.26,0,.62-.25,1.19-.66,1.6s-.97.66-1.6.66h-24"/>
  <path class="st0" d="M23.15,53.35h17.7c2.19,0,3.97,1.78,3.97,3.97v3.95h-25.63v-3.95c0-2.19,1.78-3.97,3.97-3.97Z"/>
  <circle class="st0" cx="13.35" cy="34.12" r="10.3"/>
  <circle class="st0" cx="50.65" cy="34.12" r="10.3"/>
  <polyline class="st0" points="16.72 24.37 13.35 14.88 9.98 24.37"/>
  <polyline class="st0" points="54.02 24.37 50.65 14.88 47.28 24.37"/>
  <circle class="st0" cx="46.67" cy="30.95" r="2.01"/>
  <circle class="st0" cx="54.62" cy="30.95" r="2.01"/>
  <path class="st0" d="M46.37,35.94h8.55v.59c0,2.36-1.91,4.27-4.27,4.27h0c-2.36,0-4.27-1.91-4.27-4.27v-.59h0Z"/>
  <path class="st0" d="M13.85,39.7l4.26-3.81c1.17-1.04,1.45-2.76.68-4.12h0c-.98-1.72-3.24-2.21-4.84-1.05l-.59.43-.59-.43c-1.6-1.16-3.86-.68-4.84,1.05h0c-.77,1.36-.49,3.08.68,4.12l4.26,3.81c.29.25.72.25,1,0Z"/>
</svg>