<?xml version="1.0" encoding="UTF-8"?>
<svg id="Layer_1" xmlns="http://www.w3.org/2000/svg" version="1.1" viewBox="0 0 64 64">
  <!-- Generator: Adobe Illustrator 29.5.0, SVG Export Plug-In . SVG Version: 2.1.0 Build 137)  -->
  <defs>
    <style>
      .st0 {
        fill: none;
        stroke: #231f20;
        stroke-linecap: round;
        stroke-linejoin: round;
        stroke-width: 2px;
      }
    </style>
  </defs>
  <path class="st0" d="M53.81,11.53s-13.9,2.12-21.81-7.47c-7.91,9.59-21.81,7.47-21.81,7.47v18.95c0,10.31,5.46,19.85,14.34,25.07l7.47,4.39,7.47-4.39c8.89-5.22,14.34-14.76,14.34-25.07V11.53Z"/>
  <path class="st0" d="M33.4,46.21l11.9-10.63c3.26-2.91,4.05-7.71,1.89-11.51h0c-2.74-4.81-9.05-6.18-13.53-2.93l-1.65,1.2-1.65-1.2c-4.48-3.25-10.79-1.89-13.53,2.93h0c-2.16,3.8-1.37,8.6,1.89,11.51l11.9,10.63c.8.71,2,.71,2.8,0Z"/>
  <polygon class="st0" points="29.82 34.86 26.35 34.86 26.35 30.52 29.82 30.52 29.82 27.05 34.17 27.05 34.17 30.52 37.64 30.52 37.64 34.86 34.17 34.86 34.17 38.33 29.82 38.33 29.82 34.86"/>
</svg>