<svg xmlns="http://www.w3.org/2000/svg" xmlns:xlink="http://www.w3.org/1999/xlink" width="500" zoomAndPan="magnify" viewBox="0 0 375 374.999991" height="500" preserveAspectRatio="xMidYMid meet" version="1.0"><defs><clipPath id="afc3b27089"><path d="M 198 183 L 303 183 L 303 315.550781 L 198 315.550781 Z M 198 183 " clip-rule="nonzero"/></clipPath><clipPath id="27fdbe1eca"><path d="M 83 183 L 188 183 L 188 315.550781 L 83 315.550781 Z M 83 183 " clip-rule="nonzero"/></clipPath></defs><g clip-path="url(#afc3b27089)"><path fill="#000000" d="M 281.945312 190.945312 C 279.746094 185.144531 274.035156 182.703125 268.972656 183.34375 C 263.28125 184.066406 257.769531 188.761719 258.246094 196.339844 L 259.113281 210.058594 C 259.527344 216.503906 258.976562 222.867188 257.460938 229.144531 C 252.625 225.925781 246.476562 226.308594 241.941406 230.308594 C 241.914062 230.335938 216.878906 253.777344 216.878906 253.777344 C 195.210938 268.664062 198.671875 292.90625 199.023438 311.730469 C 199.035156 312.214844 199.136719 312.675781 199.332031 313.121094 C 199.527344 313.5625 199.796875 313.953125 200.144531 314.289062 C 200.496094 314.625 200.894531 314.882812 201.34375 315.058594 C 201.796875 315.234375 202.261719 315.320312 202.746094 315.308594 C 203.230469 315.300781 203.695312 315.199219 204.136719 315.003906 C 204.582031 314.8125 204.972656 314.542969 205.308594 314.191406 C 205.644531 313.84375 205.902344 313.445312 206.078125 312.996094 C 206.257812 312.542969 206.339844 312.078125 206.332031 311.59375 C 206 293.78125 202.714844 272.21875 221.21875 259.675781 C 221.589844 259.425781 220.917969 259.164062 246.808594 235.769531 C 249.480469 233.359375 252.367188 234.222656 254.132812 235.777344 C 255.859375 237.296875 257.148438 240.144531 255.109375 243.15625 L 241.289062 263.578125 C 241.015625 263.980469 240.832031 264.417969 240.734375 264.894531 C 240.636719 265.367188 240.632812 265.84375 240.722656 266.320312 C 240.816406 266.796875 240.996094 267.238281 241.261719 267.644531 C 241.527344 268.050781 241.863281 268.386719 242.261719 268.660156 C 242.664062 268.933594 243.101562 269.117188 243.578125 269.214844 C 244.050781 269.3125 244.527344 269.316406 245.003906 269.226562 C 245.480469 269.132812 245.921875 268.953125 246.324219 268.6875 C 246.730469 268.421875 247.066406 268.085938 247.339844 267.683594 L 261.160156 247.265625 C 261.703125 246.488281 262.152344 245.664062 262.511719 244.789062 C 262.867188 243.910156 263.125 243.007812 263.28125 242.074219 C 263.4375 241.140625 263.488281 240.199219 263.433594 239.253906 C 263.382812 238.3125 263.226562 237.382812 262.964844 236.472656 C 265.851562 227.738281 267 218.78125 266.410156 209.597656 L 265.542969 195.875 C 265.261719 191.421875 269.117188 190.707031 269.890625 190.609375 C 270.667969 190.511719 274.574219 190.242188 275.414062 194.621094 L 277.160156 203.105469 C 275.1875 211.921875 274.164062 218.046875 269.5 226.816406 C 269.269531 227.242188 269.132812 227.699219 269.085938 228.183594 C 269.039062 228.664062 269.085938 229.140625 269.230469 229.601562 C 269.371094 230.066406 269.59375 230.488281 269.902344 230.863281 C 270.210938 231.238281 270.578125 231.539062 271.007812 231.765625 C 271.433594 231.996094 271.890625 232.132812 272.371094 232.179688 C 272.855469 232.226562 273.328125 232.179688 273.792969 232.035156 C 274.253906 231.894531 274.675781 231.671875 275.046875 231.363281 C 275.421875 231.054688 275.722656 230.683594 275.953125 230.257812 C 278.972656 224.570312 281.1875 218.585938 282.59375 212.300781 L 285.597656 198.882812 C 286.570312 194.53125 290.46875 194.921875 291.242188 195.042969 C 292.011719 195.167969 295.84375 196.003906 295.421875 200.445312 L 293.996094 218.191406 C 290.851562 251.226562 268.992188 261.867188 254.070312 310.585938 C 253.925781 311.050781 253.878906 311.523438 253.925781 312.007812 C 253.96875 312.492188 254.105469 312.949219 254.332031 313.378906 C 254.5625 313.808594 254.863281 314.175781 255.234375 314.488281 C 255.609375 314.796875 256.027344 315.023438 256.492188 315.164062 C 256.957031 315.308594 257.429688 315.355469 257.914062 315.308594 C 258.394531 315.261719 258.851562 315.125 259.28125 314.898438 C 259.707031 314.667969 260.078125 314.367188 260.386719 313.992188 C 260.695312 313.617188 260.917969 313.199219 261.058594 312.734375 C 275.742188 264.796875 297.917969 254.253906 301.277344 218.859375 L 302.703125 201.109375 C 303.820312 189.101562 289.613281 183.648438 281.945312 190.945312 Z M 281.945312 190.945312 " fill-opacity="1" fill-rule="nonzero"/></g><g clip-path="url(#27fdbe1eca)"><path fill="#000000" d="M 169.316406 253.777344 C 169.316406 253.777344 144.28125 230.335938 144.253906 230.308594 C 136.480469 223.453125 125.546875 228.042969 123.171875 236.664062 C 120.148438 232.863281 117.582031 228.769531 115.484375 224.386719 C 113.382812 220.003906 111.800781 215.441406 110.734375 210.699219 L 109.035156 203.105469 L 110.78125 194.625 C 111.617188 190.242188 115.527344 190.511719 116.304688 190.609375 C 117.078125 190.707031 120.933594 191.421875 120.652344 195.875 C 119.769531 209.808594 119.578125 211.582031 119.652344 215.492188 C 119.664062 215.980469 119.765625 216.445312 119.957031 216.890625 C 120.152344 217.335938 120.421875 217.726562 120.773438 218.0625 C 121.121094 218.402344 121.523438 218.65625 121.972656 218.835938 C 122.425781 219.011719 122.894531 219.097656 123.378906 219.085938 C 123.863281 219.078125 124.328125 218.976562 124.773438 218.78125 C 125.21875 218.585938 125.605469 218.316406 125.945312 217.964844 C 126.28125 217.613281 126.535156 217.214844 126.710938 216.761719 C 126.890625 216.308594 126.972656 215.839844 126.964844 215.355469 C 126.894531 211.804688 127.039062 210.71875 127.945312 196.339844 C 128.425781 188.761719 122.914062 184.066406 117.222656 183.34375 C 112.15625 182.703125 106.449219 185.144531 104.25 190.945312 C 96.578125 183.644531 82.378906 189.109375 83.492188 201.109375 L 84.917969 218.859375 C 88.265625 254.167969 110.496094 264.949219 125.132812 312.734375 C 125.277344 313.199219 125.5 313.617188 125.808594 313.992188 C 126.117188 314.367188 126.488281 314.667969 126.914062 314.894531 C 127.34375 315.121094 127.800781 315.257812 128.28125 315.304688 C 128.765625 315.351562 129.238281 315.300781 129.699219 315.160156 C 130.164062 315.019531 130.582031 314.792969 130.957031 314.484375 C 131.332031 314.175781 131.628906 313.804688 131.859375 313.375 C 132.085938 312.949219 132.222656 312.492188 132.269531 312.007812 C 132.3125 311.523438 132.265625 311.050781 132.125 310.585938 C 117.199219 261.867188 95.34375 251.226562 92.199219 218.191406 L 90.773438 200.445312 C 90.351562 196.003906 94.179688 195.167969 94.953125 195.042969 C 95.726562 194.921875 99.625 194.53125 100.597656 198.882812 L 103.601562 212.296875 C 104.480469 216.210938 105.679688 220.019531 107.199219 223.730469 C 108.714844 227.4375 110.53125 230.996094 112.644531 234.402344 C 114.761719 237.804688 117.144531 241.007812 119.792969 244.015625 C 122.445312 247.019531 125.328125 249.78125 128.441406 252.300781 L 138.855469 267.683594 C 139.125 268.085938 139.464844 268.421875 139.867188 268.6875 C 140.273438 268.953125 140.714844 269.132812 141.191406 269.226562 C 141.667969 269.316406 142.140625 269.3125 142.617188 269.214844 C 143.089844 269.117188 143.53125 268.933594 143.929688 268.660156 C 144.332031 268.386719 144.664062 268.050781 144.933594 267.644531 C 145.199219 267.238281 145.378906 266.796875 145.46875 266.320312 C 145.5625 265.84375 145.558594 265.367188 145.460938 264.894531 C 145.363281 264.417969 145.175781 263.980469 144.90625 263.578125 L 131.085938 243.15625 C 129.046875 240.144531 130.335938 237.296875 132.0625 235.777344 C 133.824219 234.222656 136.714844 233.359375 139.382812 235.769531 C 165.347656 259.230469 164.605469 259.425781 164.976562 259.675781 C 183.339844 272.125 180.199219 293.3125 179.859375 311.59375 C 179.851562 312.078125 179.933594 312.546875 180.113281 313 C 180.289062 313.449219 180.546875 313.851562 180.882812 314.203125 C 181.21875 314.550781 181.609375 314.824219 182.054688 315.015625 C 182.496094 315.210938 182.960938 315.3125 183.445312 315.324219 C 183.933594 315.332031 184.398438 315.246094 184.851562 315.070312 C 185.304688 314.890625 185.703125 314.636719 186.050781 314.296875 C 186.402344 313.960938 186.671875 313.570312 186.867188 313.125 C 187.058594 312.679688 187.160156 312.214844 187.171875 311.730469 C 187.507812 293.632812 191.199219 268.808594 169.316406 253.777344 Z M 169.316406 253.777344 " fill-opacity="1" fill-rule="nonzero"/></g><path fill="#000000" d="M 208.191406 97.207031 C 207.722656 97.335938 207.296875 97.546875 206.914062 97.847656 C 206.527344 98.144531 206.21875 98.503906 205.976562 98.925781 C 205.734375 99.347656 205.585938 99.796875 205.523438 100.28125 C 205.460938 100.761719 205.496094 101.238281 205.625 101.707031 C 205.75 102.175781 205.964844 102.601562 206.261719 102.984375 C 206.558594 103.367188 206.917969 103.679688 207.339844 103.921875 C 207.761719 104.160156 208.210938 104.3125 208.691406 104.371094 C 209.175781 104.433594 209.648438 104.398438 210.117188 104.269531 C 232.160156 98.242188 249.261719 114.007812 254.765625 132.695312 C 259.042969 147.230469 256.636719 162.804688 247.988281 176.554688 C 237.625 193.027344 218.65625 206.101562 193.097656 214.402344 C 84.171875 179.015625 136.464844 72.441406 190.964844 111.613281 C 191.359375 111.894531 191.792969 112.089844 192.261719 112.199219 C 192.734375 112.308594 193.207031 112.324219 193.6875 112.246094 C 194.164062 112.164062 194.605469 111.996094 195.015625 111.742188 C 195.429688 111.488281 195.773438 111.160156 196.054688 110.769531 C 196.339844 110.375 196.535156 109.941406 196.644531 109.472656 C 196.757812 109 196.773438 108.523438 196.695312 108.046875 C 196.617188 107.566406 196.453125 107.125 196.199219 106.710938 C 195.945312 106.300781 195.621094 105.949219 195.230469 105.667969 C 131.398438 59.785156 70.40625 183.183594 191.992188 221.734375 C 192.730469 221.96875 193.464844 221.96875 194.199219 221.734375 C 304.3125 186.824219 264.917969 81.695312 208.191406 97.207031 Z M 208.191406 97.207031 " fill-opacity="1" fill-rule="nonzero"/><path fill="#000000" d="M 206.324219 133.707031 C 206.328125 132.859375 206.25 132.019531 206.09375 131.1875 C 205.9375 130.355469 205.707031 129.542969 205.402344 128.75 C 205.09375 127.960938 204.71875 127.207031 204.273438 126.484375 C 203.828125 125.765625 203.316406 125.09375 202.746094 124.46875 C 202.175781 123.839844 201.554688 123.273438 200.878906 122.761719 C 200.199219 122.253906 199.484375 121.808594 198.726562 121.433594 C 197.96875 121.058594 197.179688 120.753906 196.367188 120.523438 C 195.550781 120.292969 194.722656 120.140625 193.878906 120.0625 C 193.039062 119.988281 192.195312 119.988281 191.351562 120.070312 C 190.511719 120.148438 189.683594 120.304688 188.867188 120.539062 C 188.054688 120.773438 187.269531 121.082031 186.515625 121.460938 C 185.757812 121.839844 185.042969 122.289062 184.367188 122.800781 C 183.695312 123.3125 183.074219 123.882812 182.507812 124.511719 C 181.9375 125.140625 181.433594 125.816406 180.988281 126.539062 C 180.546875 127.261719 180.175781 128.019531 179.871094 128.808594 C 179.570312 129.601562 179.34375 130.414062 179.191406 131.246094 C 179.039062 132.082031 178.964844 132.921875 178.96875 133.769531 C 178.972656 134.617188 179.054688 135.457031 179.214844 136.289062 C 179.375 137.121094 179.609375 137.933594 179.917969 138.71875 C 180.226562 139.507812 180.609375 140.261719 181.058594 140.980469 C 181.507812 141.699219 182.019531 142.371094 182.59375 142.992188 C 183.167969 143.617188 183.792969 144.179688 184.472656 144.6875 C 185.148438 145.195312 185.867188 145.632812 186.628906 146.007812 C 187.386719 146.378906 188.175781 146.679688 188.992188 146.90625 L 188.992188 166.242188 C 188.992188 166.65625 189.0625 167.0625 189.199219 167.453125 C 189.335938 167.847656 189.535156 168.207031 189.796875 168.53125 C 190.054688 168.855469 190.359375 169.128906 190.714844 169.347656 C 191.066406 169.566406 191.445312 169.722656 191.851562 169.8125 L 207.191406 173.242188 L 211.695312 192.070312 C 211.808594 192.546875 212.011719 192.980469 212.300781 193.375 C 212.589844 193.773438 212.941406 194.097656 213.359375 194.347656 C 213.777344 194.601562 214.230469 194.765625 214.714844 194.835938 C 215.195312 194.910156 215.675781 194.886719 216.148438 194.765625 L 222.980469 193.03125 C 223.453125 192.910156 223.882812 192.707031 224.269531 192.417969 C 224.65625 192.125 224.976562 191.773438 225.222656 191.355469 C 225.472656 190.9375 225.632812 190.488281 225.699219 190.007812 C 225.769531 189.527344 225.746094 189.054688 225.628906 188.582031 C 225.507812 188.113281 225.304688 187.683594 225.011719 187.292969 C 224.722656 186.90625 224.371094 186.585938 223.953125 186.335938 C 223.539062 186.089844 223.089844 185.929688 222.609375 185.859375 C 222.128906 185.789062 221.65625 185.816406 221.183594 185.933594 L 217.941406 186.757812 L 213.769531 169.3125 C 213.609375 168.632812 213.277344 168.050781 212.78125 167.558594 C 212.28125 167.066406 211.691406 166.746094 211.011719 166.59375 L 196.304688 163.308594 L 196.304688 157.503906 L 214.425781 157.503906 C 214.910156 157.503906 215.378906 157.410156 215.824219 157.222656 C 216.273438 157.039062 216.667969 156.773438 217.011719 156.429688 C 217.355469 156.085938 217.617188 155.691406 217.804688 155.242188 C 217.988281 154.792969 218.082031 154.328125 218.082031 153.84375 C 218.082031 153.355469 217.988281 152.890625 217.804688 152.441406 C 217.617188 151.992188 217.355469 151.597656 217.011719 151.253906 C 216.667969 150.910156 216.273438 150.644531 215.824219 150.460938 C 215.378906 150.273438 214.910156 150.179688 214.425781 150.179688 L 196.304688 150.179688 L 196.304688 146.90625 C 197.019531 146.707031 197.710938 146.449219 198.386719 146.136719 C 199.058594 145.824219 199.703125 145.460938 200.316406 145.042969 C 200.933594 144.625 201.507812 144.160156 202.046875 143.648438 C 202.585938 143.136719 203.082031 142.585938 203.53125 141.996094 C 203.980469 141.402344 204.378906 140.777344 204.726562 140.121094 C 205.074219 139.464844 205.367188 138.785156 205.605469 138.078125 C 205.84375 137.375 206.023438 136.65625 206.144531 135.921875 C 206.265625 135.191406 206.324219 134.453125 206.324219 133.707031 Z M 186.28125 133.707031 C 186.28125 133.289062 186.320312 132.875 186.402344 132.464844 C 186.484375 132.054688 186.605469 131.65625 186.765625 131.265625 C 186.925781 130.878906 187.121094 130.511719 187.351562 130.164062 C 187.585938 129.816406 187.847656 129.496094 188.144531 129.199219 C 188.441406 128.902344 188.761719 128.636719 189.109375 128.40625 C 189.457031 128.171875 189.824219 127.976562 190.210938 127.816406 C 190.597656 127.65625 190.996094 127.535156 191.40625 127.453125 C 191.816406 127.371094 192.230469 127.332031 192.648438 127.332031 C 193.066406 127.332031 193.480469 127.371094 193.890625 127.453125 C 194.300781 127.535156 194.699219 127.65625 195.085938 127.816406 C 195.46875 127.976562 195.835938 128.171875 196.183594 128.40625 C 196.53125 128.636719 196.855469 128.902344 197.148438 129.199219 C 197.445312 129.496094 197.710938 129.816406 197.941406 130.164062 C 198.175781 130.511719 198.371094 130.878906 198.53125 131.269531 C 198.691406 131.65625 198.8125 132.054688 198.894531 132.464844 C 198.972656 132.875 199.015625 133.289062 199.015625 133.707031 C 199.015625 134.125 198.972656 134.542969 198.894531 134.953125 C 198.8125 135.363281 198.691406 135.761719 198.53125 136.148438 C 198.371094 136.535156 198.175781 136.902344 197.941406 137.25 C 197.710938 137.597656 197.445312 137.921875 197.148438 138.21875 C 196.855469 138.511719 196.53125 138.777344 196.183594 139.011719 C 195.835938 139.242188 195.46875 139.4375 195.085938 139.597656 C 194.699219 139.757812 194.300781 139.878906 193.890625 139.960938 C 193.480469 140.042969 193.066406 140.085938 192.648438 140.085938 C 192.230469 140.085938 191.816406 140.042969 191.40625 139.960938 C 190.996094 139.878906 190.597656 139.757812 190.210938 139.597656 C 189.824219 139.4375 189.457031 139.242188 189.113281 139.007812 C 188.765625 138.773438 188.441406 138.511719 188.148438 138.214844 C 187.851562 137.917969 187.585938 137.597656 187.355469 137.25 C 187.121094 136.902344 186.925781 136.535156 186.765625 136.148438 C 186.605469 135.761719 186.484375 135.363281 186.402344 134.953125 C 186.320312 134.539062 186.28125 134.125 186.28125 133.707031 Z M 186.28125 133.707031 " fill-opacity="1" fill-rule="nonzero"/><path fill="#000000" d="M 180.601562 157.828125 C 181.074219 157.730469 181.511719 157.546875 181.914062 157.273438 C 182.316406 157 182.648438 156.664062 182.914062 156.257812 C 183.183594 155.851562 183.363281 155.410156 183.453125 154.9375 C 183.546875 154.460938 183.542969 153.984375 183.445312 153.507812 C 183.347656 153.035156 183.164062 152.59375 182.894531 152.191406 C 182.621094 151.792969 182.285156 151.457031 181.878906 151.1875 C 181.476562 150.921875 181.035156 150.742188 180.5625 150.648438 C 180.085938 150.554688 179.609375 150.558594 179.136719 150.65625 C 178.664062 150.75 178.195312 150.863281 177.734375 150.988281 C 177.269531 151.117188 176.808594 151.253906 176.351562 151.410156 C 175.898438 151.566406 175.449219 151.734375 175.003906 151.914062 C 174.558594 152.097656 174.117188 152.292969 173.683594 152.503906 C 173.253906 152.714844 172.828125 152.9375 172.40625 153.171875 C 171.988281 153.410156 171.578125 153.65625 171.171875 153.917969 C 170.769531 154.179688 170.375 154.457031 169.988281 154.742188 C 169.601562 155.027344 169.222656 155.324219 168.855469 155.636719 C 168.484375 155.945312 168.125 156.265625 167.777344 156.597656 C 167.429688 156.929688 167.09375 157.273438 166.765625 157.625 C 166.4375 157.976562 166.121094 158.339844 165.816406 158.710938 C 165.511719 159.085938 165.21875 159.46875 164.9375 159.859375 C 164.65625 160.25 164.386719 160.648438 164.128906 161.054688 C 163.871094 161.460938 163.628906 161.875 163.398438 162.300781 C 163.167969 162.722656 162.949219 163.152344 162.746094 163.585938 C 162.539062 164.023438 162.347656 164.464844 162.171875 164.914062 C 161.996094 165.359375 161.832031 165.8125 161.683594 166.269531 C 161.535156 166.730469 161.398438 167.191406 161.277344 167.65625 C 161.160156 168.125 161.050781 168.59375 160.960938 169.066406 C 160.871094 169.539062 160.792969 170.015625 160.730469 170.492188 C 160.667969 170.96875 160.621094 171.449219 160.589844 171.929688 C 160.554688 172.410156 160.539062 172.890625 160.535156 173.371094 C 160.535156 173.855469 160.546875 174.335938 160.574219 174.816406 C 160.601562 175.296875 160.640625 175.777344 160.699219 176.253906 C 160.753906 176.734375 160.828125 177.210938 160.914062 177.683594 C 161 178.15625 161.101562 178.628906 161.214844 179.09375 C 161.332031 179.5625 161.460938 180.027344 161.605469 180.484375 C 161.75 180.945312 161.90625 181.402344 162.078125 181.851562 C 162.25 182.300781 162.4375 182.742188 162.636719 183.183594 C 162.835938 183.621094 163.050781 184.050781 163.277344 184.476562 C 163.5 184.902344 163.742188 185.320312 163.992188 185.730469 C 164.246094 186.140625 164.511719 186.542969 164.785156 186.9375 C 165.0625 187.328125 165.351562 187.714844 165.652344 188.089844 C 165.953125 188.464844 166.265625 188.832031 166.589844 189.1875 C 166.914062 189.542969 167.246094 189.890625 167.59375 190.226562 C 167.9375 190.5625 168.292969 190.886719 168.65625 191.199219 C 169.023438 191.515625 169.398438 191.816406 169.78125 192.105469 C 170.164062 192.398438 170.554688 192.675781 170.957031 192.941406 C 171.359375 193.207031 171.765625 193.460938 172.183594 193.703125 C 172.601562 193.941406 173.023438 194.171875 173.453125 194.386719 C 173.882812 194.601562 174.320312 194.800781 174.765625 194.988281 C 175.207031 195.175781 175.65625 195.347656 176.109375 195.507812 C 176.5625 195.667969 177.023438 195.8125 177.484375 195.945312 C 177.949219 196.074219 178.414062 196.191406 178.882812 196.296875 C 179.355469 196.398438 179.828125 196.484375 180.300781 196.558594 C 180.777344 196.628906 181.253906 196.6875 181.734375 196.730469 C 182.210938 196.773438 182.691406 196.804688 183.171875 196.816406 C 183.652344 196.832031 184.136719 196.828125 184.617188 196.8125 C 185.097656 196.796875 185.574219 196.765625 186.054688 196.71875 C 186.535156 196.671875 187.011719 196.613281 187.484375 196.535156 C 187.960938 196.460938 188.433594 196.371094 188.902344 196.265625 C 189.371094 196.160156 189.835938 196.042969 190.300781 195.90625 C 190.761719 195.773438 191.21875 195.625 191.671875 195.464844 C 192.125 195.300781 192.570312 195.125 193.015625 194.933594 C 193.457031 194.746094 193.890625 194.542969 194.320312 194.324219 C 194.75 194.109375 195.171875 193.878906 195.585938 193.632812 C 196.003906 193.390625 196.410156 193.136719 196.808594 192.867188 C 197.207031 192.597656 197.597656 192.316406 197.980469 192.027344 C 198.363281 191.734375 198.734375 191.429688 199.097656 191.113281 C 199.460938 190.796875 199.816406 190.46875 200.160156 190.132812 C 200.5 189.792969 200.832031 189.445312 201.15625 189.089844 C 201.476562 188.730469 201.785156 188.363281 202.085938 187.984375 C 202.382812 187.605469 202.671875 187.21875 202.945312 186.824219 C 203.21875 186.429688 203.480469 186.027344 203.730469 185.613281 C 203.984375 185.199219 204.148438 184.753906 204.222656 184.273438 C 204.296875 183.792969 204.277344 183.316406 204.160156 182.847656 C 204.046875 182.375 203.847656 181.941406 203.558594 181.550781 C 203.273438 181.160156 202.921875 180.835938 202.507812 180.585938 C 202.09375 180.332031 201.648438 180.167969 201.167969 180.09375 C 200.691406 180.019531 200.214844 180.039062 199.746094 180.15625 C 199.273438 180.269531 198.84375 180.46875 198.453125 180.757812 C 198.058594 181.042969 197.738281 181.394531 197.484375 181.808594 C 197.144531 182.375 196.765625 182.914062 196.355469 183.433594 C 195.945312 183.953125 195.507812 184.445312 195.035156 184.910156 C 194.566406 185.371094 194.066406 185.804688 193.542969 186.207031 C 193.019531 186.609375 192.46875 186.976562 191.902344 187.3125 C 191.332031 187.648438 190.742188 187.945312 190.136719 188.207031 C 189.527344 188.464844 188.90625 188.6875 188.273438 188.871094 C 187.636719 189.058594 186.996094 189.199219 186.34375 189.304688 C 185.691406 189.410156 185.035156 189.472656 184.375 189.496094 C 183.714844 189.519531 183.054688 189.5 182.398438 189.441406 C 181.738281 189.382812 181.085938 189.28125 180.441406 189.140625 C 179.796875 189 179.160156 188.820312 178.539062 188.601562 C 177.914062 188.382812 177.308594 188.125 176.714844 187.832031 C 176.125 187.539062 175.554688 187.207031 175.003906 186.84375 C 174.453125 186.476562 173.925781 186.078125 173.421875 185.648438 C 172.921875 185.21875 172.449219 184.757812 172.003906 184.269531 C 171.5625 183.777344 171.148438 183.265625 170.765625 182.722656 C 170.386719 182.183594 170.039062 181.621094 169.730469 181.039062 C 169.417969 180.453125 169.144531 179.851562 168.90625 179.234375 C 168.671875 178.617188 168.472656 177.988281 168.316406 177.347656 C 168.15625 176.703125 168.039062 176.054688 167.960938 175.398438 C 167.882812 174.742188 167.84375 174.082031 167.847656 173.417969 C 167.851562 172.757812 167.894531 172.097656 167.980469 171.441406 C 168.066406 170.789062 168.191406 170.140625 168.355469 169.5 C 168.519531 168.859375 168.722656 168.230469 168.96875 167.613281 C 169.210938 167 169.492188 166.402344 169.808594 165.820312 C 170.125 165.242188 170.476562 164.683594 170.863281 164.144531 C 171.25 163.609375 171.667969 163.097656 172.117188 162.613281 C 172.566406 162.128906 173.042969 161.671875 173.546875 161.25 C 174.054688 160.824219 174.585938 160.429688 175.140625 160.070312 C 175.695312 159.710938 176.269531 159.386719 176.863281 159.097656 C 177.457031 158.808594 178.066406 158.558594 178.691406 158.347656 C 179.316406 158.132812 179.953125 157.960938 180.601562 157.828125 Z M 180.601562 157.828125 " fill-opacity="1" fill-rule="nonzero"/></svg>