<svg xmlns="http://www.w3.org/2000/svg" xmlns:xlink="http://www.w3.org/1999/xlink" width="500" zoomAndPan="magnify" viewBox="0 0 375 374.999991" height="500" preserveAspectRatio="xMidYMid meet" version="1.0"><defs><clipPath id="5f63744713"><path d="M 181 72.800781 L 309.550781 72.800781 L 309.550781 201 L 181 201 Z M 181 72.800781 " clip-rule="nonzero"/></clipPath><clipPath id="7d56c208a3"><path d="M 65.800781 181 L 122 181 L 122 281 L 65.800781 281 Z M 65.800781 181 " clip-rule="nonzero"/></clipPath></defs><g clip-path="url(#5f63744713)"><path fill="#000000" d="M 245.386719 72.800781 C 263.089844 72.800781 279.121094 79.984375 290.730469 91.582031 C 302.339844 103.179688 309.496094 119.191406 309.496094 136.878906 C 309.496094 154.566406 302.339844 170.578125 290.730469 182.179688 C 279.121094 193.777344 263.089844 200.960938 245.386719 200.960938 C 227.644531 200.960938 211.617188 193.777344 200.007812 182.179688 C 188.394531 170.578125 181.238281 154.566406 181.238281 136.878906 C 181.238281 119.191406 188.394531 103.179688 200.007812 91.582031 C 211.617188 79.984375 227.644531 72.800781 245.386719 72.800781 Z M 283.984375 98.289062 C 274.117188 88.433594 260.453125 82.308594 245.386719 82.308594 C 230.28125 82.308594 216.617188 88.433594 206.753906 98.289062 C 196.855469 108.175781 190.757812 121.828125 190.757812 136.878906 C 190.757812 151.96875 196.855469 165.585938 206.753906 175.472656 C 216.617188 185.359375 230.28125 191.449219 245.386719 191.449219 C 260.453125 191.449219 274.117188 185.359375 283.984375 175.472656 C 293.878906 165.585938 300.011719 151.96875 300.011719 136.878906 C 300.011719 121.828125 293.878906 108.175781 283.984375 98.289062 Z M 283.984375 98.289062 " fill-opacity="1" fill-rule="nonzero"/></g><path fill="#000000" d="M 260.558594 121.382812 C 260.96875 123.980469 263.398438 125.726562 266.003906 125.316406 C 268.570312 124.90625 270.351562 122.441406 269.90625 119.875 C 269.597656 117.890625 269.117188 116.113281 268.503906 114.46875 C 267.851562 112.691406 267.03125 111.152344 266.070312 109.816406 L 262.199219 112.589844 L 266.070312 109.785156 C 265.96875 109.679688 265.898438 109.578125 265.796875 109.476562 C 264.804688 108.175781 263.570312 107.011719 262.132812 106.019531 C 260.695312 104.992188 258.980469 104.136719 257.0625 103.386719 C 255.214844 102.703125 253.226562 102.1875 251.136719 101.847656 C 249.050781 101.503906 246.890625 101.332031 244.632812 101.332031 C 243.125 101.332031 241.582031 101.433594 240.078125 101.640625 C 238.570312 101.847656 237.097656 102.152344 235.691406 102.566406 L 237.027344 107.113281 L 235.691406 102.566406 C 235.589844 102.597656 235.488281 102.632812 235.417969 102.667969 C 234.1875 103.042969 232.988281 103.488281 231.925781 103.96875 C 230.65625 104.546875 229.597656 105.164062 228.671875 105.847656 L 228.671875 105.816406 L 228.636719 105.847656 C 228.601562 105.882812 228.570312 105.917969 228.535156 105.917969 C 227.40625 106.738281 226.34375 107.695312 225.417969 108.792969 C 224.460938 109.886719 223.636719 111.050781 222.953125 112.347656 L 222.917969 112.347656 L 222.917969 112.382812 L 222.882812 112.417969 C 222.199219 113.71875 221.683594 115.085938 221.308594 116.558594 L 221.273438 116.558594 C 221.273438 116.625 221.238281 116.730469 221.238281 116.832031 C 220.898438 118.199219 220.761719 119.601562 220.761719 121.039062 C 220.761719 122.679688 220.964844 124.324219 221.410156 125.933594 C 221.855469 127.539062 222.507812 129.046875 223.398438 130.449219 C 224.289062 131.953125 225.417969 133.253906 226.71875 134.382812 C 227.988281 135.476562 229.425781 136.433594 231.070312 137.222656 C 231.171875 137.257812 231.273438 137.324219 231.378906 137.359375 C 232.816406 138.007812 234.664062 138.691406 236.925781 139.410156 C 239.253906 140.164062 242.097656 140.953125 245.386719 141.773438 C 248.5 142.558594 250.523438 143.140625 252.0625 143.652344 C 253.535156 144.167969 254.527344 144.613281 255.589844 145.089844 C 256.414062 145.5 257.132812 145.980469 257.816406 146.5625 C 258.398438 147.074219 258.878906 147.621094 259.253906 148.238281 C 259.667969 148.921875 259.972656 149.640625 260.179688 150.359375 C 260.386719 151.078125 260.488281 151.863281 260.488281 152.71875 C 260.488281 153.542969 260.386719 154.261719 260.25 154.945312 L 260.214844 154.910156 L 260.214844 154.945312 L 260.214844 154.910156 C 260.214844 154.980469 260.179688 155.046875 260.179688 155.117188 C 260.007812 155.730469 259.769531 156.3125 259.460938 156.894531 C 259.390625 156.996094 259.359375 157.066406 259.324219 157.167969 C 258.980469 157.75 258.605469 158.261719 258.195312 158.742188 C 257.75 159.253906 257.199219 159.769531 256.550781 160.214844 C 256.445312 160.28125 256.378906 160.351562 256.308594 160.382812 C 255.898438 160.65625 255.417969 160.929688 254.90625 161.171875 C 254.222656 161.480469 253.363281 161.785156 252.371094 162.09375 C 252.269531 162.128906 252.164062 162.164062 252.097656 162.199219 C 251.207031 162.4375 250.316406 162.609375 249.390625 162.746094 C 248.363281 162.882812 247.300781 162.949219 246.105469 162.949219 C 244.289062 162.949219 242.644531 162.8125 241.136719 162.574219 C 239.664062 162.335938 238.296875 161.957031 237.027344 161.480469 C 235.863281 161.070312 234.90625 160.554688 234.046875 159.972656 C 233.945312 159.90625 233.878906 159.835938 233.773438 159.769531 C 233.191406 159.359375 232.746094 158.878906 232.371094 158.398438 L 232.371094 158.367188 C 232.335938 158.332031 232.300781 158.261719 232.269531 158.230469 C 231.824219 157.578125 231.410156 156.824219 231.101562 156.003906 C 230.726562 154.980469 230.417969 153.746094 230.179688 152.378906 C 229.769531 149.777344 227.335938 148.035156 224.734375 148.445312 C 222.164062 148.890625 220.417969 151.316406 220.828125 153.882812 C 221.136719 155.867188 221.617188 157.679688 222.234375 159.324219 C 222.847656 160.964844 223.636719 162.4375 224.527344 163.738281 C 224.5625 163.804688 224.628906 163.90625 224.699219 163.976562 C 225.65625 165.277344 226.824219 166.441406 228.226562 167.464844 C 228.328125 167.570312 228.464844 167.671875 228.601562 167.773438 L 231.34375 163.875 L 228.636719 167.773438 C 230.074219 168.765625 231.753906 169.621094 233.671875 170.375 C 235.519531 171.058594 237.507812 171.570312 239.632812 171.949219 C 241.71875 172.289062 243.878906 172.460938 246.105469 172.460938 C 247.609375 172.460938 249.152344 172.359375 250.691406 172.121094 C 252.0625 171.949219 253.398438 171.675781 254.699219 171.296875 C 254.835938 171.265625 254.941406 171.230469 255.078125 171.195312 L 253.707031 166.644531 L 255.078125 171.195312 C 256.414062 170.785156 257.679688 170.339844 258.84375 169.792969 C 259.941406 169.28125 260.933594 168.730469 261.789062 168.117188 C 261.890625 168.082031 261.996094 168.015625 262.0625 167.945312 C 263.261719 167.089844 264.359375 166.097656 265.351562 164.96875 C 266.242188 163.976562 266.996094 162.882812 267.644531 161.71875 C 267.714844 161.617188 267.78125 161.511719 267.816406 161.410156 C 268.503906 160.179688 269.015625 158.878906 269.359375 157.511719 C 269.394531 157.40625 269.425781 157.339844 269.460938 157.238281 L 264.835938 156.074219 L 269.460938 157.203125 C 269.804688 155.730469 270.007812 154.261719 270.007812 152.71875 C 270.007812 151.078125 269.769531 149.4375 269.324219 147.828125 C 268.878906 146.253906 268.226562 144.714844 267.339844 143.3125 C 266.449219 141.804688 265.351562 140.507812 264.050781 139.378906 C 262.816406 138.316406 261.34375 137.359375 259.667969 136.570312 C 258.226562 135.886719 256.890625 135.304688 255.078125 134.691406 C 253.296875 134.074219 251.035156 133.425781 247.714844 132.570312 C 244.5625 131.78125 241.925781 131.03125 239.769531 130.34375 C 237.882812 129.765625 236.445312 129.25 235.453125 128.773438 C 235.351562 128.738281 235.246094 128.667969 235.179688 128.632812 L 233.125 132.945312 L 235.179688 128.632812 C 234.324219 128.222656 233.570312 127.78125 232.953125 127.230469 C 232.371094 126.71875 231.855469 126.136719 231.480469 125.519531 C 231.070312 124.835938 230.761719 124.117188 230.554688 123.398438 C 230.351562 122.679688 230.246094 121.894531 230.246094 121.039062 C 230.246094 120.320312 230.316406 119.636719 230.453125 119.019531 C 230.488281 118.988281 230.519531 118.917969 230.519531 118.851562 L 229.664062 118.609375 L 230.519531 118.816406 C 230.65625 118.199219 230.933594 117.582031 231.242188 116.933594 C 231.273438 116.898438 231.308594 116.867188 231.308594 116.832031 L 227.097656 114.605469 L 231.308594 116.832031 C 231.652344 116.148438 232.0625 115.566406 232.542969 115.019531 C 232.953125 114.539062 233.5 114.058594 234.117188 113.613281 C 234.152344 113.582031 234.1875 113.546875 234.253906 113.511719 L 231.445312 109.679688 L 234.253906 113.511719 C 234.699219 113.171875 235.214844 112.863281 235.863281 112.589844 C 236.480469 112.28125 237.269531 112.007812 238.160156 111.734375 C 238.226562 111.699219 238.296875 111.699219 238.363281 111.664062 L 238.398438 111.664062 C 239.324219 111.390625 240.316406 111.1875 241.378906 111.015625 C 242.371094 110.878906 243.46875 110.808594 244.632812 110.808594 C 246.480469 110.808594 248.125 110.945312 249.597656 111.1875 C 251.070312 111.425781 252.441406 111.800781 253.707031 112.28125 C 254.871094 112.726562 255.863281 113.203125 256.6875 113.785156 C 257.335938 114.230469 257.851562 114.710938 258.261719 115.222656 C 258.296875 115.257812 258.332031 115.324219 258.363281 115.394531 C 258.878906 116.078125 259.289062 116.867188 259.632812 117.753906 C 260.007812 118.816406 260.316406 120.011719 260.558594 121.382812 Z M 260.558594 121.382812 " fill-opacity="1" fill-rule="nonzero"/><path fill="#000000" d="M 250.144531 96.851562 C 250.144531 94.214844 247.988281 92.09375 245.386719 92.09375 C 242.746094 92.09375 240.625 94.214844 240.625 96.851562 L 240.625 176.941406 C 240.625 179.542969 242.746094 181.664062 245.386719 181.664062 C 247.988281 181.664062 250.144531 179.542969 250.144531 176.941406 Z M 250.144531 96.851562 " fill-opacity="1" fill-rule="nonzero"/><path fill="#000000" d="M 118.289062 204.691406 C 119.316406 204.722656 120.277344 204.417969 121.0625 203.867188 L 119.28125 258.679688 C 131.679688 262.542969 173.839844 275.988281 187.949219 283.757812 C 201.785156 291.386719 213.363281 284.816406 213.464844 284.746094 C 213.601562 284.679688 213.773438 284.609375 213.910156 284.542969 L 293.195312 242.1875 C 293.230469 242.152344 293.265625 242.117188 293.296875 242.117188 L 293.332031 242.085938 L 293.402344 242.050781 C 293.433594 242.050781 293.46875 242.015625 293.503906 242.015625 L 293.539062 241.980469 L 293.640625 241.949219 L 293.675781 241.949219 C 294.976562 241.367188 295.933594 240.339844 296.449219 239.109375 L 300.832031 240.886719 L 296.449219 239.109375 L 296.449219 239.074219 C 296.484375 238.972656 296.515625 238.867188 296.585938 238.800781 C 296.960938 237.636719 296.960938 236.335938 296.449219 235.105469 L 296.414062 235.035156 L 296.414062 235.003906 C 296.414062 234.96875 296.378906 234.933594 296.378906 234.898438 C 296.378906 234.867188 296.347656 234.832031 296.347656 234.796875 C 295.765625 233.566406 294.738281 232.675781 293.539062 232.195312 C 292.304688 231.683594 290.796875 231.648438 289.429688 232.230469 L 289.429688 232.265625 L 289.359375 232.265625 C 289.222656 232.332031 289.085938 232.367188 288.984375 232.402344 L 235.246094 255.667969 L 235.246094 255.703125 C 234.460938 256.042969 233.601562 256.144531 232.816406 256.042969 L 228.84375 255.90625 L 228.808594 255.90625 L 228.808594 255.941406 C 228.707031 255.941406 228.601562 255.941406 228.464844 255.90625 L 172.8125 254.8125 C 170.210938 254.742188 168.121094 252.589844 168.15625 249.988281 C 168.222656 247.351562 170.382812 245.265625 173.019531 245.335938 L 228.671875 246.464844 C 228.808594 246.429688 228.980469 246.429688 229.117188 246.429688 L 229.117188 246.464844 L 232.472656 246.566406 L 285.214844 223.746094 C 285.351562 223.679688 285.488281 223.574219 285.625 223.542969 C 285.660156 223.507812 285.695312 223.507812 285.730469 223.472656 L 287.578125 227.851562 L 285.730469 223.472656 C 289.53125 221.898438 293.570312 221.96875 297.066406 223.40625 C 300.488281 224.773438 303.402344 227.40625 305.011719 230.964844 L 305.046875 231.035156 L 305.078125 231.066406 C 305.113281 231.136719 305.148438 231.238281 305.183594 231.339844 L 300.796875 233.1875 L 305.183594 231.339844 C 306.6875 234.898438 306.65625 238.765625 305.421875 242.152344 C 305.386719 242.324219 305.320312 242.496094 305.25 242.667969 C 303.8125 246.191406 301.039062 249.132812 297.304688 250.742188 L 218.398438 292.890625 C 218.292969 292.925781 218.191406 292.992188 218.089844 293.0625 L 218.089844 293.027344 C 218.054688 293.0625 201.890625 302.300781 183.359375 292.070312 C 168.292969 283.757812 118.050781 268.1875 113.390625 266.753906 C 111.199219 266.273438 109.589844 264.289062 109.695312 261.960938 L 111.714844 200.140625 C 111.714844 200.003906 111.714844 199.867188 111.714844 199.730469 C 111.78125 197.09375 114.007812 195.042969 116.613281 195.144531 L 118.597656 195.214844 C 121.199219 195.316406 123.253906 197.472656 123.1875 200.105469 C 123.117188 201.679688 122.296875 203.046875 121.0625 203.867188 L 121.199219 200.035156 L 118.425781 199.933594 Z M 118.289062 204.691406 " fill-opacity="1" fill-rule="nonzero"/><path fill="#000000" d="M 247.300781 238.699219 C 247.300781 238.5625 247.300781 238.699219 247.300781 238.765625 C 246.960938 243.554688 245.179688 247.765625 241.617188 251.082031 C 238.296875 254.230469 233.742188 256.078125 228.84375 255.90625 C 226.207031 255.839844 224.152344 253.648438 224.253906 251.046875 C 224.320312 248.414062 226.515625 246.359375 229.117188 246.464844 C 231.445312 246.53125 233.570312 245.644531 235.144531 244.171875 C 236.652344 242.769531 237.644531 240.820312 237.78125 238.664062 L 237.78125 238.492188 C 237.78125 238.457031 237.78125 238.390625 237.78125 238.355469 L 237.816406 238.355469 C 237.882812 236.027344 236.992188 233.90625 235.519531 232.332031 C 234.082031 230.828125 232.128906 229.835938 229.90625 229.699219 L 229.734375 229.699219 C 229.699219 229.699219 229.628906 229.699219 229.597656 229.699219 L 229.597656 229.664062 L 189.972656 228.398438 C 187.917969 228.503906 185.964844 227.269531 185.246094 225.25 C 176.03125 199.488281 138.703125 205.339844 118.289062 204.691406 C 115.6875 204.585938 113.632812 202.433594 113.699219 199.796875 C 113.769531 197.199219 115.960938 195.144531 118.597656 195.214844 C 143.734375 196.035156 180.003906 190.492188 192.984375 218.992188 L 229.734375 220.1875 C 229.800781 220.1875 229.835938 220.1875 229.90625 220.1875 L 230.042969 220.1875 L 230.144531 220.222656 C 230.179688 220.222656 230.210938 220.222656 230.246094 220.222656 L 230.351562 220.222656 C 235.144531 220.496094 239.390625 222.617188 242.441406 225.867188 C 245.589844 229.21875 247.507812 234.042969 247.300781 238.699219 Z M 247.300781 238.699219 " fill-opacity="1" fill-rule="nonzero"/><g clip-path="url(#7d56c208a3)"><path fill="#000000" d="M 84.351562 181.835938 L 106.269531 182.554688 C 110.582031 182.691406 114.453125 184.574219 117.195312 187.515625 C 119.933594 190.421875 121.542969 194.390625 121.40625 198.703125 L 119.25 265.042969 C 119.113281 269.386719 117.226562 273.21875 114.316406 275.957031 C 111.371094 278.726562 107.398438 280.335938 103.082031 280.199219 L 81.164062 279.480469 C 76.847656 279.34375 72.980469 277.460938 70.238281 274.550781 C 67.5 271.609375 65.855469 267.640625 65.992188 263.332031 L 68.148438 196.992188 C 68.289062 192.679688 70.171875 188.816406 73.117188 186.078125 C 76.027344 183.339844 80.035156 181.699219 84.351562 181.835938 Z M 105.960938 192.03125 L 84.042969 191.3125 C 82.328125 191.246094 80.753906 191.894531 79.625 192.988281 C 78.425781 194.082031 77.707031 195.589844 77.636719 197.300781 L 75.480469 263.640625 C 75.410156 265.316406 76.0625 266.890625 77.15625 268.050781 C 78.253906 269.214844 79.761719 269.96875 81.472656 270.035156 L 103.390625 270.722656 C 105.070312 270.789062 106.644531 270.140625 107.808594 269.042969 C 108.972656 267.949219 109.726562 266.445312 109.796875 264.769531 L 111.953125 198.429688 C 111.988281 196.71875 111.335938 195.144531 110.277344 193.980469 C 109.179688 192.816406 107.636719 192.066406 105.960938 192.03125 Z M 105.960938 192.03125 " fill-opacity="1" fill-rule="nonzero"/></g><path fill="#000000" d="M 99.644531 207.507812 C 99.3125 207.597656 98.972656 207.65625 98.628906 207.675781 C 98.285156 207.699219 97.941406 207.6875 97.601562 207.644531 C 97.257812 207.597656 96.925781 207.519531 96.597656 207.410156 C 96.269531 207.296875 95.957031 207.15625 95.660156 206.984375 C 95.359375 206.8125 95.082031 206.613281 94.824219 206.386719 C 94.5625 206.160156 94.328125 205.90625 94.117188 205.632812 C 93.910156 205.359375 93.726562 205.070312 93.574219 204.761719 C 93.421875 204.453125 93.300781 204.128906 93.210938 203.796875 C 93.121094 203.464844 93.066406 203.125 93.042969 202.78125 C 93.019531 202.4375 93.03125 202.097656 93.078125 201.753906 C 93.121094 201.414062 93.199219 201.078125 93.3125 200.753906 C 93.421875 200.425781 93.5625 200.113281 93.738281 199.816406 C 93.910156 199.515625 94.109375 199.238281 94.335938 198.980469 C 94.5625 198.71875 94.8125 198.484375 95.089844 198.277344 C 95.363281 198.066406 95.652344 197.882812 95.960938 197.730469 C 96.273438 197.578125 96.59375 197.460938 96.925781 197.371094 C 97.261719 197.28125 97.597656 197.226562 97.941406 197.203125 C 98.285156 197.179688 98.628906 197.191406 98.972656 197.234375 C 99.3125 197.28125 99.648438 197.359375 99.976562 197.46875 C 100.300781 197.582031 100.613281 197.722656 100.914062 197.894531 C 101.210938 198.066406 101.492188 198.265625 101.75 198.492188 C 102.011719 198.71875 102.246094 198.972656 102.453125 199.246094 C 102.664062 199.519531 102.847656 199.808594 103 200.117188 C 103.152344 200.425781 103.273438 200.75 103.363281 201.082031 C 103.449219 201.414062 103.507812 201.753906 103.527344 202.097656 C 103.550781 202.441406 103.539062 202.78125 103.496094 203.125 C 103.449219 203.464844 103.371094 203.800781 103.261719 204.125 C 103.152344 204.453125 103.007812 204.765625 102.835938 205.0625 C 102.664062 205.363281 102.464844 205.640625 102.238281 205.898438 C 102.007812 206.160156 101.757812 206.394531 101.484375 206.601562 C 101.210938 206.8125 100.917969 206.996094 100.609375 207.148438 C 100.300781 207.300781 99.980469 207.421875 99.644531 207.507812 Z M 99.644531 207.507812 " fill-opacity="1" fill-rule="nonzero"/></svg>