<svg xmlns="http://www.w3.org/2000/svg" xmlns:xlink="http://www.w3.org/1999/xlink" width="500" zoomAndPan="magnify" viewBox="0 0 375 374.999991" height="500" preserveAspectRatio="xMidYMid meet" version="1.0"><defs><clipPath id="faf6315019"><path d="M 71 73.171875 L 304 73.171875 L 304 301.921875 L 71 301.921875 Z M 71 73.171875 " clip-rule="nonzero"/></clipPath></defs><g clip-path="url(#faf6315019)"><path fill="#000000" d="M 266.5 84.207031 L 282.75 156.386719 L 296.273438 153.335938 L 280.023438 81.15625 Z M 95.050781 229.316406 L 95.402344 230.628906 L 107.472656 221.375 C 113.269531 216.929688 119.863281 215.179688 127.101562 216.128906 C 127.265625 216.152344 127.425781 216.183594 127.582031 216.226562 L 127.585938 216.214844 L 174.738281 229.066406 C 181.535156 230.917969 186.441406 236.625 187.527344 243.367188 L 228.527344 219.824219 C 236.269531 215.378906 246.480469 217.976562 250.984375 225.789062 C 255.5625 233.730469 252.582031 243.992188 244.824219 248.167969 L 177.480469 287.101562 L 177.484375 287.105469 C 171.167969 290.761719 164.492188 291.417969 157.453125 289.800781 L 130.445312 283.601562 C 123.027344 281.898438 117.207031 283.410156 111.171875 287.761719 C 111.046875 287.847656 110.910156 287.933594 110.757812 288.019531 C 111.425781 290.507812 112.144531 292.425781 110.664062 294.988281 C 109.84375 296.410156 108.445312 297.539062 106.769531 297.988281 L 95.542969 301 C 92.136719 301.914062 88.585938 299.859375 87.679688 296.441406 C 82.359375 276.207031 76.472656 255.917969 71.410156 235.648438 C 70.515625 232.183594 72.566406 228.683594 75.960938 227.773438 L 87.179688 224.761719 C 90.589844 223.847656 94.132812 225.890625 95.050781 229.316406 Z M 97.4375 238.242188 L 108.773438 280.597656 C 115.984375 275.953125 123.402344 274.507812 132.070312 276.496094 L 159.078125 282.699219 C 164.285156 283.894531 169.1875 283.492188 173.839844 280.804688 L 173.84375 280.808594 L 241.382812 241.753906 C 248.121094 237.855469 247.199219 227.378906 239.148438 225.261719 C 236.847656 224.65625 234.316406 224.90625 232.144531 226.15625 L 186.644531 252.28125 L 186.121094 253.730469 L 186.042969 253.703125 C 182.417969 261.320312 173.753906 265.417969 165.480469 263.164062 L 140.292969 256.296875 C 138.347656 255.769531 137.203125 253.765625 137.730469 251.820312 C 138.253906 249.875 140.257812 248.726562 142.199219 249.253906 L 167.386719 256.117188 C 170.136719 256.867188 172.941406 256.421875 175.246094 255.101562 C 180.210938 252.257812 181.921875 245.949219 179.078125 240.976562 C 177.761719 238.667969 175.570312 236.859375 172.832031 236.113281 L 125.847656 223.308594 C 123.320312 223.007812 120.910156 223.164062 118.628906 223.773438 C 116.257812 224.410156 114.007812 225.539062 111.886719 227.164062 L 97.441406 238.246094 Z M 104.0625 291.164062 L 88.238281 232.027344 L 78.667969 234.59375 L 94.492188 293.730469 Z M 141.761719 166.613281 C 134.21875 159.058594 121.128906 164.332031 121.128906 175.179688 L 121.113281 175.179688 C 121.113281 178.277344 122.292969 181.382812 124.652344 183.746094 L 147.140625 206.265625 L 169.628906 183.746094 C 177.152344 176.210938 171.898438 163.070312 161.074219 163.070312 L 161.074219 163.082031 C 157.972656 163.082031 154.871094 164.257812 152.519531 166.613281 L 149.71875 169.417969 C 148.296875 170.84375 145.988281 170.84375 144.5625 169.417969 Z M 146.917969 161.449219 L 147.140625 161.675781 C 150.039062 158.769531 153.277344 156.992188 157.0625 156.199219 C 157.96875 153.414062 159.152344 150.625 160.527344 148.035156 C 150.417969 141.527344 149.203125 127.105469 157.957031 118.949219 C 170.539062 107.230469 181.90625 96.207031 195.148438 84.765625 C 206.042969 75.355469 222.171875 80.46875 233.835938 84.300781 C 241.492188 86.8125 249.101562 89.3125 260.113281 88.9375 C 259.425781 85.871094 258.402344 83.261719 260.285156 80.28125 C 261.3125 78.652344 263 77.453125 264.980469 77.089844 L 278.628906 74.007812 C 282.425781 73.152344 286.210938 75.554688 287.066406 79.355469 L 303.410156 151.941406 C 304.265625 155.746094 301.867188 159.535156 298.074219 160.390625 L 284.144531 163.535156 C 280.347656 164.394531 276.5625 161.992188 275.707031 158.191406 L 275.542969 157.46875 C 271.355469 159.109375 267.085938 161.121094 263.40625 163.761719 C 259.15625 166.8125 255.664062 170.75 254.039062 176.023438 C 252.960938 187.984375 247.667969 198.726562 239.65625 206.746094 C 217.699219 228.738281 181.375 225.394531 163.652344 200.054688 L 149.71875 214.007812 C 148.296875 215.433594 145.988281 215.433594 144.5625 214.007812 L 119.496094 188.90625 C 115.734375 185.136719 113.851562 180.160156 113.851562 175.179688 L 113.835938 175.179688 C 113.835938 164.4375 122.457031 155.789062 133.214844 155.796875 C 138.191406 155.800781 143.160156 157.6875 146.917969 161.449219 Z M 164.789062 156.148438 C 166.964844 156.570312 169.078125 157.359375 171.027344 158.519531 C 172.171875 155.566406 173.699219 152.796875 175.542969 150.28125 C 172.875 151.027344 170.078125 151.160156 167.359375 150.691406 C 166.359375 152.464844 165.511719 154.261719 164.789062 156.148438 Z M 176.890625 163.945312 C 178.484375 158.085938 181.898438 152.972656 186.484375 149.25 C 197.816406 140.054688 214.316406 140.925781 224.648438 151.273438 C 235.800781 162.441406 235.800781 180.550781 224.648438 191.71875 C 210.597656 205.789062 186.902344 201.507812 178.546875 183.589844 C 181.5625 177.28125 180.972656 169.710938 176.890625 163.945312 Z M 173.726562 189.96875 L 168.886719 194.8125 C 183.652344 217.347656 215.40625 220.707031 234.503906 201.585938 C 241.347656 194.730469 245.871094 185.546875 246.78125 175.320312 L 246.683594 175.296875 C 246.992188 174.070312 246.949219 172.773438 246.949219 171.496094 C 246.949219 147.164062 226.605469 127.800781 202.34375 128.984375 C 202.140625 128.992188 201.9375 129.003906 201.738281 129.015625 L 192.097656 137.792969 C 215.355469 129.222656 240.304688 146.484375 240.304688 171.496094 C 240.304688 191.320312 224.253906 207.394531 204.453125 207.394531 C 191.726562 207.394531 180.144531 200.65625 173.726562 189.96875 Z M 261.738281 96.152344 L 273.925781 150.28125 C 266.585938 153.070312 258.992188 156.820312 253.484375 162.808594 C 251.292969 150.316406 244.4375 139.339844 234.640625 131.847656 C 240.242188 131.148438 245.601562 129.46875 250.117188 126.875 C 251.863281 125.875 252.46875 123.644531 251.46875 121.898438 C 250.472656 120.148438 248.246094 119.542969 246.5 120.542969 C 240.816406 123.804688 233.421875 125.3125 226.105469 124.851562 C 219.253906 124.417969 212.542969 122.265625 207.46875 118.214844 C 206.089844 117.035156 204.011719 117.042969 202.644531 118.308594 C 201.378906 119.476562 199.941406 120.792969 198.40625 122.195312 C 197.699219 122.515625 197.117188 123.054688 196.742188 123.71875 C 194.960938 125.339844 193.089844 127.042969 191.214844 128.75 C 186.4375 133.09375 181.65625 137.441406 178.160156 140.699219 C 175.15625 143.5 170.605469 144.429688 166.964844 143.109375 C 158.40625 140 157.089844 129.707031 162.910156 124.285156 C 175.21875 112.820312 187 101.421875 199.90625 90.269531 C 201.910156 88.539062 204.210938 87.542969 206.691406 87.066406 C 214.355469 85.585938 224.785156 88.996094 231.585938 91.230469 C 240.183594 94.050781 248.726562 96.855469 261.738281 96.152344 Z M 200.808594 152.328125 L 200.808594 154.828125 C 199.117188 155.324219 197.605469 156.242188 196.390625 157.457031 C 189.847656 164.007812 194.574219 175.148438 203.703125 175.148438 C 205.144531 175.148438 206.285156 174.96875 207.363281 176.050781 C 209.320312 178.007812 207.867188 181.277344 205.203125 181.277344 C 203.273438 181.277344 201.753906 181.585938 200.601562 179.992188 C 199.421875 178.363281 197.148438 177.996094 195.519531 179.179688 C 193.890625 180.359375 193.527344 182.640625 194.707031 184.269531 C 196.164062 186.289062 198.359375 187.746094 200.808594 188.316406 L 200.808594 190.664062 C 200.808594 192.679688 202.441406 194.316406 204.453125 194.316406 C 206.46875 194.316406 208.097656 192.679688 208.097656 190.664062 L 208.097656 188.164062 C 209.789062 187.667969 211.304688 186.75 212.515625 185.535156 C 219.058594 178.984375 214.335938 167.847656 205.203125 167.847656 C 203.761719 167.847656 202.625 168.023438 201.546875 166.941406 C 199.589844 164.984375 201.042969 161.714844 203.703125 161.714844 C 205.636719 161.714844 207.152344 161.40625 208.304688 163 C 209.484375 164.632812 211.761719 164.996094 213.386719 163.8125 C 215.015625 162.632812 215.378906 160.351562 214.199219 158.722656 C 212.742188 156.707031 210.546875 155.246094 208.097656 154.679688 L 208.097656 152.328125 C 208.097656 150.3125 206.46875 148.679688 204.453125 148.679688 C 202.441406 148.679688 200.808594 150.3125 200.808594 152.328125 Z M 200.808594 152.328125 " fill-opacity="1" fill-rule="evenodd"/></g></svg>