<svg xmlns="http://www.w3.org/2000/svg" xmlns:xlink="http://www.w3.org/1999/xlink" width="500" zoomAndPan="magnify" viewBox="0 0 375 374.999991" height="500" preserveAspectRatio="xMidYMid meet" version="1.0"><defs><clipPath id="8f556ae903"><path d="M 46.445312 78 L 322 78 L 322 303.808594 L 46.445312 303.808594 Z M 46.445312 78 " clip-rule="nonzero"/></clipPath></defs><g clip-path="url(#8f556ae903)"><path fill="#0c1628" d="M 300.960938 98.855469 C 273.382812 71.28125 228.515625 71.28125 200.933594 98.855469 L 184.015625 115.773438 L 167.082031 98.851562 C 153.773438 85.542969 136.011719 78.210938 117.070312 78.210938 C 98.125 78.210938 80.367188 85.542969 67.074219 98.851562 C 53.765625 112.15625 46.433594 129.917969 46.433594 148.851562 C 46.433594 167.785156 53.765625 185.546875 67.074219 198.855469 L 84.09375 215.875 C 84.195312 215.988281 84.300781 216.101562 84.414062 216.203125 C 84.425781 216.210938 84.4375 216.21875 84.449219 216.230469 L 154.125 285.917969 C 154.128906 285.921875 154.140625 285.933594 154.144531 285.9375 L 163.351562 295.144531 C 169.050781 300.839844 176.53125 303.683594 184.011719 303.683594 C 191.492188 303.683594 198.972656 300.835938 204.667969 295.144531 L 213.886719 285.925781 L 234.449219 265.367188 L 234.453125 265.359375 L 300.964844 198.847656 C 328.515625 171.292969 328.515625 126.429688 300.960938 98.855469 Z M 146.890625 170.402344 C 139.535156 170.402344 133.546875 164.414062 133.546875 157.058594 C 133.546875 149.699219 139.535156 143.714844 146.890625 143.714844 C 154.25 143.714844 160.234375 149.699219 160.234375 157.058594 C 160.234375 164.414062 154.25 170.402344 146.890625 170.402344 Z M 140.507812 178.996094 L 153.269531 178.996094 C 162.175781 178.996094 169.417969 185.019531 169.417969 192.433594 L 169.417969 203.78125 C 164.917969 207.800781 162.078125 213.644531 162.078125 220.140625 C 162.078125 225.960938 164.363281 231.261719 168.078125 235.1875 C 159.15625 238.519531 152.878906 246.375 152.878906 255.515625 L 152.878906 272.53125 L 140.902344 260.554688 L 140.902344 223.980469 C 140.902344 214.84375 134.625 206.996094 125.714844 203.660156 C 129.433594 199.722656 131.71875 194.429688 131.71875 188.605469 C 131.71875 186.246094 131.34375 183.972656 130.648438 181.84375 C 133.464844 180.011719 136.925781 178.996094 140.507812 178.996094 Z M 221.125 170.402344 C 213.769531 170.402344 207.78125 164.414062 207.78125 157.058594 C 207.78125 149.699219 213.769531 143.714844 221.125 143.714844 C 228.484375 143.714844 234.46875 149.699219 234.46875 157.058594 C 234.46875 164.414062 228.484375 170.402344 221.125 170.402344 Z M 214.746094 178.996094 L 227.527344 178.996094 C 231.109375 178.996094 234.578125 180.015625 237.386719 181.851562 C 236.695312 183.976562 236.320312 186.25 236.320312 188.609375 C 236.320312 194.429688 238.601562 199.730469 242.316406 203.660156 C 233.394531 206.992188 227.117188 214.84375 227.117188 223.984375 L 227.117188 260.566406 L 215.144531 272.539062 L 215.144531 255.519531 C 215.144531 246.382812 208.867188 238.539062 199.957031 235.199219 C 203.675781 231.265625 205.960938 225.972656 205.960938 220.148438 C 205.960938 213.644531 203.109375 207.796875 198.601562 203.769531 L 198.601562 192.433594 C 198.597656 185.019531 205.839844 178.996094 214.746094 178.996094 Z M 251.855469 210.542969 L 264.636719 210.542969 C 268.214844 210.542969 271.605469 211.519531 274.378906 213.289062 L 235.707031 251.960938 L 235.707031 223.972656 C 235.707031 216.574219 242.949219 210.542969 251.855469 210.542969 Z M 258.25 201.949219 C 250.894531 201.949219 244.90625 195.960938 244.90625 188.605469 C 244.90625 181.246094 250.894531 175.261719 258.25 175.261719 C 265.609375 175.261719 271.59375 181.246094 271.59375 188.605469 C 271.59375 195.960938 265.613281 201.949219 258.25 201.949219 Z M 197.359375 220.140625 C 197.359375 227.5 191.375 233.484375 184.015625 233.484375 C 176.660156 233.484375 170.671875 227.5 170.671875 220.140625 C 170.671875 212.785156 176.660156 206.796875 184.015625 206.796875 C 191.375 206.796875 197.359375 212.785156 197.359375 220.140625 Z M 123.125 188.605469 C 123.125 195.960938 117.140625 201.949219 109.78125 201.949219 C 102.414062 201.949219 96.421875 195.960938 96.421875 188.605469 C 96.421875 181.246094 102.414062 175.261719 109.78125 175.261719 C 117.140625 175.261719 123.125 181.246094 123.125 188.605469 Z M 103.382812 210.542969 L 116.160156 210.542969 C 125.066406 210.542969 132.308594 216.566406 132.308594 223.980469 L 132.308594 251.960938 L 93.648438 213.292969 C 96.425781 211.519531 99.8125 210.542969 103.382812 210.542969 Z M 198.589844 289.082031 C 190.550781 297.121094 177.46875 297.121094 169.429688 289.082031 L 161.472656 281.121094 L 161.472656 255.515625 C 161.472656 248.105469 168.714844 242.078125 177.621094 242.078125 L 190.402344 242.078125 C 199.304688 242.078125 206.550781 248.105469 206.550781 255.515625 L 206.550781 281.128906 Z M 280.546875 207.125 C 278.625 205.679688 276.484375 204.511719 274.191406 203.660156 C 277.90625 199.722656 280.1875 194.429688 280.1875 188.605469 C 280.1875 176.507812 270.347656 166.667969 258.25 166.667969 C 251.59375 166.667969 245.625 169.648438 241.601562 174.347656 C 240.171875 173.464844 238.644531 172.71875 237.050781 172.121094 C 240.773438 168.1875 243.0625 162.882812 243.0625 157.054688 C 243.0625 144.957031 233.222656 135.113281 221.125 135.113281 C 209.027344 135.113281 199.1875 144.957031 199.1875 157.054688 C 199.1875 162.878906 201.472656 168.175781 205.191406 172.105469 C 196.28125 175.4375 190.003906 183.289062 190.003906 192.425781 L 190.003906 199.035156 C 188.101562 198.492188 186.089844 198.199219 184.015625 198.199219 C 181.9375 198.199219 179.921875 198.492188 178.011719 199.042969 L 178.011719 192.425781 C 178.011719 183.296875 171.734375 175.445312 162.824219 172.105469 C 166.542969 168.171875 168.828125 162.878906 168.828125 157.054688 C 168.828125 144.957031 158.988281 135.117188 146.890625 135.117188 C 134.792969 135.117188 124.953125 144.957031 124.953125 157.054688 C 124.953125 162.882812 127.246094 168.195312 130.972656 172.128906 C 129.382812 172.722656 127.855469 173.464844 126.429688 174.347656 C 122.40625 169.648438 116.433594 166.667969 109.78125 166.667969 C 97.679688 166.667969 87.828125 176.507812 87.828125 188.605469 C 87.828125 194.429688 90.117188 199.722656 93.835938 203.660156 C 91.546875 204.511719 89.40625 205.679688 87.484375 207.125 L 73.152344 192.792969 C 61.46875 181.109375 55.027344 165.507812 55.027344 148.863281 C 55.027344 132.21875 61.460938 116.617188 73.152344 104.933594 C 84.828125 93.25 100.425781 86.816406 117.074219 86.816406 C 133.722656 86.816406 149.324219 93.25 161.007812 104.933594 L 180.980469 124.886719 C 182.65625 126.566406 185.375 126.566406 187.050781 124.886719 L 207.007812 104.933594 C 231.234375 80.707031 270.65625 80.707031 294.882812 104.933594 C 319.09375 129.15625 319.09375 168.570312 294.882812 192.792969 Z M 280.546875 207.125 " fill-opacity="1" fill-rule="nonzero"/></g></svg>