<svg xmlns="http://www.w3.org/2000/svg" xmlns:xlink="http://www.w3.org/1999/xlink" width="500" zoomAndPan="magnify" viewBox="0 0 375 374.999991" height="500" preserveAspectRatio="xMidYMid meet" version="1.0"><defs><clipPath id="aab0d79264"><path d="M 93.839844 50 L 281.339844 50 L 281.339844 327 L 93.839844 327 Z M 93.839844 50 " clip-rule="nonzero"/></clipPath></defs><g clip-path="url(#aab0d79264)"><path fill="#000000" d="M 269 210.964844 L 278.871094 206.058594 C 279.628906 205.679688 280.234375 205.128906 280.679688 204.402344 C 281.121094 203.679688 281.34375 202.894531 281.339844 202.042969 L 281.339844 179.738281 C 281.339844 179.445312 281.308594 179.15625 281.253906 178.867188 C 281.195312 178.578125 281.109375 178.300781 281 178.03125 C 280.886719 177.757812 280.75 177.503906 280.585938 177.257812 C 280.421875 177.015625 280.238281 176.789062 280.03125 176.582031 C 279.824219 176.375 279.597656 176.191406 279.355469 176.027344 C 279.109375 175.867188 278.851562 175.726562 278.582031 175.617188 C 278.3125 175.503906 278.03125 175.417969 277.746094 175.363281 C 277.457031 175.304688 277.167969 175.277344 276.875 175.277344 L 246.984375 175.277344 C 248.175781 174.445312 249.324219 173.5625 250.433594 172.628906 C 251.542969 171.695312 252.609375 170.714844 253.632812 169.6875 C 254.65625 168.660156 255.632812 167.589844 256.558594 166.476562 C 257.488281 165.363281 258.363281 164.210938 259.191406 163.019531 C 260.015625 161.824219 260.785156 160.601562 261.503906 159.339844 C 262.21875 158.082031 262.878906 156.789062 263.484375 155.472656 C 264.085938 154.152344 264.628906 152.8125 265.113281 151.445312 C 265.59375 150.078125 266.015625 148.691406 266.378906 147.289062 C 266.738281 145.886719 267.035156 144.46875 267.269531 143.039062 C 267.507812 141.605469 267.675781 140.167969 267.785156 138.722656 C 267.890625 137.277344 267.933594 135.832031 267.914062 134.382812 C 267.890625 132.933594 267.808594 131.484375 267.65625 130.042969 C 267.507812 128.601562 267.296875 127.171875 267.019531 125.746094 C 266.742188 124.324219 266.402344 122.917969 266.003906 121.523438 C 265.601562 120.128906 265.140625 118.757812 264.617188 117.40625 C 264.09375 116.054688 263.511719 114.726562 262.871094 113.429688 C 262.230469 112.128906 261.53125 110.859375 260.777344 109.621094 C 260.023438 108.382812 259.21875 107.179688 258.359375 106.011719 C 257.5 104.84375 256.589844 103.71875 255.628906 102.628906 C 254.667969 101.542969 253.660156 100.503906 252.609375 99.503906 C 251.554688 98.507812 250.460938 97.558594 249.324219 96.65625 C 248.1875 95.757812 247.015625 94.910156 245.800781 94.113281 C 244.589844 93.316406 243.34375 92.574219 242.066406 91.890625 C 240.789062 91.203125 239.484375 90.574219 238.152344 90.003906 C 236.816406 89.433594 235.460938 88.925781 234.082031 88.472656 C 232.703125 88.023438 231.308594 87.636719 229.894531 87.308594 C 228.480469 86.984375 227.054688 86.71875 225.621094 86.519531 C 224.183594 86.320312 222.742188 86.183594 221.292969 86.109375 C 219.84375 86.039062 218.394531 86.027344 216.945312 86.085938 C 215.496094 86.140625 214.050781 86.261719 212.613281 86.445312 C 211.175781 86.628906 209.746094 86.875 208.328125 87.1875 C 206.914062 87.496094 205.511719 87.867188 204.128906 88.304688 C 203.757812 86.714844 203.304688 85.148438 202.777344 83.605469 C 202.246094 82.0625 201.644531 80.546875 200.960938 79.0625 C 200.28125 77.582031 199.53125 76.136719 198.707031 74.726562 C 197.882812 73.320312 196.988281 71.953125 196.027344 70.636719 C 195.066406 69.316406 194.042969 68.046875 192.957031 66.832031 C 191.867188 65.613281 190.722656 64.453125 189.519531 63.351562 C 188.316406 62.246094 187.0625 61.207031 185.753906 60.230469 C 184.445312 59.253906 183.09375 58.34375 181.695312 57.5 C 180.296875 56.65625 178.859375 55.886719 177.386719 55.1875 C 175.910156 54.484375 174.40625 53.863281 172.867188 53.3125 C 171.328125 52.761719 169.769531 52.292969 168.183594 51.898438 C 166.601562 51.503906 165 51.191406 163.382812 50.957031 C 161.769531 50.722656 160.144531 50.570312 158.511719 50.5 C 156.882812 50.425781 155.25 50.4375 153.621094 50.527344 C 151.992188 50.617188 150.367188 50.789062 148.757812 51.039062 C 147.144531 51.292969 145.546875 51.625 143.964844 52.035156 C 142.386719 52.449219 140.832031 52.9375 139.300781 53.503906 C 137.769531 54.070312 136.269531 54.714844 134.804688 55.429688 C 133.335938 56.144531 131.90625 56.933594 130.519531 57.792969 C 129.132812 58.652344 127.789062 59.574219 126.492188 60.570312 C 125.199219 61.5625 123.953125 62.617188 122.765625 63.730469 C 121.574219 64.847656 120.441406 66.023438 119.367188 67.25 C 118.292969 68.480469 117.285156 69.761719 116.339844 71.089844 C 115.394531 72.421875 114.515625 73.796875 113.707031 75.210938 C 112.898438 76.628906 112.164062 78.085938 111.5 79.574219 C 110.839844 81.066406 110.25 82.585938 109.738281 84.136719 C 109.226562 85.6875 108.796875 87.257812 108.441406 88.851562 C 108.085938 90.441406 107.8125 92.050781 107.617188 93.667969 C 107.425781 95.289062 107.3125 96.914062 107.28125 98.546875 C 107.25 100.179688 107.300781 101.808594 107.429688 103.433594 C 107.5625 105.058594 107.773438 106.675781 108.066406 108.28125 C 108.359375 109.886719 108.730469 111.472656 109.179688 113.039062 C 109.632812 114.609375 110.160156 116.152344 110.765625 117.667969 C 111.371094 119.183594 112.050781 120.664062 112.800781 122.113281 C 113.554688 123.558594 114.378906 124.964844 115.273438 126.332031 C 116.164062 127.695312 117.125 129.015625 118.148438 130.285156 C 119.175781 131.554688 120.261719 132.769531 121.40625 133.933594 C 122.554688 135.09375 123.753906 136.195312 125.011719 137.238281 C 126.269531 138.28125 127.574219 139.257812 128.929688 140.167969 C 130.28125 141.078125 131.679688 141.921875 133.117188 142.695312 C 134.554688 143.464844 136.027344 144.164062 137.535156 144.789062 C 139.042969 145.417969 140.578125 145.964844 142.140625 146.4375 C 143.703125 146.910156 145.289062 147.304688 146.890625 147.617188 C 148.492188 147.933594 150.105469 148.164062 151.730469 148.320312 C 153.355469 148.472656 154.984375 148.546875 156.617188 148.535156 C 158.25 148.527344 159.878906 148.4375 161.503906 148.265625 C 163.125 148.09375 164.738281 147.84375 166.335938 147.511719 C 167.933594 147.179688 169.511719 146.765625 171.070312 146.277344 C 171.757812 149.191406 172.699219 152.015625 173.902344 154.757812 C 175.105469 157.496094 176.542969 160.105469 178.222656 162.582031 C 179.902344 165.058594 181.789062 167.367188 183.886719 169.5 C 185.988281 171.632812 188.261719 173.558594 190.714844 175.277344 L 98.304688 175.277344 C 98.007812 175.277344 97.71875 175.304688 97.433594 175.363281 C 97.144531 175.417969 96.863281 175.503906 96.59375 175.617188 C 96.324219 175.726562 96.066406 175.867188 95.824219 176.027344 C 95.578125 176.191406 95.351562 176.375 95.144531 176.582031 C 94.9375 176.789062 94.753906 177.015625 94.589844 177.257812 C 94.429688 177.503906 94.289062 177.757812 94.179688 178.03125 C 94.066406 178.300781 93.980469 178.578125 93.925781 178.867188 C 93.867188 179.15625 93.839844 179.445312 93.839844 179.738281 L 93.839844 202.042969 C 93.832031 202.894531 94.054688 203.679688 94.5 204.402344 C 94.945312 205.128906 95.546875 205.679688 96.308594 206.058594 L 106.179688 210.964844 C 107.007812 211.382812 107.761719 211.902344 108.449219 212.523438 C 109.132812 213.148438 109.71875 213.855469 110.207031 214.644531 C 110.691406 215.433594 111.0625 216.273438 111.316406 217.164062 C 111.570312 218.054688 111.695312 218.964844 111.695312 219.890625 C 111.695312 220.816406 111.570312 221.722656 111.316406 222.617188 C 111.0625 223.507812 110.691406 224.347656 110.207031 225.132812 C 109.71875 225.921875 109.132812 226.628906 108.449219 227.253906 C 107.761719 227.878906 107.007812 228.398438 106.179688 228.8125 C 105.253906 229.269531 104.363281 229.789062 103.511719 230.371094 C 102.660156 230.953125 101.855469 231.59375 101.089844 232.285156 C 100.328125 232.980469 99.617188 233.726562 98.957031 234.519531 C 98.296875 235.3125 97.699219 236.148438 97.15625 237.023438 C 96.613281 237.902344 96.132812 238.8125 95.71875 239.757812 C 95.300781 240.699219 94.953125 241.667969 94.675781 242.660156 C 94.394531 243.65625 94.183594 244.660156 94.042969 245.683594 C 93.902344 246.707031 93.835938 247.730469 93.839844 248.761719 L 93.839844 309.117188 C 93.839844 309.699219 93.867188 310.28125 93.925781 310.863281 C 93.980469 311.445312 94.066406 312.023438 94.179688 312.597656 C 94.296875 313.171875 94.4375 313.738281 94.609375 314.296875 C 94.777344 314.855469 94.972656 315.40625 95.199219 315.945312 C 95.421875 316.484375 95.671875 317.011719 95.945312 317.527344 C 96.222656 318.042969 96.523438 318.542969 96.847656 319.03125 C 97.171875 319.515625 97.519531 319.984375 97.890625 320.4375 C 98.261719 320.886719 98.65625 321.320312 99.070312 321.734375 C 99.480469 322.148438 99.914062 322.539062 100.367188 322.910156 C 100.820312 323.28125 101.289062 323.628906 101.773438 323.953125 C 102.261719 324.277344 102.761719 324.578125 103.277344 324.855469 C 103.792969 325.128906 104.320312 325.378906 104.863281 325.601562 C 105.402344 325.824219 105.953125 326.023438 106.511719 326.191406 C 107.070312 326.363281 107.636719 326.503906 108.210938 326.617188 C 108.785156 326.730469 109.363281 326.816406 109.945312 326.875 C 110.527344 326.933594 111.109375 326.960938 111.695312 326.960938 L 263.480469 326.960938 C 264.066406 326.960938 264.648438 326.933594 265.230469 326.875 C 265.8125 326.816406 266.390625 326.730469 266.964844 326.617188 C 267.539062 326.503906 268.105469 326.363281 268.664062 326.191406 C 269.226562 326.023438 269.773438 325.824219 270.316406 325.601562 C 270.855469 325.378906 271.382812 325.128906 271.898438 324.855469 C 272.414062 324.578125 272.914062 324.277344 273.402344 323.953125 C 273.886719 323.628906 274.359375 323.28125 274.808594 322.910156 C 275.261719 322.539062 275.695312 322.148438 276.109375 321.734375 C 276.523438 321.320312 276.914062 320.886719 277.285156 320.4375 C 277.65625 319.984375 278.003906 319.515625 278.328125 319.03125 C 278.652344 318.542969 278.953125 318.042969 279.230469 317.527344 C 279.503906 317.011719 279.753906 316.484375 279.980469 315.945312 C 280.203125 315.40625 280.398438 314.855469 280.570312 314.296875 C 280.738281 313.738281 280.882812 313.171875 280.996094 312.597656 C 281.109375 312.023438 281.195312 311.445312 281.253906 310.863281 C 281.308594 310.28125 281.339844 309.699219 281.339844 309.117188 L 281.339844 248.761719 C 281.339844 247.730469 281.273438 246.707031 281.132812 245.683594 C 280.992188 244.660156 280.785156 243.65625 280.503906 242.660156 C 280.222656 241.667969 279.875 240.699219 279.460938 239.757812 C 279.042969 238.8125 278.566406 237.902344 278.023438 237.023438 C 277.480469 236.148438 276.878906 235.3125 276.21875 234.519531 C 275.558594 233.726562 274.847656 232.980469 274.085938 232.285156 C 273.324219 231.59375 272.515625 230.953125 271.664062 230.371094 C 270.8125 229.789062 269.921875 229.269531 269 228.8125 C 268.171875 228.398438 267.414062 227.878906 266.730469 227.253906 C 266.042969 226.628906 265.460938 225.921875 264.972656 225.132812 C 264.484375 224.347656 264.113281 223.507812 263.859375 222.617188 C 263.605469 221.722656 263.480469 220.816406 263.480469 219.890625 C 263.480469 218.964844 263.605469 218.054688 263.859375 217.164062 C 264.113281 216.273438 264.484375 215.433594 264.972656 214.644531 C 265.460938 213.855469 266.042969 213.148438 266.730469 212.523438 C 267.414062 211.902344 268.171875 211.382812 269 210.964844 Z M 259.015625 135.125 C 259.015625 136.34375 258.957031 137.5625 258.84375 138.78125 C 258.734375 139.996094 258.566406 141.203125 258.34375 142.40625 C 258.117188 143.605469 257.839844 144.792969 257.511719 145.96875 C 257.179688 147.144531 256.796875 148.300781 256.359375 149.441406 C 255.921875 150.582031 255.433594 151.699219 254.894531 152.796875 C 254.355469 153.890625 253.769531 154.960938 253.132812 156.003906 C 252.496094 157.046875 251.8125 158.058594 251.085938 159.039062 C 250.355469 160.019531 249.585938 160.964844 248.769531 161.875 C 247.953125 162.78125 247.101562 163.652344 246.207031 164.484375 C 245.3125 165.320312 244.382812 166.109375 243.414062 166.855469 C 242.449219 167.601562 241.453125 168.304688 240.421875 168.960938 C 239.390625 169.617188 238.332031 170.226562 237.246094 170.785156 C 236.160156 171.347656 235.050781 171.855469 233.921875 172.316406 C 232.789062 172.773438 231.636719 173.183594 230.46875 173.535156 C 229.296875 173.890625 228.117188 174.191406 226.917969 174.4375 C 225.722656 174.683594 224.515625 174.875 223.304688 175.011719 L 223.304688 165.71875 C 224.34375 165.453125 225.355469 165.09375 226.332031 164.640625 C 227.308594 164.191406 228.238281 163.65625 229.117188 163.035156 C 229.996094 162.417969 230.816406 161.726562 231.570312 160.957031 C 232.324219 160.191406 233.003906 159.363281 233.609375 158.472656 C 234.210938 157.582031 234.730469 156.644531 235.164062 155.660156 C 235.601562 154.675781 235.941406 153.660156 236.191406 152.617188 C 236.445312 151.570312 236.597656 150.511719 236.65625 149.4375 C 236.714844 148.363281 236.675781 147.292969 236.539062 146.222656 C 236.402344 145.15625 236.171875 144.113281 235.847656 143.085938 C 235.523438 142.0625 235.105469 141.074219 234.601562 140.125 C 234.097656 139.171875 233.511719 138.277344 232.84375 137.433594 C 232.175781 136.589844 231.441406 135.8125 230.632812 135.101562 C 229.824219 134.390625 228.957031 133.757812 228.035156 133.203125 C 227.113281 132.652344 226.148438 132.183594 225.140625 131.804688 C 224.132812 131.425781 223.101562 131.140625 222.042969 130.949219 C 220.980469 130.757812 219.914062 130.660156 218.839844 130.664062 C 218.253906 130.664062 217.671875 130.605469 217.097656 130.492188 C 216.523438 130.378906 215.964844 130.207031 215.421875 129.984375 C 214.878906 129.761719 214.367188 129.484375 213.878906 129.160156 C 213.390625 128.832031 212.941406 128.464844 212.523438 128.050781 C 212.109375 127.636719 211.742188 127.183594 211.414062 126.699219 C 211.089844 126.210938 210.8125 125.695312 210.589844 125.15625 C 210.363281 124.613281 210.195312 124.054688 210.082031 123.480469 C 209.96875 122.90625 209.910156 122.328125 209.910156 121.742188 C 209.910156 121.15625 209.96875 120.574219 210.082031 120 C 210.195312 119.425781 210.363281 118.867188 210.589844 118.324219 C 210.8125 117.785156 211.089844 117.269531 211.414062 116.785156 C 211.742188 116.296875 212.109375 115.84375 212.523438 115.429688 C 212.941406 115.015625 213.390625 114.648438 213.878906 114.320312 C 214.367188 113.996094 214.878906 113.722656 215.421875 113.496094 C 215.964844 113.273438 216.523438 113.105469 217.097656 112.988281 C 217.671875 112.875 218.253906 112.816406 218.839844 112.816406 C 219.425781 112.816406 220.003906 112.875 220.582031 112.988281 C 221.15625 113.105469 221.714844 113.273438 222.253906 113.496094 C 222.796875 113.722656 223.3125 113.996094 223.800781 114.320312 C 224.285156 114.648438 224.738281 115.015625 225.152344 115.429688 C 225.566406 115.84375 225.9375 116.296875 226.261719 116.785156 C 226.589844 117.269531 226.863281 117.785156 227.085938 118.324219 C 227.3125 118.867188 227.480469 119.425781 227.59375 120 C 227.710938 120.574219 227.765625 121.15625 227.765625 121.742188 L 236.695312 121.742188 C 236.691406 120.761719 236.609375 119.789062 236.445312 118.824219 C 236.28125 117.855469 236.039062 116.910156 235.71875 115.984375 C 235.398438 115.058594 235.003906 114.164062 234.539062 113.304688 C 234.070312 112.445312 233.535156 111.625 232.933594 110.851562 C 232.332031 110.078125 231.671875 109.359375 230.953125 108.695312 C 230.234375 108.03125 229.460938 107.429688 228.644531 106.894531 C 227.824219 106.355469 226.96875 105.886719 226.070312 105.492188 C 225.175781 105.09375 224.25 104.773438 223.304688 104.527344 L 223.304688 95.234375 C 224.515625 95.371094 225.722656 95.566406 226.917969 95.8125 C 228.117188 96.058594 229.296875 96.359375 230.46875 96.710938 C 231.636719 97.066406 232.789062 97.472656 233.921875 97.933594 C 235.050781 98.390625 236.160156 98.902344 237.246094 99.460938 C 238.332031 100.023438 239.390625 100.628906 240.421875 101.289062 C 241.453125 101.945312 242.449219 102.644531 243.414062 103.394531 C 244.382812 104.140625 245.3125 104.929688 246.207031 105.761719 C 247.101562 106.59375 247.953125 107.464844 248.769531 108.375 C 249.585938 109.285156 250.355469 110.230469 251.085938 111.210938 C 251.8125 112.191406 252.496094 113.203125 253.132812 114.246094 C 253.769531 115.289062 254.355469 116.355469 254.894531 117.453125 C 255.433594 118.546875 255.921875 119.667969 256.359375 120.808594 C 256.796875 121.949219 257.179688 123.105469 257.511719 124.28125 C 257.84375 125.457031 258.117188 126.644531 258.34375 127.84375 C 258.566406 129.046875 258.734375 130.253906 258.84375 131.46875 C 258.957031 132.683594 259.015625 133.902344 259.015625 135.125 Z M 195.773438 91.851562 C 193.367188 93.136719 191.082031 94.613281 188.921875 96.28125 C 186.761719 97.949219 184.753906 99.78125 182.894531 101.777344 C 181.039062 103.777344 179.359375 105.914062 177.855469 108.191406 C 176.351562 110.46875 175.046875 112.855469 173.941406 115.347656 C 174.089844 114.511719 174.171875 113.667969 174.195312 112.816406 C 174.195312 112.234375 174.167969 111.652344 174.109375 111.070312 C 174.050781 110.488281 173.964844 109.910156 173.851562 109.335938 C 173.738281 108.761719 173.597656 108.195312 173.425781 107.636719 C 173.257812 107.078125 173.058594 106.527344 172.835938 105.988281 C 172.613281 105.449219 172.363281 104.921875 172.085938 104.40625 C 171.8125 103.890625 171.511719 103.390625 171.1875 102.902344 C 170.859375 102.417969 170.511719 101.949219 170.140625 101.496094 C 169.769531 101.046875 169.378906 100.613281 168.964844 100.199219 C 168.550781 99.785156 168.117188 99.394531 167.667969 99.023438 C 167.214844 98.652344 166.746094 98.304688 166.257812 97.980469 C 165.773438 97.65625 165.273438 97.355469 164.757812 97.078125 C 164.242188 96.804688 163.710938 96.554688 163.171875 96.332031 C 162.632812 96.109375 162.082031 95.910156 161.523438 95.742188 C 160.960938 95.570312 160.394531 95.429688 159.820312 95.316406 C 159.25 95.203125 158.671875 95.117188 158.089844 95.058594 C 157.507812 95 156.921875 94.972656 156.339844 94.972656 C 155.753906 94.972656 155.171875 94.914062 154.597656 94.800781 C 154.023438 94.6875 153.464844 94.519531 152.921875 94.292969 C 152.378906 94.070312 151.867188 93.792969 151.378906 93.46875 C 150.890625 93.144531 150.441406 92.773438 150.023438 92.359375 C 149.609375 91.945312 149.242188 91.496094 148.914062 91.007812 C 148.589844 90.519531 148.3125 90.007812 148.089844 89.464844 C 147.863281 88.921875 147.695312 88.367188 147.582031 87.789062 C 147.46875 87.214844 147.410156 86.636719 147.410156 86.050781 C 147.410156 85.464844 147.46875 84.882812 147.582031 84.308594 C 147.695312 83.734375 147.863281 83.175781 148.089844 82.636719 C 148.3125 82.09375 148.589844 81.582031 148.914062 81.09375 C 149.242188 80.605469 149.609375 80.15625 150.023438 79.742188 C 150.441406 79.328125 150.890625 78.957031 151.378906 78.632812 C 151.867188 78.304688 152.378906 78.03125 152.921875 77.808594 C 153.464844 77.582031 154.023438 77.414062 154.597656 77.300781 C 155.171875 77.183594 155.753906 77.128906 156.339844 77.128906 C 156.925781 77.128906 157.503906 77.183594 158.082031 77.300781 C 158.65625 77.414062 159.214844 77.582031 159.753906 77.808594 C 160.296875 78.03125 160.8125 78.304688 161.300781 78.632812 C 161.785156 78.957031 162.238281 79.328125 162.652344 79.742188 C 163.066406 80.15625 163.4375 80.605469 163.761719 81.09375 C 164.089844 81.582031 164.363281 82.09375 164.585938 82.636719 C 164.8125 83.175781 164.980469 83.734375 165.09375 84.308594 C 165.210938 84.882812 165.265625 85.464844 165.265625 86.050781 L 174.195312 86.050781 C 174.191406 85.070312 174.109375 84.097656 173.945312 83.132812 C 173.78125 82.167969 173.539062 81.222656 173.21875 80.292969 C 172.898438 79.367188 172.503906 78.476562 172.039062 77.613281 C 171.570312 76.753906 171.035156 75.9375 170.433594 75.164062 C 169.832031 74.390625 169.171875 73.671875 168.453125 73.007812 C 167.734375 72.339844 166.960938 71.742188 166.144531 71.203125 C 165.324219 70.664062 164.46875 70.199219 163.570312 69.800781 C 162.675781 69.402344 161.75 69.082031 160.804688 68.839844 L 160.804688 59.554688 C 162.917969 59.789062 165.003906 60.1875 167.054688 60.753906 C 169.105469 61.320312 171.101562 62.042969 173.039062 62.925781 C 174.976562 63.808594 176.828125 64.839844 178.601562 66.019531 C 180.375 67.195312 182.042969 68.507812 183.605469 69.953125 C 185.167969 71.394531 186.609375 72.953125 187.921875 74.625 C 189.238281 76.300781 190.410156 78.066406 191.445312 79.925781 C 192.480469 81.785156 193.359375 83.714844 194.082031 85.714844 C 194.808594 87.714844 195.371094 89.761719 195.773438 91.851562 Z M 116.160156 99.433594 C 116.160156 98.214844 116.21875 96.996094 116.332031 95.777344 C 116.445312 94.5625 116.613281 93.355469 116.835938 92.152344 C 117.058594 90.953125 117.335938 89.765625 117.667969 88.589844 C 117.996094 87.414062 118.382812 86.257812 118.820312 85.117188 C 119.253906 83.976562 119.742188 82.859375 120.28125 81.761719 C 120.820312 80.667969 121.410156 79.597656 122.046875 78.554688 C 122.679688 77.511719 123.363281 76.5 124.09375 75.519531 C 124.820312 74.539062 125.59375 73.59375 126.40625 72.683594 C 127.222656 71.777344 128.078125 70.90625 128.972656 70.074219 C 129.863281 69.238281 130.796875 68.449219 131.761719 67.703125 C 132.726562 66.957031 133.726562 66.253906 134.757812 65.597656 C 135.785156 64.941406 136.84375 64.332031 137.929688 63.773438 C 139.015625 63.210938 140.125 62.703125 141.257812 62.242188 C 142.390625 61.785156 143.539062 61.375 144.707031 61.023438 C 145.878906 60.667969 147.0625 60.367188 148.257812 60.121094 C 149.453125 59.875 150.660156 59.683594 151.875 59.546875 L 151.875 68.839844 C 150.832031 69.105469 149.820312 69.464844 148.84375 69.917969 C 147.867188 70.367188 146.9375 70.902344 146.058594 71.523438 C 145.179688 72.140625 144.363281 72.832031 143.605469 73.601562 C 142.851562 74.367188 142.171875 75.195312 141.570312 76.085938 C 140.964844 76.976562 140.445312 77.914062 140.011719 78.898438 C 139.578125 79.882812 139.234375 80.898438 138.984375 81.941406 C 138.734375 82.988281 138.578125 84.046875 138.519531 85.121094 C 138.460938 86.195312 138.5 87.265625 138.636719 88.335938 C 138.773438 89.402344 139.003906 90.445312 139.328125 91.472656 C 139.65625 92.496094 140.070312 93.484375 140.574219 94.433594 C 141.078125 95.386719 141.664062 96.28125 142.332031 97.125 C 143 97.96875 143.738281 98.746094 144.546875 99.457031 C 145.351562 100.167969 146.21875 100.800781 147.140625 101.355469 C 148.0625 101.90625 149.027344 102.375 150.035156 102.753906 C 151.042969 103.132812 152.078125 103.417969 153.136719 103.609375 C 154.195312 103.800781 155.261719 103.898438 156.339844 103.894531 C 156.925781 103.894531 157.503906 103.953125 158.082031 104.066406 C 158.65625 104.179688 159.214844 104.351562 159.753906 104.574219 C 160.296875 104.796875 160.8125 105.074219 161.300781 105.398438 C 161.785156 105.722656 162.238281 106.09375 162.652344 106.507812 C 163.066406 106.921875 163.4375 107.375 163.761719 107.859375 C 164.089844 108.347656 164.363281 108.863281 164.585938 109.402344 C 164.8125 109.945312 164.980469 110.503906 165.09375 111.078125 C 165.210938 111.652344 165.265625 112.230469 165.265625 112.816406 C 165.265625 113.402344 165.210938 113.984375 165.09375 114.558594 C 164.980469 115.132812 164.8125 115.691406 164.585938 116.234375 C 164.363281 116.773438 164.089844 117.289062 163.761719 117.773438 C 163.4375 118.261719 163.066406 118.714844 162.652344 119.128906 C 162.238281 119.542969 161.785156 119.910156 161.300781 120.238281 C 160.8125 120.5625 160.296875 120.835938 159.753906 121.0625 C 159.214844 121.285156 158.65625 121.453125 158.082031 121.570312 C 157.503906 121.683594 156.925781 121.742188 156.339844 121.742188 C 155.753906 121.742188 155.171875 121.683594 154.597656 121.570312 C 154.023438 121.453125 153.464844 121.285156 152.921875 121.0625 C 152.378906 120.835938 151.867188 120.5625 151.378906 120.238281 C 150.890625 119.910156 150.441406 119.542969 150.023438 119.128906 C 149.609375 118.714844 149.242188 118.261719 148.914062 117.773438 C 148.589844 117.289062 148.3125 116.773438 148.089844 116.234375 C 147.863281 115.691406 147.695312 115.132812 147.582031 114.558594 C 147.46875 113.984375 147.410156 113.402344 147.410156 112.816406 L 138.480469 112.816406 C 138.484375 113.796875 138.570312 114.769531 138.734375 115.734375 C 138.898438 116.703125 139.136719 117.648438 139.457031 118.574219 C 139.777344 119.5 140.171875 120.394531 140.636719 121.253906 C 141.105469 122.113281 141.640625 122.933594 142.242188 123.707031 C 142.84375 124.480469 143.503906 125.199219 144.222656 125.863281 C 144.945312 126.527344 145.714844 127.128906 146.535156 127.664062 C 147.351562 128.203125 148.210938 128.671875 149.105469 129.066406 C 150.003906 129.464844 150.925781 129.785156 151.875 130.03125 L 151.875 139.324219 C 150.660156 139.1875 149.453125 138.992188 148.257812 138.746094 C 147.0625 138.5 145.878906 138.199219 144.707031 137.847656 C 143.539062 137.492188 142.390625 137.085938 141.257812 136.625 C 140.125 136.167969 139.015625 135.65625 137.929688 135.097656 C 136.84375 134.535156 135.785156 133.929688 134.757812 133.269531 C 133.726562 132.613281 132.726562 131.914062 131.761719 131.164062 C 130.796875 130.417969 129.863281 129.628906 128.972656 128.796875 C 128.078125 127.964844 127.222656 127.09375 126.40625 126.183594 C 125.59375 125.273438 124.820312 124.328125 124.09375 123.347656 C 123.363281 122.367188 122.679688 121.355469 122.046875 120.3125 C 121.410156 119.269531 120.820312 118.203125 120.28125 117.105469 C 119.742188 116.011719 119.253906 114.890625 118.820312 113.75 C 118.382812 112.609375 117.996094 111.453125 117.667969 110.277344 C 117.335938 109.101562 117.058594 107.914062 116.835938 106.714844 C 116.613281 105.511719 116.445312 104.304688 116.332031 103.089844 C 116.21875 101.875 116.160156 100.65625 116.160156 99.433594 Z M 160.804688 139.324219 L 160.804688 130.03125 C 163.050781 129.445312 165.109375 128.457031 166.96875 127.066406 C 168.832031 125.675781 170.363281 123.988281 171.566406 122 C 170.355469 126.289062 169.742188 130.664062 169.730469 135.125 C 169.730469 135.828125 169.808594 136.515625 169.839844 137.210938 C 166.910156 138.269531 163.898438 138.972656 160.804688 139.324219 Z M 178.660156 135.125 C 178.660156 133.902344 178.71875 132.683594 178.832031 131.46875 C 178.945312 130.253906 179.113281 129.046875 179.335938 127.84375 C 179.558594 126.644531 179.835938 125.457031 180.167969 124.28125 C 180.496094 123.105469 180.882812 121.949219 181.320312 120.808594 C 181.753906 119.667969 182.242188 118.546875 182.78125 117.453125 C 183.320312 116.355469 183.910156 115.289062 184.546875 114.246094 C 185.179688 113.203125 185.863281 112.191406 186.59375 111.210938 C 187.320312 110.230469 188.09375 109.285156 188.90625 108.375 C 189.722656 107.464844 190.578125 106.59375 191.472656 105.761719 C 192.363281 104.929688 193.296875 104.140625 194.261719 103.394531 C 195.226562 102.644531 196.226562 101.945312 197.257812 101.289062 C 198.285156 100.628906 199.34375 100.023438 200.429688 99.460938 C 201.515625 98.902344 202.625 98.390625 203.757812 97.933594 C 204.890625 97.472656 206.039062 97.066406 207.207031 96.710938 C 208.378906 96.359375 209.5625 96.058594 210.757812 95.8125 C 211.953125 95.566406 213.160156 95.371094 214.375 95.234375 L 214.375 104.527344 C 213.332031 104.796875 212.320312 105.15625 211.34375 105.605469 C 210.367188 106.058594 209.4375 106.59375 208.558594 107.210938 C 207.679688 107.832031 206.863281 108.523438 206.105469 109.292969 C 205.351562 110.058594 204.671875 110.886719 204.070312 111.777344 C 203.464844 112.667969 202.945312 113.605469 202.511719 114.589844 C 202.078125 115.570312 201.734375 116.585938 201.484375 117.632812 C 201.234375 118.679688 201.078125 119.738281 201.019531 120.8125 C 200.960938 121.886719 201 122.957031 201.136719 124.023438 C 201.273438 125.089844 201.503906 126.136719 201.828125 127.164062 C 202.15625 128.1875 202.570312 129.175781 203.074219 130.125 C 203.578125 131.074219 204.164062 131.972656 204.832031 132.816406 C 205.5 133.660156 206.238281 134.4375 207.046875 135.148438 C 207.851562 135.859375 208.71875 136.492188 209.640625 137.042969 C 210.5625 137.597656 211.527344 138.0625 212.535156 138.445312 C 213.542969 138.824219 214.578125 139.109375 215.636719 139.300781 C 216.695312 139.492188 217.761719 139.585938 218.839844 139.585938 C 219.425781 139.585938 220.003906 139.644531 220.582031 139.757812 C 221.15625 139.871094 221.714844 140.039062 222.253906 140.265625 C 222.796875 140.488281 223.3125 140.765625 223.800781 141.089844 C 224.285156 141.414062 224.738281 141.785156 225.152344 142.199219 C 225.566406 142.613281 225.9375 143.0625 226.261719 143.550781 C 226.589844 144.039062 226.863281 144.550781 227.085938 145.09375 C 227.3125 145.636719 227.480469 146.191406 227.59375 146.769531 C 227.710938 147.34375 227.765625 147.921875 227.765625 148.507812 C 227.765625 149.09375 227.710938 149.675781 227.59375 150.25 C 227.480469 150.824219 227.3125 151.382812 227.085938 151.921875 C 226.863281 152.464844 226.589844 152.976562 226.261719 153.464844 C 225.9375 153.953125 225.566406 154.402344 225.152344 154.816406 C 224.738281 155.230469 224.285156 155.601562 223.800781 155.925781 C 223.3125 156.253906 222.796875 156.527344 222.253906 156.75 C 221.714844 156.976562 221.15625 157.144531 220.582031 157.257812 C 220.003906 157.375 219.425781 157.429688 218.839844 157.429688 C 218.253906 157.429688 217.671875 157.375 217.097656 157.257812 C 216.523438 157.144531 215.964844 156.976562 215.421875 156.75 C 214.878906 156.527344 214.367188 156.253906 213.878906 155.925781 C 213.390625 155.601562 212.941406 155.230469 212.523438 154.816406 C 212.109375 154.402344 211.742188 153.953125 211.414062 153.464844 C 211.089844 152.976562 210.8125 152.464844 210.589844 151.921875 C 210.363281 151.382812 210.195312 150.824219 210.082031 150.25 C 209.96875 149.675781 209.910156 149.09375 209.910156 148.507812 L 200.980469 148.507812 C 200.984375 149.488281 201.070312 150.460938 201.234375 151.425781 C 201.398438 152.390625 201.636719 153.335938 201.957031 154.265625 C 202.277344 155.191406 202.671875 156.082031 203.136719 156.945312 C 203.605469 157.804688 204.140625 158.621094 204.742188 159.394531 C 205.34375 160.167969 206.003906 160.886719 206.722656 161.550781 C 207.445312 162.21875 208.214844 162.816406 209.035156 163.355469 C 209.851562 163.894531 210.710938 164.359375 211.605469 164.757812 C 212.503906 165.15625 213.425781 165.476562 214.375 165.71875 L 214.375 175.011719 C 213.160156 174.875 211.953125 174.683594 210.757812 174.4375 C 209.5625 174.191406 208.378906 173.890625 207.210938 173.535156 C 206.039062 173.183594 204.890625 172.773438 203.757812 172.316406 C 202.625 171.855469 201.515625 171.347656 200.429688 170.785156 C 199.34375 170.226562 198.285156 169.617188 197.257812 168.960938 C 196.226562 168.304688 195.226562 167.601562 194.261719 166.855469 C 193.296875 166.109375 192.363281 165.320312 191.472656 164.484375 C 190.578125 163.652344 189.722656 162.78125 188.90625 161.875 C 188.09375 160.964844 187.320312 160.019531 186.59375 159.039062 C 185.863281 158.058594 185.179688 157.046875 184.546875 156.003906 C 183.910156 154.960938 183.320312 153.890625 182.78125 152.796875 C 182.242188 151.699219 181.753906 150.582031 181.320312 149.441406 C 180.882812 148.300781 180.496094 147.144531 180.167969 145.96875 C 179.835938 144.792969 179.558594 143.605469 179.335938 142.40625 C 179.113281 141.203125 178.945312 139.996094 178.832031 138.78125 C 178.71875 137.5625 178.660156 136.34375 178.660156 135.125 Z M 263.480469 318.039062 L 111.695312 318.039062 C 111.109375 318.039062 110.527344 317.980469 109.953125 317.867188 C 109.378906 317.753906 108.820312 317.582031 108.277344 317.359375 C 107.738281 317.132812 107.222656 316.859375 106.734375 316.535156 C 106.246094 316.207031 105.796875 315.839844 105.382812 315.425781 C 104.96875 315.011719 104.597656 314.558594 104.273438 314.074219 C 103.945312 313.585938 103.671875 313.070312 103.445312 312.53125 C 103.222656 311.988281 103.054688 311.429688 102.9375 310.855469 C 102.824219 310.28125 102.765625 309.703125 102.765625 309.117188 L 272.410156 309.117188 C 272.410156 309.703125 272.351562 310.28125 272.238281 310.855469 C 272.125 311.429688 271.953125 311.988281 271.730469 312.53125 C 271.507812 313.070312 271.230469 313.585938 270.90625 314.074219 C 270.578125 314.558594 270.210938 315.011719 269.792969 315.425781 C 269.378906 315.839844 268.929688 316.207031 268.441406 316.535156 C 267.953125 316.859375 267.441406 317.132812 266.898438 317.359375 C 266.355469 317.582031 265.796875 317.753906 265.222656 317.867188 C 264.648438 317.980469 264.066406 318.039062 263.480469 318.039062 Z M 265.007812 236.792969 C 266.121094 237.347656 267.140625 238.042969 268.058594 238.878906 C 268.980469 239.714844 269.765625 240.664062 270.417969 241.722656 C 271.074219 242.78125 271.570312 243.90625 271.90625 245.101562 C 272.246094 246.300781 272.414062 247.519531 272.410156 248.761719 L 272.410156 300.191406 L 102.765625 300.191406 L 102.765625 248.761719 C 102.761719 247.519531 102.929688 246.300781 103.269531 245.101562 C 103.605469 243.90625 104.101562 242.78125 104.757812 241.722656 C 105.410156 240.664062 106.199219 239.714844 107.117188 238.878906 C 108.039062 238.042969 109.054688 237.347656 110.167969 236.792969 C 111.398438 236.183594 112.546875 235.445312 113.617188 234.582031 C 114.683594 233.714844 115.644531 232.746094 116.5 231.671875 C 117.355469 230.597656 118.082031 229.441406 118.683594 228.207031 C 119.285156 226.972656 119.742188 225.6875 120.0625 224.351562 L 255.117188 224.351562 C 255.433594 225.6875 255.890625 226.972656 256.492188 228.207031 C 257.09375 229.441406 257.820312 230.597656 258.675781 231.671875 C 259.53125 232.746094 260.492188 233.714844 261.5625 234.582031 C 262.628906 235.445312 263.777344 236.183594 265.007812 236.792969 Z M 255.117188 215.429688 L 120.0625 215.429688 C 119.742188 214.09375 119.285156 212.808594 118.683594 211.570312 C 118.082031 210.335938 117.355469 209.183594 116.5 208.105469 C 115.644531 207.03125 114.683594 206.0625 113.617188 205.199219 C 112.546875 204.335938 111.398438 203.597656 110.167969 202.984375 L 102.765625 199.285156 L 102.765625 184.199219 L 272.410156 184.199219 L 272.410156 199.285156 L 265.007812 202.984375 C 263.777344 203.597656 262.628906 204.335938 261.5625 205.199219 C 260.492188 206.0625 259.53125 207.03125 258.675781 208.105469 C 257.820312 209.183594 257.09375 210.335938 256.492188 211.570312 C 255.890625 212.808594 255.433594 214.09375 255.117188 215.429688 Z M 255.117188 215.429688 " fill-opacity="1" fill-rule="nonzero"/></g><path fill="#000000" d="M 129.554688 251.117188 L 129.554688 277.886719 L 138.480469 277.886719 L 138.480469 268.964844 L 147.410156 268.964844 L 147.410156 260.042969 L 138.480469 260.042969 L 138.480469 255.578125 L 147.410156 255.578125 L 147.410156 246.65625 L 134.015625 246.65625 C 133.722656 246.65625 133.433594 246.6875 133.144531 246.742188 C 132.859375 246.800781 132.578125 246.882812 132.308594 246.996094 C 132.039062 247.109375 131.78125 247.246094 131.535156 247.410156 C 131.292969 247.570312 131.066406 247.757812 130.859375 247.964844 C 130.652344 248.171875 130.46875 248.394531 130.304688 248.640625 C 130.140625 248.882812 130.003906 249.140625 129.894531 249.410156 C 129.78125 249.683594 129.695312 249.960938 129.636719 250.25 C 129.582031 250.535156 129.554688 250.824219 129.554688 251.117188 Z M 129.554688 251.117188 " fill-opacity="1" fill-rule="nonzero"/><path fill="#000000" d="M 169.730469 268.964844 L 160.804688 268.964844 L 160.804688 246.65625 L 151.875 246.65625 L 151.875 273.425781 C 151.875 273.71875 151.902344 274.007812 151.960938 274.296875 C 152.015625 274.582031 152.101562 274.863281 152.214844 275.132812 C 152.328125 275.402344 152.464844 275.660156 152.625 275.902344 C 152.789062 276.148438 152.972656 276.371094 153.183594 276.578125 C 153.390625 276.785156 153.613281 276.972656 153.859375 277.132812 C 154.101562 277.296875 154.359375 277.433594 154.628906 277.546875 C 154.902344 277.660156 155.179688 277.742188 155.46875 277.800781 C 155.753906 277.859375 156.046875 277.886719 156.339844 277.886719 L 174.195312 277.886719 C 174.488281 277.886719 174.777344 277.859375 175.066406 277.800781 C 175.355469 277.742188 175.632812 277.660156 175.902344 277.546875 C 176.175781 277.433594 176.433594 277.296875 176.675781 277.132812 C 176.917969 276.972656 177.144531 276.785156 177.351562 276.578125 C 177.558594 276.371094 177.746094 276.148438 177.90625 275.902344 C 178.070312 275.660156 178.207031 275.402344 178.320312 275.132812 C 178.433594 274.863281 178.515625 274.582031 178.574219 274.296875 C 178.632812 274.007812 178.660156 273.71875 178.660156 273.425781 L 178.660156 246.65625 L 169.730469 246.65625 Z M 169.730469 268.964844 " fill-opacity="1" fill-rule="nonzero"/><path fill="#000000" d="M 205.445312 268.964844 L 204.636719 268.964844 L 200.890625 250.226562 C 200.789062 249.722656 200.605469 249.25 200.339844 248.808594 C 200.070312 248.371094 199.738281 247.988281 199.339844 247.664062 C 198.941406 247.335938 198.5 247.089844 198.015625 246.914062 C 197.53125 246.742188 197.03125 246.65625 196.515625 246.65625 L 187.589844 246.65625 C 187.296875 246.65625 187.003906 246.6875 186.71875 246.742188 C 186.429688 246.800781 186.152344 246.882812 185.878906 246.996094 C 185.609375 247.109375 185.351562 247.246094 185.109375 247.410156 C 184.863281 247.570312 184.640625 247.757812 184.433594 247.964844 C 184.222656 248.171875 184.039062 248.394531 183.875 248.640625 C 183.714844 248.882812 183.578125 249.140625 183.464844 249.410156 C 183.351562 249.683594 183.265625 249.960938 183.210938 250.25 C 183.152344 250.535156 183.125 250.824219 183.125 251.117188 L 183.125 277.886719 L 192.054688 277.886719 L 192.054688 255.578125 L 192.859375 255.578125 L 196.605469 274.316406 C 196.710938 274.820312 196.894531 275.292969 197.160156 275.734375 C 197.425781 276.171875 197.757812 276.554688 198.15625 276.882812 C 198.554688 277.207031 198.996094 277.457031 199.480469 277.628906 C 199.96875 277.800781 200.46875 277.886719 200.980469 277.886719 L 209.910156 277.886719 C 210.203125 277.886719 210.492188 277.859375 210.78125 277.800781 C 211.066406 277.742188 211.347656 277.660156 211.617188 277.546875 C 211.890625 277.433594 212.144531 277.296875 212.390625 277.132812 C 212.632812 276.972656 212.859375 276.785156 213.066406 276.578125 C 213.273438 276.371094 213.457031 276.148438 213.621094 275.902344 C 213.785156 275.660156 213.921875 275.402344 214.035156 275.132812 C 214.148438 274.863281 214.230469 274.582031 214.289062 274.296875 C 214.34375 274.007812 214.375 273.71875 214.375 273.425781 L 214.375 246.65625 L 205.445312 246.65625 Z M 205.445312 268.964844 " fill-opacity="1" fill-rule="nonzero"/><path fill="#000000" d="M 230 246.65625 L 223.304688 246.65625 C 223.007812 246.65625 222.71875 246.6875 222.433594 246.742188 C 222.144531 246.800781 221.863281 246.882812 221.59375 246.996094 C 221.324219 247.109375 221.066406 247.246094 220.824219 247.410156 C 220.578125 247.570312 220.351562 247.757812 220.144531 247.964844 C 219.9375 248.171875 219.753906 248.394531 219.589844 248.640625 C 219.429688 248.882812 219.289062 249.140625 219.179688 249.410156 C 219.066406 249.683594 218.980469 249.960938 218.925781 250.25 C 218.867188 250.535156 218.839844 250.824219 218.839844 251.117188 L 218.839844 273.425781 C 218.839844 273.71875 218.867188 274.007812 218.925781 274.296875 C 218.980469 274.582031 219.066406 274.863281 219.179688 275.132812 C 219.289062 275.402344 219.429688 275.660156 219.589844 275.902344 C 219.753906 276.148438 219.9375 276.371094 220.144531 276.578125 C 220.351562 276.785156 220.578125 276.972656 220.824219 277.132812 C 221.066406 277.296875 221.324219 277.433594 221.59375 277.546875 C 221.863281 277.660156 222.144531 277.742188 222.433594 277.800781 C 222.71875 277.859375 223.007812 277.886719 223.304688 277.886719 L 230 277.886719 C 231.023438 277.886719 232.042969 277.785156 233.046875 277.585938 C 234.054688 277.386719 235.03125 277.089844 235.980469 276.699219 C 236.925781 276.304688 237.828125 275.824219 238.679688 275.253906 C 239.53125 274.683594 240.324219 274.039062 241.046875 273.3125 C 241.773438 272.589844 242.421875 271.800781 242.992188 270.945312 C 243.5625 270.09375 244.042969 269.195312 244.433594 268.246094 C 244.828125 267.300781 245.125 266.324219 245.324219 265.316406 C 245.523438 264.3125 245.625 263.296875 245.625 262.273438 C 245.625 261.246094 245.523438 260.230469 245.324219 259.226562 C 245.125 258.21875 244.828125 257.242188 244.433594 256.296875 C 244.042969 255.347656 243.5625 254.449219 242.992188 253.597656 C 242.421875 252.746094 241.773438 251.957031 241.046875 251.230469 C 240.324219 250.503906 239.53125 249.859375 238.679688 249.289062 C 237.828125 248.71875 236.925781 248.238281 235.980469 247.847656 C 235.03125 247.453125 234.054688 247.15625 233.046875 246.957031 C 232.042969 246.757812 231.023438 246.65625 230 246.65625 Z M 230 268.964844 L 227.765625 268.964844 L 227.765625 255.578125 L 230 255.578125 C 230.4375 255.578125 230.875 255.621094 231.304688 255.707031 C 231.738281 255.792969 232.15625 255.921875 232.5625 256.089844 C 232.96875 256.257812 233.355469 256.464844 233.71875 256.707031 C 234.085938 256.953125 234.421875 257.230469 234.734375 257.539062 C 235.046875 257.851562 235.324219 258.1875 235.566406 258.554688 C 235.8125 258.917969 236.019531 259.304688 236.1875 259.710938 C 236.355469 260.117188 236.480469 260.535156 236.566406 260.964844 C 236.652344 261.398438 236.695312 261.832031 236.695312 262.273438 C 236.695312 262.710938 236.652344 263.144531 236.566406 263.578125 C 236.480469 264.007812 236.355469 264.425781 236.1875 264.832031 C 236.019531 265.238281 235.8125 265.625 235.566406 265.988281 C 235.324219 266.355469 235.046875 266.691406 234.734375 267.003906 C 234.421875 267.3125 234.085938 267.59375 233.71875 267.835938 C 233.355469 268.078125 232.96875 268.285156 232.5625 268.453125 C 232.15625 268.621094 231.738281 268.75 231.304688 268.835938 C 230.875 268.921875 230.4375 268.964844 230 268.964844 Z M 230 268.964844 " fill-opacity="1" fill-rule="nonzero"/></svg>