<?xml version="1.0" encoding="UTF-8"?><svg id="Layer_1" xmlns="http://www.w3.org/2000/svg" xmlns:xlink="http://www.w3.org/1999/xlink" viewBox="0 0 763.33 681.11"><defs><style>.cls-1{fill:#0b1628;}.cls-2{clip-path:url(#clippath-1);}.cls-3{clip-path:url(#clippath);}</style><clipPath id="clippath"><path class="cls-1" d="M755.08,186.24c-10.41-66.79-50.47-123.08-109.94-154.42C585.14.17,515.26-1.04,453.44,28.5c-27.79,13.3-48.19,34.09-69.79,56.11l-1.69,1.7c-4.39-5.13-8.71-10.16-13.43-14.71C312.32,17.3,247.42-2.93,175.65,11.51,94.45,27.83,39.02,77.88,15.36,156.26c-24,79.43-5.86,152.63,52.48,211.71,81.3,82.3,164.64,165.27,245.25,245.5l58.52,58.27c2.31,2.33,6.04,3.48,9.79,3.48s7.56-1.16,9.94-3.53l40.68-40.52c88.67-88.34,177.35-176.67,265.5-265.53,49.02-49.44,68.39-109.8,57.56-179.39ZM568.87,357.28c-72.05,19.42-135.01,3.31-187.17-48.06-30.36-29.88-60.41-60.07-90.46-90.26l-42.15-42.27c-18.6-18.61-47.13-19.69-64.9-2.46-8.32,8.03-12.96,18.85-13.06,30.44-.12,12.52,4.99,24.57,14.39,33.97,13.35,13.33,26.59,26.76,39.86,40.18,35.67,36.14,72.58,73.5,110.73,108.38,45.75,41.81,101.45,63.7,165.77,65.2l-62.65,63.21c-15.74,15.83-31.57,31.55-47.4,47.28l-3.97,3.95c-4.15,4.13-8.62,4.18-12.61.24l-71.87-71.72c-60.19-59.97-122.41-121.98-182.85-183.66-36.67-37.43-47.52-83.85-31.37-134.24,16.08-50.15,51.38-80.88,104.89-91.32,8.56-1.67,16.94-2.5,25.18-2.5,34.41,0,66.16,14.65,96.49,44.36,35.27,34.58,71.48,70.8,110.66,110.76,20.96,21.33,48.9,31.98,78.63,29.9,31.89-2.23,61.57-18.9,81.42-45.76,10.38-14.06,7.78-35.3-5.92-48.34-14.38-13.7-36.4-14.88-52.43-2.87-2.94,2.19-5.64,4.71-8.34,7.24-1.92,1.81-3.85,3.63-5.89,5.26-11.39,9.06-23.93,8.12-35.32-2.72-12.39-11.76-24.38-23.96-36.38-36.14l-5.08-5.16c24.37-25.13,52.36-48.4,90.36-54.42,66.77-10.55,133.73,34.24,149.47,99.9,18.27,76.24-28.18,150.03-108.05,171.63Z"/></clipPath><clipPath id="clippath-1"><rect class="cls-1" x="-92.14" y="-68.46" width="947.06" height="947.06" transform="translate(-23.68 786.46) rotate(-90)"/></clipPath></defs><path class="cls-1" d="M755.08,186.24c-10.41-66.79-50.47-123.08-109.94-154.42C585.14.17,515.26-1.04,453.44,28.5c-27.79,13.3-48.19,34.09-69.79,56.11l-1.69,1.7c-4.39-5.13-8.71-10.16-13.43-14.71C312.32,17.3,247.42-2.93,175.65,11.51,94.45,27.83,39.02,77.88,15.36,156.26c-24,79.43-5.86,152.63,52.48,211.71,81.3,82.3,164.64,165.27,245.25,245.5l58.52,58.27c2.31,2.33,6.04,3.48,9.79,3.48s7.56-1.16,9.94-3.53l40.68-40.52c88.67-88.34,177.35-176.67,265.5-265.53,49.02-49.44,68.39-109.8,57.56-179.39ZM568.87,357.28c-72.05,19.42-135.01,3.31-187.17-48.06-30.36-29.88-60.41-60.07-90.46-90.26l-42.15-42.27c-18.6-18.61-47.13-19.69-64.9-2.46-8.32,8.03-12.96,18.85-13.06,30.44-.12,12.52,4.99,24.57,14.39,33.97,13.35,13.33,26.59,26.76,39.86,40.18,35.67,36.14,72.58,73.5,110.73,108.38,45.75,41.81,101.45,63.7,165.77,65.2l-62.65,63.21c-15.74,15.83-31.57,31.55-47.4,47.28l-3.97,3.95c-4.15,4.13-8.62,4.18-12.61.24l-71.87-71.72c-60.19-59.97-122.41-121.98-182.85-183.66-36.67-37.43-47.52-83.85-31.37-134.24,16.08-50.15,51.38-80.88,104.89-91.32,8.56-1.67,16.94-2.5,25.18-2.5,34.41,0,66.16,14.65,96.49,44.36,35.27,34.58,71.48,70.8,110.66,110.76,20.96,21.33,48.9,31.98,78.63,29.9,31.89-2.23,61.57-18.9,81.42-45.76,10.38-14.06,7.78-35.3-5.92-48.34-14.38-13.7-36.4-14.88-52.43-2.87-2.94,2.19-5.64,4.71-8.34,7.24-1.92,1.81-3.85,3.63-5.89,5.26-11.39,9.06-23.93,8.12-35.32-2.72-12.39-11.76-24.38-23.96-36.38-36.14l-5.08-5.16c24.37-25.13,52.36-48.4,90.36-54.42,66.77-10.55,133.73,34.24,149.47,99.9,18.27,76.24-28.18,150.03-108.05,171.63Z"/><g class="cls-3"><rect class="cls-1" x="-92.14" y="-68.46" width="947.06" height="947.06" transform="translate(-23.68 786.46) rotate(-90)"/><g class="cls-2"><rect class="cls-1" x="-92.14" y="672.4" width="947.06" height="17.18"/><rect class="cls-1" x="-92.14" y="655.22" width="947.06" height="17.18"/><rect class="cls-1" x="-92.14" y="638.04" width="947.06" height="17.18"/><rect class="cls-1" x="-92.14" y="620.85" width="947.06" height="17.18"/><rect class="cls-1" x="-92.14" y="603.67" width="947.06" height="17.18"/><rect class="cls-1" x="-92.14" y="586.49" width="947.06" height="17.18"/><rect class="cls-1" x="-92.14" y="569.3" width="947.06" height="17.18"/><rect class="cls-1" x="-92.14" y="552.12" width="947.06" height="17.18"/><rect class="cls-1" x="-92.14" y="534.94" width="947.06" height="17.18"/><rect class="cls-1" x="-92.14" y="517.75" width="947.06" height="17.18"/><rect class="cls-1" x="-92.14" y="500.57" width="947.06" height="17.18"/><rect class="cls-1" x="-92.14" y="483.39" width="947.06" height="17.18"/><rect class="cls-1" x="-92.14" y="466.21" width="947.06" height="17.18"/><rect class="cls-1" x="-92.14" y="449.02" width="947.06" height="17.18"/><rect class="cls-1" x="-92.14" y="431.84" width="947.06" height="17.18"/><rect class="cls-1" x="-92.14" y="414.66" width="947.06" height="17.18"/><rect class="cls-1" x="-92.14" y="397.47" width="947.06" height="17.18"/><rect class="cls-1" x="-92.14" y="380.29" width="947.06" height="17.18"/><rect class="cls-1" x="-92.14" y="363.11" width="947.06" height="17.18"/><rect class="cls-1" x="-92.14" y="345.92" width="947.06" height="17.18"/><rect class="cls-1" x="-92.14" y="328.74" width="947.06" height="17.18"/><rect class="cls-1" x="-92.14" y="311.56" width="947.06" height="17.18"/><rect class="cls-1" x="-92.14" y="294.37" width="947.06" height="17.18"/><rect class="cls-1" x="-92.14" y="277.19" width="947.06" height="17.18"/><rect class="cls-1" x="-92.14" y="260.01" width="947.06" height="17.18"/><rect class="cls-1" x="-92.14" y="242.82" width="947.06" height="17.18"/><rect class="cls-1" x="-92.14" y="225.64" width="947.06" height="17.18"/><rect class="cls-1" x="-92.14" y="208.46" width="947.06" height="17.18"/><rect class="cls-1" x="-92.14" y="191.28" width="947.06" height="17.18"/><rect class="cls-1" x="-92.14" y="174.09" width="947.06" height="17.18"/><rect class="cls-1" x="-92.14" y="156.91" width="947.06" height="17.18"/><rect class="cls-1" x="-92.14" y="139.73" width="947.06" height="17.18"/><rect class="cls-1" x="-92.14" y="122.54" width="947.06" height="17.18"/><rect class="cls-1" x="-92.14" y="105.36" width="947.06" height="17.18"/><rect class="cls-1" x="-92.14" y="88.18" width="947.06" height="17.18"/><rect class="cls-1" x="-92.14" y="70.99" width="947.06" height="17.18"/><rect class="cls-1" x="-92.14" y="53.81" width="947.06" height="17.18"/><rect class="cls-1" x="-92.14" y="36.63" width="947.06" height="17.18"/><rect class="cls-1" x="-92.14" y="19.44" width="947.06" height="17.18"/><rect class="cls-1" x="-92.14" y="2.26" width="947.06" height="17.18"/><rect class="cls-1" x="-92.14" y="-14.92" width="947.06" height="17.18"/></g></g></svg>