<?xml version="1.0" encoding="UTF-8"?><svg id="Layer_1" xmlns="http://www.w3.org/2000/svg" xmlns:xlink="http://www.w3.org/1999/xlink" viewBox="0 0 2221.55 378.44"><defs><style>.cls-1{fill:none;}.cls-2{fill:#cad5dc;}.cls-3{fill:#c8d3db;}.cls-4{fill:#bdcbd4;}.cls-5{fill:#bfcdd5;}.cls-6{fill:#ccd6de;}.cls-7{fill:#b8c7d1;}.cls-8{fill:#cdd7de;}.cls-9{fill:#c5d2da;}.cls-10{fill:#bbcad2;}.cls-11{fill:#c5d1d9;}.cls-12{fill:#d5dce2;}.cls-13{fill:#bacad3;}.cls-14{fill:#cfd8df;}.cls-15{fill:#b7c7d0;}.cls-16{fill:#b5c6cf;}.cls-17{fill:#d3dbe1;}.cls-18{fill:#bac9d2;}.cls-19{clip-path:url(#clippath-1);}.cls-20{fill:#c3cfd8;}.cls-21{fill:#fff;}.cls-22{fill:#b9c8d2;}.cls-23{fill:#c0ced6;}.cls-24{fill:#bbcad3;}.cls-25{fill:#beccd5;}.cls-26{fill:#b1c3cd;}.cls-27{fill:#b7c7d1;}.cls-28{fill:#b1c3cd;}.cls-29{fill:#c6d2da;}.cls-30{fill:#d8dfe5;}.cls-31{fill:#c4d0d8;}.cls-32{fill:#d0d9e0;}.cls-33{fill:#c1ced6;}.cls-34{fill:#bccbd4;}.cls-35{fill:#d1dae1;}.cls-36{fill:#d6dde4;}.cls-37{fill:#b4c5ce;}.cls-38{fill:#b5c6d0;}.cls-39{fill:#b6c6d0;}.cls-40{fill:#c9d5dc;}.cls-41{clip-path:url(#clippath);}.cls-42{fill:#b2c4cd;}.cls-43{fill:#b3c5ce;}</style><clipPath id="clippath"><path class="cls-1" d="M415.52,105.09c-5.7-36.55-27.62-67.36-60.16-84.51-32.84-17.32-71.08-17.99-104.91-1.82-15.21,7.28-26.37,18.65-38.19,30.71l-.92.93c-2.4-2.81-4.77-5.56-7.35-8.05C173.21,12.63,137.7,1.56,98.42,9.47,53.98,18.4,23.65,45.79,10.7,88.68c-13.13,43.47-3.2,83.53,28.72,115.86,44.49,45.04,90.1,90.44,134.22,134.35l32.03,31.89c1.27,1.27,3.31,1.9,5.36,1.9s4.14-.64,5.44-1.93l22.26-22.17c48.53-48.34,97.06-96.69,145.3-145.32,26.83-27.06,37.43-60.09,31.5-98.17ZM313.61,198.69c-39.43,10.63-73.89,1.81-102.43-26.3-16.61-16.35-33.06-32.88-49.51-49.4l-23.07-23.13c-10.18-10.19-25.79-10.78-35.52-1.35-4.55,4.4-7.09,10.32-7.15,16.66-.06,6.85,2.73,13.45,7.88,18.59,7.3,7.3,14.55,14.65,21.81,21.99,19.52,19.78,39.72,40.23,60.6,59.31,25.04,22.88,55.52,34.86,90.72,35.68l-34.29,34.59c-8.62,8.66-17.28,17.27-25.94,25.88l-2.17,2.16c-2.27,2.26-4.72,2.29-6.9.13l-39.33-39.25c-32.94-32.82-66.99-66.76-100.07-100.51-20.07-20.48-26-45.89-17.17-73.46,8.8-27.45,28.12-44.26,57.4-49.98,4.68-.91,9.27-1.37,13.78-1.37,18.83,0,36.21,8.02,52.8,24.28,19.3,18.92,39.12,38.75,60.56,60.62,11.47,11.67,26.76,17.5,43.03,16.36,17.45-1.22,33.7-10.34,44.56-25.04,5.68-7.69,4.26-19.32-3.24-26.46-7.87-7.5-19.92-8.14-28.69-1.57-1.61,1.2-3.08,2.58-4.56,3.96-1.05.99-2.11,1.99-3.22,2.88-6.23,4.96-13.09,4.44-19.33-1.49-6.78-6.44-13.34-13.11-19.91-19.78l-2.78-2.83c13.33-13.75,28.66-26.48,49.45-29.78,36.54-5.77,73.18,18.74,81.8,54.67,10,41.72-15.42,82.1-59.13,93.93Z"/></clipPath><clipPath id="clippath-1"><rect class="cls-1" x="-48.13" y="-34.3" width="518.29" height="518.29" transform="translate(-13.83 435.86) rotate(-90)"/></clipPath></defs><circle class="cls-28" cx="1925" cy="50.6" r="27.05"/><g class="cls-41"><g class="cls-19"><rect class="cls-26" x="-48.13" y="371.14" width="518.29" height="9.4"/><rect class="cls-42" x="-48.13" y="361.74" width="518.29" height="9.4"/><rect class="cls-42" x="-48.13" y="352.34" width="518.29" height="9.4"/><rect class="cls-43" x="-48.13" y="342.93" width="518.29" height="9.4"/><rect class="cls-43" x="-48.13" y="333.53" width="518.29" height="9.4"/><rect class="cls-37" x="-48.13" y="324.13" width="518.29" height="9.4"/><rect class="cls-37" x="-48.13" y="314.72" width="518.29" height="9.4"/><rect class="cls-16" x="-48.13" y="305.32" width="518.29" height="9.4"/><rect class="cls-38" x="-48.13" y="295.92" width="518.29" height="9.4"/><rect class="cls-39" x="-48.13" y="286.51" width="518.29" height="9.4"/><rect class="cls-15" x="-48.13" y="277.11" width="518.29" height="9.4"/><rect class="cls-27" x="-48.13" y="267.7" width="518.29" height="9.4"/><rect class="cls-7" x="-48.13" y="258.3" width="518.29" height="9.4"/><rect class="cls-22" x="-48.13" y="248.9" width="518.29" height="9.4"/><rect class="cls-18" x="-48.13" y="239.49" width="518.29" height="9.4"/><rect class="cls-10" x="-48.13" y="230.09" width="518.29" height="9.4"/><rect class="cls-13" x="-48.13" y="220.69" width="518.29" height="9.4"/><rect class="cls-24" x="-48.13" y="211.28" width="518.29" height="9.4"/><rect class="cls-34" x="-48.13" y="201.88" width="518.29" height="9.4"/><rect class="cls-4" x="-48.13" y="192.48" width="518.29" height="9.4"/><rect class="cls-25" x="-48.13" y="183.07" width="518.29" height="9.4"/><rect class="cls-5" x="-48.13" y="173.67" width="518.29" height="9.4"/><rect class="cls-23" x="-48.13" y="164.26" width="518.29" height="9.4"/><rect class="cls-33" x="-48.13" y="154.86" width="518.29" height="9.4"/><rect class="cls-20" x="-48.13" y="145.46" width="518.29" height="9.4"/><rect class="cls-31" x="-48.13" y="136.05" width="518.29" height="9.4"/><rect class="cls-11" x="-48.13" y="126.65" width="518.29" height="9.4"/><rect class="cls-9" x="-48.13" y="117.25" width="518.29" height="9.4"/><rect class="cls-29" x="-48.13" y="107.84" width="518.29" height="9.4"/><rect class="cls-3" x="-48.13" y="98.44" width="518.29" height="9.4"/><rect class="cls-40" x="-48.13" y="89.04" width="518.29" height="9.4"/><rect class="cls-2" x="-48.13" y="79.63" width="518.29" height="9.4"/><rect class="cls-6" x="-48.13" y="70.23" width="518.29" height="9.4"/><rect class="cls-8" x="-48.13" y="60.83" width="518.29" height="9.4"/><rect class="cls-14" x="-48.13" y="51.42" width="518.29" height="9.4"/><rect class="cls-32" x="-48.13" y="42.02" width="518.29" height="9.4"/><rect class="cls-35" x="-48.13" y="32.61" width="518.29" height="9.4"/><rect class="cls-17" x="-48.13" y="23.21" width="518.29" height="9.4"/><rect class="cls-12" x="-48.13" y="13.81" width="518.29" height="9.4"/><rect class="cls-36" x="-48.13" y="4.4" width="518.29" height="9.4"/><rect class="cls-30" x="-48.13" y="-5" width="518.29" height="9.4"/></g></g><polygon class="cls-21" points="577.82 47.5 534.06 47.5 534.06 332.82 704.17 332.82 704.17 291.94 577.82 291.94 577.82 47.5"/><path class="cls-21" d="M821.01,111.5c-61.93,0-112.31,50.37-112.31,112.31s50.37,112.31,112.31,112.31,112.31-50.37,112.31-112.31-50.38-112.31-112.31-112.31ZM821.01,297.72c-40.88,0-73.91-33.03-73.91-73.91s33.03-73.91,73.91-73.91,73.91,33.03,73.91,73.91-33.03,73.91-73.91,73.91Z"/><path class="cls-21" d="M1063.35,149.9c27.25,0,51.2,15.28,64,37.57h41.29c-14.45-44.18-56.57-75.97-105.29-75.97-61.93,0-112.31,50.37-112.31,112.31s50.37,112.31,112.31,112.31c48.72,0,90.43-31.79,105.29-75.56h-41.7c-12.8,22.3-36.34,37.16-63.59,37.16-40.87,0-73.91-33.03-73.91-73.91s33.03-73.91,73.91-73.91Z"/><path class="cls-21" d="M1371.76,146.19c-19.82-19.82-47.48-32.21-77.62-32.21-59.87,0-109,49.13-109,109s49.13,109.83,109,109.83c30.14,0,57.81-12.39,77.62-32.21v32.21h41.7V116.87h-41.7v29.32ZM1298.68,294c-38.81,0-70.19-31.38-70.19-71.02s31.38-69.78,70.19-69.78,70.61,31.38,70.61,69.78-31.38,71.02-70.61,71.02Z"/><rect class="cls-21" x="1460.52" y="47.5" width="41.7" height="285.31"/><path class="cls-21" d="M1721.46,47.5l-105.7,285.31h44.59l24.43-65.56c13.3,8.55,34.81,19.03,60.6,19.03,17.62,0,37.22-4.92,57.48-18.69l24.31,65.22h44.59l-105.7-285.31h-44.6ZM1699.19,228.48l44.56-120.28,44.52,120.18c-43.06,35.95-80.98,7.17-89.08.1Z"/><rect class="cls-21" x="1904.35" y="116.87" width="41.29" height="215.94"/><path class="cls-21" d="M2172.73,47.5v98.68c-19.82-19.82-47.07-32.21-77.63-32.21-59.87,0-109,49.13-109,109s49.13,109.83,109,109.83c30.56,0,57.81-12.39,77.63-32.21v32.21h41.7V47.5h-41.7ZM2100.06,294c-38.81,0-70.61-31.38-70.61-71.02s31.8-69.78,70.61-69.78,70.61,31.38,70.61,69.78-31.38,71.02-70.61,71.02Z"/></svg>